<svg width="957" height="936" xmlns="http://www.w3.org/2000/svg" xmlns:xlink="http://www.w3.org/1999/xlink" xml:space="preserve" overflow="hidden"><defs><clipPath id="clip0"><rect x="1194" y="651" width="957" height="936"/></clipPath></defs><g clip-path="url(#clip0)" transform="translate(-1194 -651)"><path d="M1197.5 673.656C1197.5 663.076 1206.08 654.5 1216.66 654.5L2128.34 654.5C2138.92 654.5 2147.5 663.076 2147.5 673.656L2147.5 1564.34C2147.5 1574.92 2138.92 1583.5 2128.34 1583.5L1216.66 1583.5C1206.08 1583.5 1197.5 1574.92 1197.5 1564.34Z" stroke="#000000" stroke-width="6.875" stroke-miterlimit="8" fill="#404040" fill-rule="evenodd"/><path d="M1579.5 687.5 1579.5 1557.97" stroke="#000000" stroke-width="6.875" stroke-miterlimit="8" fill="none" fill-rule="evenodd"/><path d="M1221.5 1224.5 2117.96 1224.5" stroke="#000000" stroke-width="6.875" stroke-miterlimit="8" fill="none" fill-rule="evenodd"/><path d="M1401.5 687.5 1401.5 1557.97" stroke="#000000" stroke-width="6.875" stroke-miterlimit="8" fill="none" fill-rule="evenodd"/><path d="M1761.5 687.5 1761.5 1557.97" stroke="#000000" stroke-width="6.875" stroke-miterlimit="8" fill="none" fill-rule="evenodd"/><path d="M1942.5 683.5 1942.5 1553.97" stroke="#000000" stroke-width="6.875" stroke-miterlimit="8" fill="none" fill-rule="evenodd"/><path d="M2123.5 685.5 2123.5 1555.97" stroke="#000000" stroke-width="6.875" stroke-miterlimit="8" fill="none" fill-rule="evenodd"/><path d="M1217.5 683.5 2126.95 683.5" stroke="#000000" stroke-width="6.875" stroke-miterlimit="8" fill="none" fill-rule="evenodd"/><path d="M1224.5 862.5 2120.96 862.5" stroke="#000000" stroke-width="6.875" stroke-miterlimit="8" fill="none" fill-rule="evenodd"/><path d="M1224.5 1043.5 2120.96 1043.5" stroke="#000000" stroke-width="6.875" stroke-miterlimit="8" fill="none" fill-rule="evenodd"/><path d="M1218.5 1405.5 2127.95 1405.5" stroke="#000000" stroke-width="6.875" stroke-miterlimit="8" fill="none" fill-rule="evenodd"/><path d="M2005.5 1470C2005.5 1442.11 2027.89 1419.5 2055.5 1419.5 2083.11 1419.5 2105.5 1442.11 2105.5 1470 2105.5 1497.89 2083.11 1520.5 2055.5 1520.5 2027.89 1520.5 2005.5 1497.89 2005.5 1470Z" stroke="#000000" stroke-width="6.875" stroke-miterlimit="8" fill="#7F7F7F" fill-rule="evenodd"/><text font-family="Calibri,Calibri_MSFontService,sans-serif" font-weight="400" font-size="41" transform="matrix(1 0 0 1 2045.87 1447)">+</text><text font-family="Calibri,Calibri_MSFontService,sans-serif" font-weight="400" font-size="55" transform="matrix(1 0 0 1 2080.83 1481)">-</text><path d="M0 0 19.7711 0.000360892" stroke="#000000" stroke-width="6.875" stroke-miterlimit="8" fill="none" fill-rule="evenodd" transform="matrix(-1 0 0 1 2125.27 1469.5)"/><path d="M2055.5 1401.5 2055.5 1421.27" stroke="#000000" stroke-width="6.875" stroke-miterlimit="8" fill="none" fill-rule="evenodd"/><text font-family="Aptos,Aptos_MSFontService,sans-serif" font-weight="400" font-size="37" transform="matrix(1 0 0 1 2044.35 1483)">1</text><path d="M2005.5 1290C2005.5 1262.11 2027.89 1239.5 2055.5 1239.5 2083.11 1239.5 2105.5 1262.11 2105.5 1290 2105.5 1317.89 2083.11 1340.5 2055.5 1340.5 2027.89 1340.5 2005.5 1317.89 2005.5 1290Z" stroke="#000000" stroke-width="6.875" stroke-miterlimit="8" fill="#7F7F7F" fill-rule="evenodd"/><text font-family="Calibri,Calibri_MSFontService,sans-serif" font-weight="400" font-size="41" transform="matrix(1 0 0 1 2045.44 1267)">+</text><text font-family="Calibri,Calibri_MSFontService,sans-serif" font-weight="400" font-size="55" transform="matrix(1 0 0 1 2080.4 1301)">-</text><path d="M0 0 19.7711 0.000360892" stroke="#000000" stroke-width="6.875" stroke-miterlimit="8" fill="none" fill-rule="evenodd" transform="matrix(-1 0 0 1 2125.27 1289.5)"/><path d="M2055.5 1221.5 2055.5 1241.27" stroke="#000000" stroke-width="6.875" stroke-miterlimit="8" fill="none" fill-rule="evenodd"/><text font-family="Aptos,Aptos_MSFontService,sans-serif" font-weight="400" font-size="37" transform="matrix(1 0 0 1 2043.92 1303)">2</text><path d="M2006.5 1110C2006.5 1082.11 2028.89 1059.5 2056.5 1059.5 2084.11 1059.5 2106.5 1082.11 2106.5 1110 2106.5 1137.89 2084.11 1160.5 2056.5 1160.5 2028.89 1160.5 2006.5 1137.89 2006.5 1110Z" stroke="#000000" stroke-width="6.875" stroke-miterlimit="8" fill="#7F7F7F" fill-rule="evenodd"/><text font-family="Calibri,Calibri_MSFontService,sans-serif" font-weight="400" font-size="41" transform="matrix(1 0 0 1 2046.64 1087)">+</text><text font-family="Calibri,Calibri_MSFontService,sans-serif" font-weight="400" font-size="55" transform="matrix(1 0 0 1 2081.61 1121)">-</text><path d="M0 0 19.7711 0.000360892" stroke="#000000" stroke-width="6.875" stroke-miterlimit="8" fill="none" fill-rule="evenodd" transform="matrix(-1 0 0 1 2126.27 1110.5)"/><path d="M2056.5 1042.5 2056.5 1062.27" stroke="#000000" stroke-width="6.875" stroke-miterlimit="8" fill="none" fill-rule="evenodd"/><text font-family="Aptos,Aptos_MSFontService,sans-serif" font-weight="400" font-size="37" transform="matrix(1 0 0 1 2045.12 1123)">3</text><path d="M2005.5 929C2005.5 901.11 2027.89 878.5 2055.5 878.5 2083.11 878.5 2105.5 901.11 2105.5 929 2105.5 956.89 2083.11 979.5 2055.5 979.5 2027.89 979.5 2005.5 956.89 2005.5 929Z" stroke="#000000" stroke-width="6.875" stroke-miterlimit="8" fill="#7F7F7F" fill-rule="evenodd"/><text font-family="Calibri,Calibri_MSFontService,sans-serif" font-weight="400" font-size="41" transform="matrix(1 0 0 1 2045.87 906)">+</text><text font-family="Calibri,Calibri_MSFontService,sans-serif" font-weight="400" font-size="55" transform="matrix(1 0 0 1 2080.83 940)">-</text><path d="M0 0 19.7711 0.000360892" stroke="#000000" stroke-width="6.875" stroke-miterlimit="8" fill="none" fill-rule="evenodd" transform="matrix(-1 0 0 1 2125.27 928.5)"/><path d="M2055.5 860.5 2055.5 880.271" stroke="#000000" stroke-width="6.875" stroke-miterlimit="8" fill="none" fill-rule="evenodd"/><text font-family="Aptos,Aptos_MSFontService,sans-serif" font-weight="400" font-size="37" transform="matrix(1 0 0 1 2044.35 942)">4</text><path d="M2005.5 749.5C2005.5 721.333 2027.89 698.5 2055.5 698.5 2083.11 698.5 2105.5 721.333 2105.5 749.5 2105.5 777.667 2083.11 800.5 2055.5 800.5 2027.89 800.5 2005.5 777.667 2005.5 749.5Z" stroke="#000000" stroke-width="6.875" stroke-miterlimit="8" fill="#7F7F7F" fill-rule="evenodd"/><text font-family="Calibri,Calibri_MSFontService,sans-serif" font-weight="400" font-size="41" transform="matrix(1 0 0 1 2045.99 727)">+</text><text font-family="Calibri,Calibri_MSFontService,sans-serif" font-weight="400" font-size="55" transform="matrix(1 0 0 1 2080.96 761)">-</text><path d="M0 0 19.7711 0.000360892" stroke="#000000" stroke-width="6.875" stroke-miterlimit="8" fill="none" fill-rule="evenodd" transform="matrix(-1 0 0 1 2125.27 749.5)"/><path d="M2055.5 681.5 2055.5 701.271" stroke="#000000" stroke-width="6.875" stroke-miterlimit="8" fill="none" fill-rule="evenodd"/><text font-family="Aptos,Aptos_MSFontService,sans-serif" font-weight="400" font-size="37" transform="matrix(1 0 0 1 2044.48 763)">5</text><path d="M1824.5 1470C1824.5 1442.11 1846.89 1419.5 1874.5 1419.5 1902.11 1419.5 1924.5 1442.11 1924.5 1470 1924.5 1497.89 1902.11 1520.5 1874.5 1520.5 1846.89 1520.5 1824.5 1497.89 1824.5 1470Z" stroke="#000000" stroke-width="6.875" stroke-miterlimit="8" fill="#00B0F0" fill-rule="evenodd"/><text font-family="Calibri,Calibri_MSFontService,sans-serif" font-weight="400" font-size="41" transform="matrix(1 0 0 1 1864.45 1447)">+</text><text font-family="Calibri,Calibri_MSFontService,sans-serif" font-weight="400" font-size="55" transform="matrix(1 0 0 1 1899.42 1481)">-</text><path d="M0 0 19.7711 0.000360892" stroke="#000000" stroke-width="6.875" stroke-miterlimit="8" fill="none" fill-rule="evenodd" transform="matrix(-1 0 0 1 1944.27 1469.5)"/><path d="M1874.5 1401.5 1874.5 1421.27" stroke="#000000" stroke-width="6.875" stroke-miterlimit="8" fill="none" fill-rule="evenodd"/><text font-family="Aptos,Aptos_MSFontService,sans-serif" font-weight="400" font-size="37" transform="matrix(1 0 0 1 1862.94 1483)">6</text><path d="M1825.5 1290C1825.5 1262.11 1847.89 1239.5 1875.5 1239.5 1903.11 1239.5 1925.5 1262.11 1925.5 1290 1925.5 1317.89 1903.11 1340.5 1875.5 1340.5 1847.89 1340.5 1825.5 1317.89 1825.5 1290Z" stroke="#000000" stroke-width="6.875" stroke-miterlimit="8" fill="#7F7F7F" fill-rule="evenodd"/><text font-family="Calibri,Calibri_MSFontService,sans-serif" font-weight="400" font-size="41" transform="matrix(1 0 0 1 1865.74 1267)">+</text><text font-family="Calibri,Calibri_MSFontService,sans-serif" font-weight="400" font-size="55" transform="matrix(1 0 0 1 1900.71 1301)">-</text><path d="M0 0 19.7711 0.000360892" stroke="#000000" stroke-width="6.875" stroke-miterlimit="8" fill="none" fill-rule="evenodd" transform="matrix(-1 0 0 1 1945.27 1289.5)"/><path d="M1875.5 1221.5 1875.5 1241.27" stroke="#000000" stroke-width="6.875" stroke-miterlimit="8" fill="none" fill-rule="evenodd"/><text font-family="Aptos,Aptos_MSFontService,sans-serif" font-weight="400" font-size="37" transform="matrix(1 0 0 1 1864.23 1303)">7</text><path d="M1825.5 1110C1825.5 1082.11 1847.66 1059.5 1875 1059.5 1902.34 1059.5 1924.5 1082.11 1924.5 1110 1924.5 1137.89 1902.34 1160.5 1875 1160.5 1847.66 1160.5 1825.5 1137.89 1825.5 1110Z" stroke="#000000" stroke-width="6.875" stroke-miterlimit="8" fill="#7F7F7F" fill-rule="evenodd"/><text font-family="Calibri,Calibri_MSFontService,sans-serif" font-weight="400" font-size="41" transform="matrix(1 0 0 1 1865.23 1087)">+</text><text font-family="Calibri,Calibri_MSFontService,sans-serif" font-weight="400" font-size="55" transform="matrix(1 0 0 1 1900.19 1121)">-</text><path d="M0 0 19.7711 0.000360892" stroke="#000000" stroke-width="6.875" stroke-miterlimit="8" fill="none" fill-rule="evenodd" transform="matrix(-1 0 0 1 1944.27 1110.5)"/><path d="M1874.5 1042.5 1874.5 1062.27" stroke="#000000" stroke-width="6.875" stroke-miterlimit="8" fill="none" fill-rule="evenodd"/><text font-family="Aptos,Aptos_MSFontService,sans-serif" font-weight="400" font-size="37" transform="matrix(1 0 0 1 1863.71 1124)">8</text><path d="M1824.5 929C1824.5 901.11 1846.89 878.5 1874.5 878.5 1902.11 878.5 1924.5 901.11 1924.5 929 1924.5 956.89 1902.11 979.5 1874.5 979.5 1846.89 979.5 1824.5 956.89 1824.5 929Z" stroke="#000000" stroke-width="6.875" stroke-miterlimit="8" fill="#7F7F7F" fill-rule="evenodd"/><text font-family="Calibri,Calibri_MSFontService,sans-serif" font-weight="400" font-size="41" transform="matrix(1 0 0 1 1864.45 906)">+</text><text font-family="Calibri,Calibri_MSFontService,sans-serif" font-weight="400" font-size="55" transform="matrix(1 0 0 1 1899.42 940)">-</text><path d="M0 0 19.7711 0.000360892" stroke="#000000" stroke-width="6.875" stroke-miterlimit="8" fill="none" fill-rule="evenodd" transform="matrix(-1 0 0 1 1944.27 929.5)"/><path d="M1874.5 861.5 1874.5 881.271" stroke="#000000" stroke-width="6.875" stroke-miterlimit="8" fill="none" fill-rule="evenodd"/><text font-family="Aptos,Aptos_MSFontService,sans-serif" font-weight="400" font-size="37" transform="matrix(1 0 0 1 1862.94 942)">9</text><path d="M1824.5 749.5C1824.5 721.333 1846.89 698.5 1874.5 698.5 1902.11 698.5 1924.5 721.333 1924.5 749.5 1924.5 777.667 1902.11 800.5 1874.5 800.5 1846.89 800.5 1824.5 777.667 1824.5 749.5Z" stroke="#000000" stroke-width="6.875" stroke-miterlimit="8" fill="#7F7F7F" fill-rule="evenodd"/><text font-family="Calibri,Calibri_MSFontService,sans-serif" font-weight="400" font-size="41" transform="matrix(1 0 0 1 1864.58 727)">+</text><text font-family="Calibri,Calibri_MSFontService,sans-serif" font-weight="400" font-size="55" transform="matrix(1 0 0 1 1899.55 761)">-</text><path d="M0 0 19.7711 0.000360892" stroke="#000000" stroke-width="6.875" stroke-miterlimit="8" fill="none" fill-rule="evenodd" transform="matrix(-1 0 0 1 1944.27 749.5)"/><path d="M1874.5 681.5 1874.5 701.271" stroke="#000000" stroke-width="6.875" stroke-miterlimit="8" fill="none" fill-rule="evenodd"/><text font-family="Aptos,Aptos_MSFontService,sans-serif" font-weight="400" font-size="37" transform="matrix(1 0 0 1 1853.33 763)">10</text><path d="M1644.5 1470.5C1644.5 1442.33 1666.89 1419.5 1694.5 1419.5 1722.11 1419.5 1744.5 1442.33 1744.5 1470.5 1744.5 1498.67 1722.11 1521.5 1694.5 1521.5 1666.89 1521.5 1644.5 1498.67 1644.5 1470.5Z" stroke="#000000" stroke-width="6.875" stroke-miterlimit="8" fill="#7F7F7F" fill-rule="evenodd"/><text font-family="Calibri,Calibri_MSFontService,sans-serif" font-weight="400" font-size="41" transform="matrix(1 0 0 1 1684.74 1448)">+</text><text font-family="Calibri,Calibri_MSFontService,sans-serif" font-weight="400" font-size="55" transform="matrix(1 0 0 1 1719.7 1482)">-</text><path d="M0 0 19.7711 0.000360892" stroke="#000000" stroke-width="6.875" stroke-miterlimit="8" fill="none" fill-rule="evenodd" transform="matrix(-1 0 0 1 1764.27 1470.5)"/><path d="M1694.5 1402.5 1694.5 1422.27" stroke="#000000" stroke-width="6.875" stroke-miterlimit="8" fill="none" fill-rule="evenodd"/><text font-family="Aptos,Aptos_MSFontService,sans-serif" font-weight="400" font-size="37" transform="matrix(1 0 0 1 1673.48 1481)">11</text><path d="M1645.5 1290.5C1645.5 1262.33 1667.89 1239.5 1695.5 1239.5 1723.11 1239.5 1745.5 1262.33 1745.5 1290.5 1745.5 1318.67 1723.11 1341.5 1695.5 1341.5 1667.89 1341.5 1645.5 1318.67 1645.5 1290.5Z" stroke="#000000" stroke-width="6.875" stroke-miterlimit="8" fill="#7F7F7F" fill-rule="evenodd"/><text font-family="Calibri,Calibri_MSFontService,sans-serif" font-weight="400" font-size="41" transform="matrix(1 0 0 1 1686.03 1268)">+</text><text font-family="Calibri,Calibri_MSFontService,sans-serif" font-weight="400" font-size="55" transform="matrix(1 0 0 1 1720.99 1302)">-</text><path d="M0 0 19.7711 0.000360892" stroke="#000000" stroke-width="6.875" stroke-miterlimit="8" fill="none" fill-rule="evenodd" transform="matrix(-1 0 0 1 1765.27 1290.5)"/><path d="M1695.5 1222.5 1695.5 1242.27" stroke="#000000" stroke-width="6.875" stroke-miterlimit="8" fill="none" fill-rule="evenodd"/><text font-family="Aptos,Aptos_MSFontService,sans-serif" font-weight="400" font-size="37" transform="matrix(1 0 0 1 1674.77 1304)">12</text><path d="M1645.5 1111C1645.5 1083.11 1667.89 1060.5 1695.5 1060.5 1723.11 1060.5 1745.5 1083.11 1745.5 1111 1745.5 1138.89 1723.11 1161.5 1695.5 1161.5 1667.89 1161.5 1645.5 1138.89 1645.5 1111Z" stroke="#000000" stroke-width="6.875" stroke-miterlimit="8" fill="#7F7F7F" fill-rule="evenodd"/><text font-family="Calibri,Calibri_MSFontService,sans-serif" font-weight="400" font-size="41" transform="matrix(1 0 0 1 1685.51 1088)">+</text><text font-family="Calibri,Calibri_MSFontService,sans-serif" font-weight="400" font-size="55" transform="matrix(1 0 0 1 1720.48 1122)">-</text><path d="M0 0 19.7711 0.000360892" stroke="#000000" stroke-width="6.875" stroke-miterlimit="8" fill="none" fill-rule="evenodd" transform="matrix(-1 0 0 1 1765.27 1110.5)"/><path d="M1695.5 1042.5 1695.5 1062.27" stroke="#000000" stroke-width="6.875" stroke-miterlimit="8" fill="none" fill-rule="evenodd"/><text font-family="Aptos,Aptos_MSFontService,sans-serif" font-weight="400" font-size="37" transform="matrix(1 0 0 1 1674.26 1124)">13</text><path d="M1644.5 930C1644.5 902.11 1666.89 879.5 1694.5 879.5 1722.11 879.5 1744.5 902.11 1744.5 930 1744.5 957.89 1722.11 980.5 1694.5 980.5 1666.89 980.5 1644.5 957.89 1644.5 930Z" stroke="#000000" stroke-width="6.875" stroke-miterlimit="8" fill="#7F7F7F" fill-rule="evenodd"/><text font-family="Calibri,Calibri_MSFontService,sans-serif" font-weight="400" font-size="41" transform="matrix(1 0 0 1 1684.74 907)">+</text><text font-family="Calibri,Calibri_MSFontService,sans-serif" font-weight="400" font-size="55" transform="matrix(1 0 0 1 1719.7 941)">-</text><path d="M0 0 19.7711 0.000360892" stroke="#000000" stroke-width="6.875" stroke-miterlimit="8" fill="none" fill-rule="evenodd" transform="matrix(-1 0 0 1 1764.27 929.5)"/><path d="M1694.5 861.5 1694.5 881.271" stroke="#000000" stroke-width="6.875" stroke-miterlimit="8" fill="none" fill-rule="evenodd"/><text font-family="Aptos,Aptos_MSFontService,sans-serif" font-weight="400" font-size="37" transform="matrix(1 0 0 1 1673.48 943)">14</text><path d="M1644.5 750.5C1644.5 722.334 1666.89 699.5 1694.5 699.5 1722.11 699.5 1744.5 722.334 1744.5 750.5 1744.5 778.667 1722.11 801.5 1694.5 801.5 1666.89 801.5 1644.5 778.667 1644.5 750.5Z" stroke="#000000" stroke-width="6.875" stroke-miterlimit="8" fill="#7F7F7F" fill-rule="evenodd"/><text font-family="Calibri,Calibri_MSFontService,sans-serif" font-weight="400" font-size="41" transform="matrix(1 0 0 1 1684.86 728)">+</text><text font-family="Calibri,Calibri_MSFontService,sans-serif" font-weight="400" font-size="55" transform="matrix(1 0 0 1 1719.83 762)">-</text><path d="M0 0 19.7711 0.000360892" stroke="#000000" stroke-width="6.875" stroke-miterlimit="8" fill="none" fill-rule="evenodd" transform="matrix(-1 0 0 1 1764.27 750.5)"/><path d="M1694.5 682.5 1694.5 702.271" stroke="#000000" stroke-width="6.875" stroke-miterlimit="8" fill="none" fill-rule="evenodd"/><text font-family="Aptos,Aptos_MSFontService,sans-serif" font-weight="400" font-size="37" transform="matrix(1 0 0 1 1673.61 764)">15</text><path d="M1463.5 1470C1463.5 1442.11 1485.89 1419.5 1513.5 1419.5 1541.11 1419.5 1563.5 1442.11 1563.5 1470 1563.5 1497.89 1541.11 1520.5 1513.5 1520.5 1485.89 1520.5 1463.5 1497.89 1463.5 1470Z" stroke="#000000" stroke-width="6.875" stroke-miterlimit="8" fill="#7F7F7F" fill-rule="evenodd"/><text font-family="Calibri,Calibri_MSFontService,sans-serif" font-weight="400" font-size="41" transform="matrix(1 0 0 1 1503.33 1447)">+</text><text font-family="Calibri,Calibri_MSFontService,sans-serif" font-weight="400" font-size="55" transform="matrix(1 0 0 1 1538.29 1481)">-</text><path d="M0 0 19.7711 0.000360892" stroke="#000000" stroke-width="6.875" stroke-miterlimit="8" fill="none" fill-rule="evenodd" transform="matrix(-1 0 0 1 1583.27 1469.5)"/><path d="M1513.5 1401.5 1513.5 1421.27" stroke="#000000" stroke-width="6.875" stroke-miterlimit="8" fill="none" fill-rule="evenodd"/><text font-family="Aptos,Aptos_MSFontService,sans-serif" font-weight="400" font-size="37" transform="matrix(1 0 0 1 1492.07 1483)">16</text><path d="M1464.5 1290C1464.5 1262.11 1486.89 1239.5 1514.5 1239.5 1542.11 1239.5 1564.5 1262.11 1564.5 1290 1564.5 1317.89 1542.11 1340.5 1514.5 1340.5 1486.89 1340.5 1464.5 1317.89 1464.5 1290Z" stroke="#000000" stroke-width="6.875" stroke-miterlimit="8" fill="#7F7F7F" fill-rule="evenodd"/><text font-family="Calibri,Calibri_MSFontService,sans-serif" font-weight="400" font-size="41" transform="matrix(1 0 0 1 1504.62 1267)">+</text><text font-family="Calibri,Calibri_MSFontService,sans-serif" font-weight="400" font-size="55" transform="matrix(1 0 0 1 1539.59 1301)">-</text><path d="M0 0 19.7711 0.000360892" stroke="#000000" stroke-width="6.875" stroke-miterlimit="8" fill="none" fill-rule="evenodd" transform="matrix(-1 0 0 1 1584.27 1289.5)"/><path d="M1514.5 1221.5 1514.5 1241.27" stroke="#000000" stroke-width="6.875" stroke-miterlimit="8" fill="none" fill-rule="evenodd"/><text font-family="Aptos,Aptos_MSFontService,sans-serif" font-weight="400" font-size="37" transform="matrix(1 0 0 1 1493.37 1303)">17</text><path d="M1463.5 1110C1463.5 1082.11 1485.89 1059.5 1513.5 1059.5 1541.11 1059.5 1563.5 1082.11 1563.5 1110 1563.5 1137.89 1541.11 1160.5 1513.5 1160.5 1485.89 1160.5 1463.5 1137.89 1463.5 1110Z" stroke="#000000" stroke-width="6.875" stroke-miterlimit="8" fill="#7F7F7F" fill-rule="evenodd"/><text font-family="Calibri,Calibri_MSFontService,sans-serif" font-weight="400" font-size="41" transform="matrix(1 0 0 1 1504.1 1087)">+</text><text font-family="Calibri,Calibri_MSFontService,sans-serif" font-weight="400" font-size="55" transform="matrix(1 0 0 1 1539.07 1121)">-</text><path d="M0 0 19.7711 0.000360892" stroke="#000000" stroke-width="6.875" stroke-miterlimit="8" fill="none" fill-rule="evenodd" transform="matrix(-1 0 0 1 1583.27 1110.5)"/><path d="M1513.5 1042.5 1513.5 1062.27" stroke="#000000" stroke-width="6.875" stroke-miterlimit="8" fill="none" fill-rule="evenodd"/><text font-family="Aptos,Aptos_MSFontService,sans-serif" font-weight="400" font-size="37" transform="matrix(1 0 0 1 1492.85 1124)">18</text><path d="M1463.5 929C1463.5 901.11 1485.89 878.5 1513.5 878.5 1541.11 878.5 1563.5 901.11 1563.5 929 1563.5 956.89 1541.11 979.5 1513.5 979.5 1485.89 979.5 1463.5 956.89 1463.5 929Z" stroke="#000000" stroke-width="6.875" stroke-miterlimit="8" fill="#7F7F7F" fill-rule="evenodd"/><text font-family="Calibri,Calibri_MSFontService,sans-serif" font-weight="400" font-size="41" transform="matrix(1 0 0 1 1503.33 906)">+</text><text font-family="Calibri,Calibri_MSFontService,sans-serif" font-weight="400" font-size="55" transform="matrix(1 0 0 1 1538.29 940)">-</text><path d="M0 0 19.7711 0.000360892" stroke="#000000" stroke-width="6.875" stroke-miterlimit="8" fill="none" fill-rule="evenodd" transform="matrix(-1 0 0 1 1583.27 929.5)"/><path d="M1513.5 860.5 1513.5 880.271" stroke="#000000" stroke-width="6.875" stroke-miterlimit="8" fill="none" fill-rule="evenodd"/><text font-family="Aptos,Aptos_MSFontService,sans-serif" font-weight="400" font-size="37" transform="matrix(1 0 0 1 1492.07 942)">19</text><path d="M1463.5 749.5C1463.5 721.333 1485.89 698.5 1513.5 698.5 1541.11 698.5 1563.5 721.333 1563.5 749.5 1563.5 777.667 1541.11 800.5 1513.5 800.5 1485.89 800.5 1463.5 777.667 1463.5 749.5Z" stroke="#000000" stroke-width="6.875" stroke-miterlimit="8" fill="#7F7F7F" fill-rule="evenodd"/><text font-family="Calibri,Calibri_MSFontService,sans-serif" font-weight="400" font-size="41" transform="matrix(1 0 0 1 1503.45 727)">+</text><text font-family="Calibri,Calibri_MSFontService,sans-serif" font-weight="400" font-size="55" transform="matrix(1 0 0 1 1538.42 761)">-</text><path d="M0 0 19.7711 0.000360892" stroke="#000000" stroke-width="6.875" stroke-miterlimit="8" fill="none" fill-rule="evenodd" transform="matrix(-1 0 0 1 1583.27 749.5)"/><path d="M1513.5 681.5 1513.5 701.271" stroke="#000000" stroke-width="6.875" stroke-miterlimit="8" fill="none" fill-rule="evenodd"/><text font-family="Aptos,Aptos_MSFontService,sans-serif" font-weight="400" font-size="37" transform="matrix(1 0 0 1 1492.2 763)">20</text><path d="M1283.5 1470.5C1283.5 1442.33 1305.89 1419.5 1333.5 1419.5 1361.11 1419.5 1383.5 1442.33 1383.5 1470.5 1383.5 1498.67 1361.11 1521.5 1333.5 1521.5 1305.89 1521.5 1283.5 1498.67 1283.5 1470.5Z" stroke="#000000" stroke-width="6.875" stroke-miterlimit="8" fill="#7F7F7F" fill-rule="evenodd"/><text font-family="Calibri,Calibri_MSFontService,sans-serif" font-weight="400" font-size="41" transform="matrix(1 0 0 1 1323.45 1448)">+</text><text font-family="Calibri,Calibri_MSFontService,sans-serif" font-weight="400" font-size="55" transform="matrix(1 0 0 1 1358.41 1482)">-</text><path d="M0 0 19.7711 0.000360892" stroke="#000000" stroke-width="6.875" stroke-miterlimit="8" fill="none" fill-rule="evenodd" transform="matrix(-1 0 0 1 1403.27 1470.5)"/><path d="M1333.5 1402.5 1333.5 1422.27" stroke="#000000" stroke-width="6.875" stroke-miterlimit="8" fill="none" fill-rule="evenodd"/><text font-family="Aptos,Aptos_MSFontService,sans-serif" font-weight="400" font-size="37" transform="matrix(1 0 0 1 1312.21 1484)">21</text><path d="M1284.5 1111C1284.5 1083.11 1306.66 1060.5 1334 1060.5 1361.34 1060.5 1383.5 1083.11 1383.5 1111 1383.5 1138.89 1361.34 1161.5 1334 1161.5 1306.66 1161.5 1284.5 1138.89 1284.5 1111Z" stroke="#000000" stroke-width="6.875" stroke-miterlimit="8" fill="#7F7F7F" fill-rule="evenodd"/><text font-family="Calibri,Calibri_MSFontService,sans-serif" font-weight="400" font-size="41" transform="matrix(1 0 0 1 1324.22 1088)">+</text><text font-family="Calibri,Calibri_MSFontService,sans-serif" font-weight="400" font-size="55" transform="matrix(1 0 0 1 1359.18 1122)">-</text><path d="M0 0 19.7711 0.000360892" stroke="#000000" stroke-width="6.875" stroke-miterlimit="8" fill="none" fill-rule="evenodd" transform="matrix(-1 0 0 1 1403.27 1110.5)"/><path d="M1333.5 1042.5 1333.5 1062.27" stroke="#000000" stroke-width="6.875" stroke-miterlimit="8" fill="none" fill-rule="evenodd"/><text font-family="Aptos,Aptos_MSFontService,sans-serif" font-weight="400" font-size="37" transform="matrix(1 0 0 1 1312.98 1124)">22</text><path d="M1283.5 750.5C1283.5 722.334 1305.89 699.5 1333.5 699.5 1361.11 699.5 1383.5 722.334 1383.5 750.5 1383.5 778.667 1361.11 801.5 1333.5 801.5 1305.89 801.5 1283.5 778.667 1283.5 750.5Z" stroke="#000000" stroke-width="6.875" stroke-miterlimit="8" fill="#7F7F7F" fill-rule="evenodd"/><text font-family="Calibri,Calibri_MSFontService,sans-serif" font-weight="400" font-size="41" transform="matrix(1 0 0 1 1323.58 728)">+</text><text font-family="Calibri,Calibri_MSFontService,sans-serif" font-weight="400" font-size="55" transform="matrix(1 0 0 1 1358.54 762)">-</text><path d="M0 0 19.7711 0.000360892" stroke="#000000" stroke-width="6.875" stroke-miterlimit="8" fill="none" fill-rule="evenodd" transform="matrix(-1 0 0 1 1403.27 750.5)"/><path d="M1333.5 682.5 1333.5 702.271" stroke="#000000" stroke-width="6.875" stroke-miterlimit="8" fill="none" fill-rule="evenodd"/><text font-family="Aptos,Aptos_MSFontService,sans-serif" font-weight="400" font-size="37" transform="matrix(1 0 0 1 1312.33 764)">23</text><path d="M2097 1559C2097 1545.19 2108.19 1534 2122 1534 2135.81 1534 2147 1545.19 2147 1559 2147 1572.81 2135.81 1584 2122 1584 2108.19 1584 2097 1572.81 2097 1559Z" fill-rule="evenodd"/><path d="M1917 1557C1917 1543.19 1928.42 1532 1942.5 1532 1956.58 1532 1968 1543.19 1968 1557 1968 1570.81 1956.58 1582 1942.5 1582 1928.42 1582 1917 1570.81 1917 1557Z" fill-rule="evenodd"/><path d="M1735 1556.5C1735 1542.42 1746.19 1531 1760 1531 1773.81 1531 1785 1542.42 1785 1556.5 1785 1570.58 1773.81 1582 1760 1582 1746.19 1582 1735 1570.58 1735 1556.5Z" fill-rule="evenodd"/><path d="M1555 1556.5C1555 1542.42 1566.42 1531 1580.5 1531 1594.58 1531 1606 1542.42 1606 1556.5 1606 1570.58 1594.58 1582 1580.5 1582 1566.42 1582 1555 1570.58 1555 1556.5Z" fill-rule="evenodd"/><path d="M1374 1556C1374 1542.19 1385.42 1531 1399.5 1531 1413.58 1531 1425 1542.19 1425 1556 1425 1569.81 1413.58 1581 1399.5 1581 1385.42 1581 1374 1569.81 1374 1556Z" fill-rule="evenodd"/><path d="M1195 1404.5C1195 1390.42 1206.42 1379 1220.5 1379 1234.58 1379 1246 1390.42 1246 1404.5 1246 1418.58 1234.58 1430 1220.5 1430 1206.42 1430 1195 1418.58 1195 1404.5Z" fill-rule="evenodd"/><path d="M1194 1222C1194 1208.19 1205.19 1197 1219 1197 1232.81 1197 1244 1208.19 1244 1222 1244 1235.81 1232.81 1247 1219 1247 1205.19 1247 1194 1235.81 1194 1222Z" fill-rule="evenodd"/><path d="M1196 1042C1196 1028.19 1207.42 1017 1221.5 1017 1235.58 1017 1247 1028.19 1247 1042 1247 1055.81 1235.58 1067 1221.5 1067 1207.42 1067 1196 1055.81 1196 1042Z" fill-rule="evenodd"/><path d="M1197 858.5C1197 844.417 1208.42 833 1222.5 833 1236.58 833 1248 844.417 1248 858.5 1248 872.583 1236.58 884 1222.5 884 1208.42 884 1197 872.583 1197 858.5Z" fill-rule="evenodd"/><path d="M1197 680C1197 666.193 1208.19 655 1222 655 1235.81 655 1247 666.193 1247 680 1247 693.807 1235.81 705 1222 705 1208.19 705 1197 693.807 1197 680Z" fill-rule="evenodd"/><rect x="1813" y="681" width="131" height="898" fill="#00B0F0" fill-opacity="0.4"/><rect x="0" y="0" width="131" height="925" fill="#00B0F0" fill-opacity="0.4" transform="matrix(1.83697e-16 1 1 -1.83697e-16 1198 1400)"/></g></svg>