<svg width="958" height="935" xmlns="http://www.w3.org/2000/svg" xmlns:xlink="http://www.w3.org/1999/xlink" xml:space="preserve" overflow="hidden"><defs><clipPath id="clip0"><rect x="152" y="648" width="958" height="935"/></clipPath></defs><g clip-path="url(#clip0)" transform="translate(-152 -648)"><path d="M156.5 670.635C156.5 660.067 165.067 651.5 175.635 651.5L1087.36 651.5C1097.93 651.5 1106.5 660.067 1106.5 670.635L1106.5 1560.36C1106.5 1570.93 1097.93 1579.49 1087.36 1579.49L175.635 1579.49C165.067 1579.49 156.5 1570.93 156.5 1560.36Z" stroke="#000000" stroke-width="6.875" stroke-miterlimit="8" fill="#404040" fill-rule="evenodd"/><path d="M537.5 684.5 537.5 1554.97" stroke="#000000" stroke-width="6.875" stroke-miterlimit="8" fill="none" fill-rule="evenodd"/><path d="M180.5 1221.5 1076.96 1221.5" stroke="#000000" stroke-width="6.875" stroke-miterlimit="8" fill="none" fill-rule="evenodd"/><path d="M360.5 684.5 360.5 1554.97" stroke="#000000" stroke-width="6.875" stroke-miterlimit="8" fill="none" fill-rule="evenodd"/><path d="M720.5 683.5 720.5 1553.97" stroke="#000000" stroke-width="6.875" stroke-miterlimit="8" fill="none" fill-rule="evenodd"/><path d="M900.5 680.5 900.5 1550.97" stroke="#000000" stroke-width="6.875" stroke-miterlimit="8" fill="none" fill-rule="evenodd"/><path d="M1082.5 682.5 1082.5 1552.97" stroke="#000000" stroke-width="6.875" stroke-miterlimit="8" fill="none" fill-rule="evenodd"/><path d="M176.5 680.5 1085.95 680.5" stroke="#000000" stroke-width="6.875" stroke-miterlimit="8" fill="none" fill-rule="evenodd"/><path d="M182.5 858.5 1078.96 858.5" stroke="#000000" stroke-width="6.875" stroke-miterlimit="8" fill="none" fill-rule="evenodd"/><path d="M182.5 1039.5 1078.96 1039.5" stroke="#000000" stroke-width="6.875" stroke-miterlimit="8" fill="none" fill-rule="evenodd"/><path d="M176.5 1401.5 1085.95 1401.5" stroke="#000000" stroke-width="6.875" stroke-miterlimit="8" fill="none" fill-rule="evenodd"/><path d="M964.5 1466.5C964.5 1438.33 986.662 1415.5 1014 1415.5 1041.34 1415.5 1063.5 1438.33 1063.5 1466.5 1063.5 1494.67 1041.34 1517.5 1014 1517.5 986.662 1517.5 964.5 1494.67 964.5 1466.5Z" stroke="#000000" stroke-width="6.875" stroke-miterlimit="8" fill="#7F7F7F" fill-rule="evenodd"/><text font-family="Calibri,Calibri_MSFontService,sans-serif" font-weight="400" font-size="41" transform="matrix(1 0 0 1 1004.3 1443)">+</text><text font-family="Calibri,Calibri_MSFontService,sans-serif" font-weight="400" font-size="55" transform="matrix(1 0 0 1 1039.27 1478)">-</text><path d="M0 0 19.7711 0.000360892" stroke="#000000" stroke-width="6.875" stroke-miterlimit="8" fill="none" fill-rule="evenodd" transform="matrix(-1 0 0 1 1083.27 1466.5)"/><path d="M1014.5 1398.5 1014.5 1418.27" stroke="#000000" stroke-width="6.875" stroke-miterlimit="8" fill="none" fill-rule="evenodd"/><text font-family="Aptos,Aptos_MSFontService,sans-serif" font-weight="400" font-size="37" transform="matrix(1 0 0 1 1002.79 1480)">1</text><path d="M963.5 1286.5C963.5 1258.33 985.886 1235.5 1013.5 1235.5 1041.11 1235.5 1063.5 1258.33 1063.5 1286.5 1063.5 1314.67 1041.11 1337.5 1013.5 1337.5 985.886 1337.5 963.5 1314.67 963.5 1286.5Z" stroke="#000000" stroke-width="6.875" stroke-miterlimit="8" fill="#7F7F7F" fill-rule="evenodd"/><text font-family="Calibri,Calibri_MSFontService,sans-serif" font-weight="400" font-size="41" transform="matrix(1 0 0 1 1003.87 1264)">+</text><text font-family="Calibri,Calibri_MSFontService,sans-serif" font-weight="400" font-size="55" transform="matrix(1 0 0 1 1038.84 1298)">-</text><path d="M0 0 19.7711 0.000360892" stroke="#000000" stroke-width="6.875" stroke-miterlimit="8" fill="none" fill-rule="evenodd" transform="matrix(-1 0 0 1 1083.27 1286.5)"/><path d="M1013.5 1218.5 1013.5 1238.27" stroke="#000000" stroke-width="6.875" stroke-miterlimit="8" fill="none" fill-rule="evenodd"/><text font-family="Aptos,Aptos_MSFontService,sans-serif" font-weight="400" font-size="37" transform="matrix(1 0 0 1 1002.36 1300)">2</text><path d="M964.5 1106.5C964.5 1078.33 986.886 1055.5 1014.5 1055.5 1042.11 1055.5 1064.5 1078.33 1064.5 1106.5 1064.5 1134.67 1042.11 1157.5 1014.5 1157.5 986.886 1157.5 964.5 1134.67 964.5 1106.5Z" stroke="#000000" stroke-width="6.875" stroke-miterlimit="8" fill="#7F7F7F" fill-rule="evenodd"/><text font-family="Calibri,Calibri_MSFontService,sans-serif" font-weight="400" font-size="41" transform="matrix(1 0 0 1 1005.08 1084)">+</text><text font-family="Calibri,Calibri_MSFontService,sans-serif" font-weight="400" font-size="55" transform="matrix(1 0 0 1 1040.04 1118)">-</text><path d="M0 0 19.7711 0.000360892" stroke="#000000" stroke-width="6.875" stroke-miterlimit="8" fill="none" fill-rule="evenodd" transform="matrix(-1 0 0 1 1084.27 1106.5)"/><path d="M1014.5 1038.5 1014.5 1058.27" stroke="#000000" stroke-width="6.875" stroke-miterlimit="8" fill="none" fill-rule="evenodd"/><text font-family="Aptos,Aptos_MSFontService,sans-serif" font-weight="400" font-size="37" transform="matrix(1 0 0 1 1003.56 1120)">3</text><path d="M964.5 925.5C964.5 897.333 986.662 874.5 1014 874.5 1041.34 874.5 1063.5 897.333 1063.5 925.5 1063.5 953.667 1041.34 976.5 1014 976.5 986.662 976.5 964.5 953.667 964.5 925.5Z" stroke="#000000" stroke-width="6.875" stroke-miterlimit="8" fill="#7F7F7F" fill-rule="evenodd"/><text font-family="Calibri,Calibri_MSFontService,sans-serif" font-weight="400" font-size="41" transform="matrix(1 0 0 1 1004.3 903)">+</text><text font-family="Calibri,Calibri_MSFontService,sans-serif" font-weight="400" font-size="55" transform="matrix(1 0 0 1 1039.27 937)">-</text><path d="M0 0 19.7711 0.000360892" stroke="#000000" stroke-width="6.875" stroke-miterlimit="8" fill="none" fill-rule="evenodd" transform="matrix(-1 0 0 1 1083.27 925.5)"/><path d="M1014.5 857.5 1014.5 877.271" stroke="#000000" stroke-width="6.875" stroke-miterlimit="8" fill="none" fill-rule="evenodd"/><text font-family="Aptos,Aptos_MSFontService,sans-serif" font-weight="400" font-size="37" transform="matrix(1 0 0 1 1002.79 939)">4</text><path d="M964.5 746C964.5 718.109 986.886 695.5 1014.5 695.5 1042.11 695.5 1064.5 718.109 1064.5 746 1064.5 773.89 1042.11 796.5 1014.5 796.5 986.886 796.5 964.5 773.89 964.5 746Z" stroke="#000000" stroke-width="6.875" stroke-miterlimit="8" fill="#7F7F7F" fill-rule="evenodd"/><text font-family="Calibri,Calibri_MSFontService,sans-serif" font-weight="400" font-size="41" transform="matrix(1 0 0 1 1004.43 723)">+</text><text font-family="Calibri,Calibri_MSFontService,sans-serif" font-weight="400" font-size="55" transform="matrix(1 0 0 1 1039.39 757)">-</text><path d="M0 0 19.7711 0.000360892" stroke="#000000" stroke-width="6.875" stroke-miterlimit="8" fill="none" fill-rule="evenodd" transform="matrix(-1 0 0 1 1084.27 746.5)"/><path d="M1014.5 678.5 1014.5 698.271" stroke="#000000" stroke-width="6.875" stroke-miterlimit="8" fill="none" fill-rule="evenodd"/><text font-family="Aptos,Aptos_MSFontService,sans-serif" font-weight="400" font-size="37" transform="matrix(1 0 0 1 1002.91 760)">5</text><path d="M782.5 1466.5C782.5 1438.33 804.886 1415.5 832.5 1415.5 860.114 1415.5 882.5 1438.33 882.5 1466.5 882.5 1494.67 860.114 1517.5 832.5 1517.5 804.886 1517.5 782.5 1494.67 782.5 1466.5Z" stroke="#000000" stroke-width="6.875" stroke-miterlimit="8" fill="#7F7F7F" fill-rule="evenodd"/><text font-family="Calibri,Calibri_MSFontService,sans-serif" font-weight="400" font-size="41" transform="matrix(1 0 0 1 822.891 1444)">+</text><text font-family="Calibri,Calibri_MSFontService,sans-serif" font-weight="400" font-size="55" transform="matrix(1 0 0 1 857.858 1478)">-</text><path d="M0 0 19.7711 0.000360892" stroke="#000000" stroke-width="6.875" stroke-miterlimit="8" fill="none" fill-rule="evenodd" transform="matrix(-1 0 0 1 902.271 1466.5)"/><path d="M832.5 1398.5 832.5 1418.27" stroke="#000000" stroke-width="6.875" stroke-miterlimit="8" fill="none" fill-rule="evenodd"/><text font-family="Aptos,Aptos_MSFontService,sans-serif" font-weight="400" font-size="37" transform="matrix(1 0 0 1 821.378 1480)">6</text><path d="M784.5 1286.5C784.5 1258.33 806.662 1235.5 834 1235.5 861.338 1235.5 883.5 1258.33 883.5 1286.5 883.5 1314.67 861.338 1337.5 834 1337.5 806.662 1337.5 784.5 1314.67 784.5 1286.5Z" stroke="#000000" stroke-width="6.875" stroke-miterlimit="8" fill="#7F7F7F" fill-rule="evenodd"/><text font-family="Calibri,Calibri_MSFontService,sans-serif" font-weight="400" font-size="41" transform="matrix(1 0 0 1 824.182 1264)">+</text><text font-family="Calibri,Calibri_MSFontService,sans-serif" font-weight="400" font-size="55" transform="matrix(1 0 0 1 859.149 1298)">-</text><path d="M0 0 19.7711 0.000360892" stroke="#000000" stroke-width="6.875" stroke-miterlimit="8" fill="none" fill-rule="evenodd" transform="matrix(-1 0 0 1 903.271 1286.5)"/><path d="M833.5 1218.5 833.5 1238.27" stroke="#000000" stroke-width="6.875" stroke-miterlimit="8" fill="none" fill-rule="evenodd"/><text font-family="Aptos,Aptos_MSFontService,sans-serif" font-weight="400" font-size="37" transform="matrix(1 0 0 1 822.668 1300)">7</text><path d="M783.5 1107C783.5 1079.11 805.886 1056.5 833.5 1056.5 861.114 1056.5 883.5 1079.11 883.5 1107 883.5 1134.89 861.114 1157.5 833.5 1157.5 805.886 1157.5 783.5 1134.89 783.5 1107Z" stroke="#000000" stroke-width="6.875" stroke-miterlimit="8" fill="#7F7F7F" fill-rule="evenodd"/><text font-family="Calibri,Calibri_MSFontService,sans-serif" font-weight="400" font-size="41" transform="matrix(1 0 0 1 823.664 1084)">+</text><text font-family="Calibri,Calibri_MSFontService,sans-serif" font-weight="400" font-size="55" transform="matrix(1 0 0 1 858.631 1118)">-</text><path d="M0 0 19.7711 0.000360892" stroke="#000000" stroke-width="6.875" stroke-miterlimit="8" fill="none" fill-rule="evenodd" transform="matrix(-1 0 0 1 903.271 1106.5)"/><path d="M833.5 1038.5 833.5 1058.27" stroke="#000000" stroke-width="6.875" stroke-miterlimit="8" fill="none" fill-rule="evenodd"/><text font-family="Aptos,Aptos_MSFontService,sans-serif" font-weight="400" font-size="37" transform="matrix(1 0 0 1 822.151 1120)">8</text><path d="M782.5 925.5C782.5 897.333 804.886 874.5 832.5 874.5 860.114 874.5 882.5 897.333 882.5 925.5 882.5 953.667 860.114 976.5 832.5 976.5 804.886 976.5 782.5 953.667 782.5 925.5Z" stroke="#000000" stroke-width="6.875" stroke-miterlimit="8" fill="#7F7F7F" fill-rule="evenodd"/><text font-family="Calibri,Calibri_MSFontService,sans-serif" font-weight="400" font-size="41" transform="matrix(1 0 0 1 822.891 903)">+</text><text font-family="Calibri,Calibri_MSFontService,sans-serif" font-weight="400" font-size="55" transform="matrix(1 0 0 1 857.858 937)">-</text><path d="M0 0 19.7711 0.000360892" stroke="#000000" stroke-width="6.875" stroke-miterlimit="8" fill="none" fill-rule="evenodd" transform="matrix(-1 0 0 1 902.271 925.5)"/><path d="M832.5 857.5 832.5 877.271" stroke="#000000" stroke-width="6.875" stroke-miterlimit="8" fill="none" fill-rule="evenodd"/><text font-family="Aptos,Aptos_MSFontService,sans-serif" font-weight="400" font-size="37" transform="matrix(1 0 0 1 821.378 939)">9</text><path d="M782.5 746C782.5 718.109 804.886 695.5 832.5 695.5 860.114 695.5 882.5 718.109 882.5 746 882.5 773.89 860.114 796.5 832.5 796.5 804.886 796.5 782.5 773.89 782.5 746Z" stroke="#000000" stroke-width="6.875" stroke-miterlimit="8" fill="#7F7F7F" fill-rule="evenodd"/><text font-family="Calibri,Calibri_MSFontService,sans-serif" font-weight="400" font-size="41" transform="matrix(1 0 0 1 823.016 723)">+</text><text font-family="Calibri,Calibri_MSFontService,sans-serif" font-weight="400" font-size="55" transform="matrix(1 0 0 1 857.983 757)">-</text><path d="M0 0 19.7711 0.000360892" stroke="#000000" stroke-width="6.875" stroke-miterlimit="8" fill="none" fill-rule="evenodd" transform="matrix(-1 0 0 1 902.271 746.5)"/><path d="M832.5 678.5 832.5 698.271" stroke="#000000" stroke-width="6.875" stroke-miterlimit="8" fill="none" fill-rule="evenodd"/><text font-family="Aptos,Aptos_MSFontService,sans-serif" font-weight="400" font-size="37" transform="matrix(1 0 0 1 811.763 760)">10</text><path d="M602.5 1467C602.5 1439.11 624.886 1416.5 652.5 1416.5 680.114 1416.5 702.5 1439.11 702.5 1467 702.5 1494.89 680.114 1517.5 652.5 1517.5 624.886 1517.5 602.5 1494.89 602.5 1467Z" stroke="#000000" stroke-width="6.875" stroke-miterlimit="8" fill="#7F7F7F" fill-rule="evenodd"/><text font-family="Calibri,Calibri_MSFontService,sans-serif" font-weight="400" font-size="41" transform="matrix(1 0 0 1 643.174 1444)">+</text><text font-family="Calibri,Calibri_MSFontService,sans-serif" font-weight="400" font-size="55" transform="matrix(1 0 0 1 678.141 1478)">-</text><path d="M0 0 19.7711 0.000360892" stroke="#000000" stroke-width="6.875" stroke-miterlimit="8" fill="none" fill-rule="evenodd" transform="matrix(-1 0 0 1 722.271 1467.5)"/><path d="M652.5 1399.5 652.5 1419.27" stroke="#000000" stroke-width="6.875" stroke-miterlimit="8" fill="none" fill-rule="evenodd"/><text font-family="Aptos,Aptos_MSFontService,sans-serif" font-weight="400" font-size="37" transform="matrix(1 0 0 1 631.921 1478)">11</text><path d="M604.5 1287C604.5 1259.11 626.886 1236.5 654.5 1236.5 682.114 1236.5 704.5 1259.11 704.5 1287 704.5 1314.89 682.114 1337.5 654.5 1337.5 626.886 1337.5 604.5 1314.89 604.5 1287Z" stroke="#000000" stroke-width="6.875" stroke-miterlimit="8" fill="#7F7F7F" fill-rule="evenodd"/><text font-family="Calibri,Calibri_MSFontService,sans-serif" font-weight="400" font-size="41" transform="matrix(1 0 0 1 644.465 1264)">+</text><text font-family="Calibri,Calibri_MSFontService,sans-serif" font-weight="400" font-size="55" transform="matrix(1 0 0 1 679.432 1298)">-</text><path d="M0 0 19.7711 0.000360892" stroke="#000000" stroke-width="6.875" stroke-miterlimit="8" fill="none" fill-rule="evenodd" transform="matrix(-1 0 0 1 724.271 1287.5)"/><path d="M654.5 1219.5 654.5 1239.27" stroke="#000000" stroke-width="6.875" stroke-miterlimit="8" fill="none" fill-rule="evenodd"/><text font-family="Aptos,Aptos_MSFontService,sans-serif" font-weight="400" font-size="37" transform="matrix(1 0 0 1 633.211 1301)">12</text><path d="M603.5 1107.5C603.5 1079.33 625.886 1056.5 653.5 1056.5 681.114 1056.5 703.5 1079.33 703.5 1107.5 703.5 1135.67 681.114 1158.5 653.5 1158.5 625.886 1158.5 603.5 1135.67 603.5 1107.5Z" stroke="#000000" stroke-width="6.875" stroke-miterlimit="8" fill="#7F7F7F" fill-rule="evenodd"/><text font-family="Calibri,Calibri_MSFontService,sans-serif" font-weight="400" font-size="41" transform="matrix(1 0 0 1 643.947 1085)">+</text><text font-family="Calibri,Calibri_MSFontService,sans-serif" font-weight="400" font-size="55" transform="matrix(1 0 0 1 678.914 1119)">-</text><path d="M0 0 19.7711 0.000360892" stroke="#000000" stroke-width="6.875" stroke-miterlimit="8" fill="none" fill-rule="evenodd" transform="matrix(-1 0 0 1 723.271 1107.5)"/><path d="M653.5 1039.5 653.5 1059.27" stroke="#000000" stroke-width="6.875" stroke-miterlimit="8" fill="none" fill-rule="evenodd"/><text font-family="Aptos,Aptos_MSFontService,sans-serif" font-weight="400" font-size="37" transform="matrix(1 0 0 1 632.694 1121)">13</text><path d="M602.5 926.5C602.5 898.334 624.886 875.5 652.5 875.5 680.114 875.5 702.5 898.334 702.5 926.5 702.5 954.667 680.114 977.5 652.5 977.5 624.886 977.5 602.5 954.667 602.5 926.5Z" stroke="#000000" stroke-width="6.875" stroke-miterlimit="8" fill="#7F7F7F" fill-rule="evenodd"/><text font-family="Calibri,Calibri_MSFontService,sans-serif" font-weight="400" font-size="41" transform="matrix(1 0 0 1 643.174 903)">+</text><text font-family="Calibri,Calibri_MSFontService,sans-serif" font-weight="400" font-size="55" transform="matrix(1 0 0 1 678.141 938)">-</text><path d="M0 0 19.7711 0.000360892" stroke="#000000" stroke-width="6.875" stroke-miterlimit="8" fill="none" fill-rule="evenodd" transform="matrix(-1 0 0 1 722.271 926.5)"/><path d="M652.5 858.5 652.5 878.271" stroke="#000000" stroke-width="6.875" stroke-miterlimit="8" fill="none" fill-rule="evenodd"/><text font-family="Aptos,Aptos_MSFontService,sans-serif" font-weight="400" font-size="37" transform="matrix(1 0 0 1 631.921 940)">14</text><path d="M603.5 747C603.5 719.11 625.662 696.5 653 696.5 680.338 696.5 702.5 719.11 702.5 747 702.5 774.89 680.338 797.5 653 797.5 625.662 797.5 603.5 774.89 603.5 747Z" stroke="#000000" stroke-width="6.875" stroke-miterlimit="8" fill="#7F7F7F" fill-rule="evenodd"/><text font-family="Calibri,Calibri_MSFontService,sans-serif" font-weight="400" font-size="41" transform="matrix(1 0 0 1 643.299 724)">+</text><text font-family="Calibri,Calibri_MSFontService,sans-serif" font-weight="400" font-size="55" transform="matrix(1 0 0 1 678.266 758)">-</text><path d="M0 0 19.7711 0.000360892" stroke="#000000" stroke-width="6.875" stroke-miterlimit="8" fill="none" fill-rule="evenodd" transform="matrix(-1 0 0 1 722.271 746.5)"/><path d="M653.5 678.5 653.5 698.271" stroke="#000000" stroke-width="6.875" stroke-miterlimit="8" fill="none" fill-rule="evenodd"/><text font-family="Aptos,Aptos_MSFontService,sans-serif" font-weight="400" font-size="37" transform="matrix(1 0 0 1 632.045 760)">15</text><path d="M421.5 1466.5C421.5 1438.33 443.886 1415.5 471.5 1415.5 499.114 1415.5 521.5 1438.33 521.5 1466.5 521.5 1494.67 499.114 1517.5 471.5 1517.5 443.886 1517.5 421.5 1494.67 421.5 1466.5Z" stroke="#000000" stroke-width="6.875" stroke-miterlimit="8" fill="#7F7F7F" fill-rule="evenodd"/><text font-family="Calibri,Calibri_MSFontService,sans-serif" font-weight="400" font-size="41" transform="matrix(1 0 0 1 461.765 1444)">+</text><text font-family="Calibri,Calibri_MSFontService,sans-serif" font-weight="400" font-size="55" transform="matrix(1 0 0 1 496.732 1478)">-</text><path d="M0 0 19.7711 0.000360892" stroke="#000000" stroke-width="6.875" stroke-miterlimit="8" fill="none" fill-rule="evenodd" transform="matrix(-1 0 0 1 541.271 1466.5)"/><path d="M471.5 1398.5 471.5 1418.27" stroke="#000000" stroke-width="6.875" stroke-miterlimit="8" fill="none" fill-rule="evenodd"/><text font-family="Aptos,Aptos_MSFontService,sans-serif" font-weight="400" font-size="37" transform="matrix(1 0 0 1 450.512 1480)">16</text><path d="M422.5 1286.5C422.5 1258.33 444.886 1235.5 472.5 1235.5 500.114 1235.5 522.5 1258.33 522.5 1286.5 522.5 1314.67 500.114 1337.5 472.5 1337.5 444.886 1337.5 422.5 1314.67 422.5 1286.5Z" stroke="#000000" stroke-width="6.875" stroke-miterlimit="8" fill="#7F7F7F" fill-rule="evenodd"/><text font-family="Calibri,Calibri_MSFontService,sans-serif" font-weight="400" font-size="41" transform="matrix(1 0 0 1 463.056 1264)">+</text><text font-family="Calibri,Calibri_MSFontService,sans-serif" font-weight="400" font-size="55" transform="matrix(1 0 0 1 498.023 1298)">-</text><path d="M0 0 19.7711 0.000360892" stroke="#000000" stroke-width="6.875" stroke-miterlimit="8" fill="none" fill-rule="evenodd" transform="matrix(-1 0 0 1 542.271 1286.5)"/><path d="M472.5 1218.5 472.501 1238.27" stroke="#000000" stroke-width="6.875" stroke-miterlimit="8" fill="none" fill-rule="evenodd"/><text font-family="Aptos,Aptos_MSFontService,sans-serif" font-weight="400" font-size="37" transform="matrix(1 0 0 1 451.803 1300)">17</text><path d="M422.5 1107C422.5 1079.11 444.886 1056.5 472.5 1056.5 500.114 1056.5 522.5 1079.11 522.5 1107 522.5 1134.89 500.114 1157.5 472.5 1157.5 444.886 1157.5 422.5 1134.89 422.5 1107Z" stroke="#000000" stroke-width="6.875" stroke-miterlimit="8" fill="#7F7F7F" fill-rule="evenodd"/><text font-family="Calibri,Calibri_MSFontService,sans-serif" font-weight="400" font-size="41" transform="matrix(1 0 0 1 462.538 1084)">+</text><text font-family="Calibri,Calibri_MSFontService,sans-serif" font-weight="400" font-size="55" transform="matrix(1 0 0 1 497.505 1118)">-</text><path d="M0 0 19.7711 0.000360892" stroke="#000000" stroke-width="6.875" stroke-miterlimit="8" fill="none" fill-rule="evenodd" transform="matrix(-1 0 0 1 542.271 1106.5)"/><path d="M472.5 1038.5 472.501 1058.27" stroke="#000000" stroke-width="6.875" stroke-miterlimit="8" fill="none" fill-rule="evenodd"/><text font-family="Aptos,Aptos_MSFontService,sans-serif" font-weight="400" font-size="37" transform="matrix(1 0 0 1 451.285 1120)">18</text><path d="M421.5 925.5C421.5 897.333 443.886 874.5 471.5 874.5 499.114 874.5 521.5 897.333 521.5 925.5 521.5 953.667 499.114 976.5 471.5 976.5 443.886 976.5 421.5 953.667 421.5 925.5Z" stroke="#000000" stroke-width="6.875" stroke-miterlimit="8" fill="#7F7F7F" fill-rule="evenodd"/><text font-family="Calibri,Calibri_MSFontService,sans-serif" font-weight="400" font-size="41" transform="matrix(1 0 0 1 461.765 903)">+</text><text font-family="Calibri,Calibri_MSFontService,sans-serif" font-weight="400" font-size="55" transform="matrix(1 0 0 1 496.732 937)">-</text><path d="M0 0 19.7711 0.000360892" stroke="#000000" stroke-width="6.875" stroke-miterlimit="8" fill="none" fill-rule="evenodd" transform="matrix(-1 0 0 1 541.271 925.5)"/><path d="M471.5 857.5 471.5 877.271" stroke="#000000" stroke-width="6.875" stroke-miterlimit="8" fill="none" fill-rule="evenodd"/><text font-family="Aptos,Aptos_MSFontService,sans-serif" font-weight="400" font-size="37" transform="matrix(1 0 0 1 450.512 939)">19</text><path d="M421.5 746C421.5 718.109 443.886 695.5 471.5 695.5 499.114 695.5 521.5 718.109 521.5 746 521.5 773.89 499.114 796.5 471.5 796.5 443.886 796.5 421.5 773.89 421.5 746Z" stroke="#000000" stroke-width="6.875" stroke-miterlimit="8" fill="#7F7F7F" fill-rule="evenodd"/><text font-family="Calibri,Calibri_MSFontService,sans-serif" font-weight="400" font-size="41" transform="matrix(1 0 0 1 461.89 723)">+</text><text font-family="Calibri,Calibri_MSFontService,sans-serif" font-weight="400" font-size="55" transform="matrix(1 0 0 1 496.857 757)">-</text><path d="M0 0 19.7711 0.000360892" stroke="#000000" stroke-width="6.875" stroke-miterlimit="8" fill="none" fill-rule="evenodd" transform="matrix(-1 0 0 1 541.271 746.5)"/><path d="M471.5 678.5 471.5 698.271" stroke="#000000" stroke-width="6.875" stroke-miterlimit="8" fill="none" fill-rule="evenodd"/><text font-family="Aptos,Aptos_MSFontService,sans-serif" font-weight="400" font-size="37" transform="matrix(1 0 0 1 450.637 760)">20</text><path d="M241.5 1467C241.5 1439.11 263.886 1416.5 291.5 1416.5 319.114 1416.5 341.5 1439.11 341.5 1467 341.5 1494.89 319.114 1517.5 291.5 1517.5 263.886 1517.5 241.5 1494.89 241.5 1467Z" stroke="#000000" stroke-width="6.875" stroke-miterlimit="8" fill="#7F7F7F" fill-rule="evenodd"/><text font-family="Calibri,Calibri_MSFontService,sans-serif" font-weight="400" font-size="41" transform="matrix(1 0 0 1 281.885 1444)">+</text><text font-family="Calibri,Calibri_MSFontService,sans-serif" font-weight="400" font-size="55" transform="matrix(1 0 0 1 316.848 1478)">-</text><path d="M0 0 19.7711 0.000360892" stroke="#000000" stroke-width="6.875" stroke-miterlimit="8" fill="none" fill-rule="evenodd" transform="matrix(-1 0 0 1 361.271 1467.5)"/><path d="M291.5 1399.5 291.5 1419.27" stroke="#000000" stroke-width="6.875" stroke-miterlimit="8" fill="none" fill-rule="evenodd"/><text font-family="Aptos,Aptos_MSFontService,sans-serif" font-weight="400" font-size="37" transform="matrix(1 0 0 1 270.643 1481)">21</text><path d="M242.5 1107.5C242.5 1079.33 264.886 1056.5 292.5 1056.5 320.114 1056.5 342.5 1079.33 342.5 1107.5 342.5 1135.67 320.114 1158.5 292.5 1158.5 264.886 1158.5 242.5 1135.67 242.5 1107.5Z" stroke="#000000" stroke-width="6.875" stroke-miterlimit="8" fill="#7F7F7F" fill-rule="evenodd"/><text font-family="Calibri,Calibri_MSFontService,sans-serif" font-weight="400" font-size="41" transform="matrix(1 0 0 1 282.658 1085)">+</text><text font-family="Calibri,Calibri_MSFontService,sans-serif" font-weight="400" font-size="55" transform="matrix(1 0 0 1 317.621 1119)">-</text><path d="M0 0 19.7711 0.000360892" stroke="#000000" stroke-width="6.875" stroke-miterlimit="8" fill="none" fill-rule="evenodd" transform="matrix(-1 0 0 1 362.271 1107.5)"/><path d="M292.5 1039.5 292.5 1059.27" stroke="#000000" stroke-width="6.875" stroke-miterlimit="8" fill="none" fill-rule="evenodd"/><text font-family="Aptos,Aptos_MSFontService,sans-serif" font-weight="400" font-size="37" transform="matrix(1 0 0 1 271.416 1121)">22</text><path d="M241.5 747C241.5 719.11 263.886 696.5 291.5 696.5 319.114 696.5 341.5 719.11 341.5 747 341.5 774.89 319.114 797.5 291.5 797.5 263.886 797.5 241.5 774.89 241.5 747Z" stroke="#000000" stroke-width="6.875" stroke-miterlimit="8" fill="#7F7F7F" fill-rule="evenodd"/><text font-family="Calibri,Calibri_MSFontService,sans-serif" font-weight="400" font-size="41" transform="matrix(1 0 0 1 282.015 724)">+</text><text font-family="Calibri,Calibri_MSFontService,sans-serif" font-weight="400" font-size="55" transform="matrix(1 0 0 1 316.98 758)">-</text><path d="M0 0 19.7711 0.000360892" stroke="#000000" stroke-width="6.875" stroke-miterlimit="8" fill="none" fill-rule="evenodd" transform="matrix(-1 0 0 1 361.271 746.5)"/><path d="M291.5 678.5 291.5 698.271" stroke="#000000" stroke-width="6.875" stroke-miterlimit="8" fill="none" fill-rule="evenodd"/><text font-family="Aptos,Aptos_MSFontService,sans-serif" font-weight="400" font-size="37" transform="matrix(1 0 0 1 270.768 760)">23</text><path d="M1055 1555.5C1055 1541.42 1066.42 1530 1080.5 1530 1094.58 1530 1106 1541.42 1106 1555.5 1106 1569.58 1094.58 1581 1080.5 1581 1066.42 1581 1055 1569.58 1055 1555.5Z" fill-rule="evenodd"/><path d="M876 1553.5C876 1539.42 887.193 1528 901 1528 914.807 1528 926 1539.42 926 1553.5 926 1567.58 914.807 1579 901 1579 887.193 1579 876 1567.58 876 1553.5Z" fill-rule="evenodd"/><path d="M693 1553C693 1539.19 704.417 1528 718.5 1528 732.583 1528 744 1539.19 744 1553 744 1566.81 732.583 1578 718.5 1578 704.417 1578 693 1566.81 693 1553Z" fill-rule="evenodd"/><path d="M513 1553C513 1539.19 524.417 1528 538.5 1528 552.583 1528 564 1539.19 564 1553 564 1566.81 552.583 1578 538.5 1578 524.417 1578 513 1566.81 513 1553Z" fill-rule="evenodd"/><path d="M332 1552.5C332 1538.42 343.417 1527 357.5 1527 371.583 1527 383 1538.42 383 1552.5 383 1566.58 371.583 1578 357.5 1578 343.417 1578 332 1566.58 332 1552.5Z" fill-rule="evenodd"/><path d="M154 1400.5C154 1386.42 165.193 1375 179 1375 192.807 1375 204 1386.42 204 1400.5 204 1414.58 192.807 1426 179 1426 165.193 1426 154 1414.58 154 1400.5Z" fill-rule="evenodd"/><path d="M152 1218.5C152 1204.42 163.417 1193 177.5 1193 191.583 1193 203 1204.42 203 1218.5 203 1232.58 191.583 1244 177.5 1244 163.417 1244 152 1232.58 152 1218.5Z" fill-rule="evenodd"/><path d="M154 1038.5C154 1024.42 165.417 1013 179.5 1013 193.583 1013 205 1024.42 205 1038.5 205 1052.58 193.583 1064 179.5 1064 165.417 1064 154 1052.58 154 1038.5Z" fill-rule="evenodd"/><path d="M156 855.5C156 841.417 167.193 830 181 830 194.807 830 206 841.417 206 855.5 206 869.583 194.807 881 181 881 167.193 881 156 869.583 156 855.5Z" fill-rule="evenodd"/><path d="M155 676.5C155 662.417 166.417 651 180.5 651 194.583 651 206 662.417 206 676.5 206 690.583 194.583 702 180.5 702 166.417 702 155 690.583 155 676.5Z" fill-rule="evenodd"/></g></svg>