<svg width="958" height="937" xmlns="http://www.w3.org/2000/svg" xmlns:xlink="http://www.w3.org/1999/xlink" xml:space="preserve" overflow="hidden"><g transform="translate(-3325 -654)"><path d="M3328.5 676.657C3328.5 666.077 3337.08 657.5 3347.66 657.5L4260.34 657.5C4270.92 657.5 4279.5 666.077 4279.5 676.657L4279.5 1567.4C4279.5 1577.98 4270.92 1586.55 4260.34 1586.55L3347.66 1586.55C3337.08 1586.55 3328.5 1577.98 3328.5 1567.4Z" stroke="#000000" stroke-width="6.875" stroke-miterlimit="8" fill="#404040" fill-rule="evenodd"/><path d="M3710.5 690.5 3710.5 1560.97" stroke="#000000" stroke-width="6.875" stroke-miterlimit="8" fill="none" fill-rule="evenodd"/><path d="M3353.5 1227.5 4249.96 1227.5" stroke="#000000" stroke-width="6.875" stroke-miterlimit="8" fill="none" fill-rule="evenodd"/><path d="M3533.5 690.5 3533.5 1560.97" stroke="#000000" stroke-width="6.875" stroke-miterlimit="8" fill="none" fill-rule="evenodd"/><path d="M3893.5 690.5 3893.5 1560.97" stroke="#000000" stroke-width="6.875" stroke-miterlimit="8" fill="none" fill-rule="evenodd"/><path d="M4073.5 686.5 4073.5 1556.97" stroke="#000000" stroke-width="6.875" stroke-miterlimit="8" fill="none" fill-rule="evenodd"/><path d="M4254.5 688.5 4254.5 1558.97" stroke="#000000" stroke-width="6.875" stroke-miterlimit="8" fill="none" fill-rule="evenodd"/><path d="M3348.5 686.5 4257.95 686.5" stroke="#000000" stroke-width="6.875" stroke-miterlimit="8" fill="none" fill-rule="evenodd"/><path d="M3355.5 865.5 4251.96 865.5" stroke="#000000" stroke-width="6.875" stroke-miterlimit="8" fill="none" fill-rule="evenodd"/><path d="M3355.5 1046.5 4251.96 1046.5" stroke="#000000" stroke-width="6.875" stroke-miterlimit="8" fill="none" fill-rule="evenodd"/><path d="M3349.5 1408.5 4258.95 1408.5" stroke="#000000" stroke-width="6.875" stroke-miterlimit="8" fill="none" fill-rule="evenodd"/><path d="M4136.5 1473C4136.5 1445.11 4158.89 1422.5 4186.5 1422.5 4214.11 1422.5 4236.5 1445.11 4236.5 1473 4236.5 1500.89 4214.11 1523.5 4186.5 1523.5 4158.89 1523.5 4136.5 1500.89 4136.5 1473Z" stroke="#000000" stroke-width="6.875" stroke-miterlimit="8" fill="#7F7F7F" fill-rule="evenodd"/><text font-family="Calibri,Calibri_MSFontService,sans-serif" font-weight="400" font-size="41" transform="matrix(1 0 0 1 4177.1 1450)">+</text><text font-family="Calibri,Calibri_MSFontService,sans-serif" font-weight="400" font-size="55" transform="matrix(1 0 0 1 4212.06 1484)">-</text><path d="M0 0 19.7711 0.000360892" stroke="#000000" stroke-width="6.875" stroke-miterlimit="8" fill="none" fill-rule="evenodd" transform="matrix(-1 0 0 1 4256.27 1472.5)"/><path d="M4186.5 1404.5 4186.5 1424.27" stroke="#000000" stroke-width="6.875" stroke-miterlimit="8" fill="none" fill-rule="evenodd"/><text font-family="Aptos,Aptos_MSFontService,sans-serif" font-weight="400" font-size="37" transform="matrix(1 0 0 1 4175.58 1486)">1</text><path d="M4136.5 1293C4136.5 1265.11 4158.89 1242.5 4186.5 1242.5 4214.11 1242.5 4236.5 1265.11 4236.5 1293 4236.5 1320.89 4214.11 1343.5 4186.5 1343.5 4158.89 1343.5 4136.5 1320.89 4136.5 1293Z" stroke="#000000" stroke-width="6.875" stroke-miterlimit="8" fill="#7F7F7F" fill-rule="evenodd"/><text font-family="Calibri,Calibri_MSFontService,sans-serif" font-weight="400" font-size="41" transform="matrix(1 0 0 1 4176.67 1270)">+</text><text font-family="Calibri,Calibri_MSFontService,sans-serif" font-weight="400" font-size="55" transform="matrix(1 0 0 1 4211.63 1304)">-</text><path d="M0 0 19.7711 0.000360892" stroke="#000000" stroke-width="6.875" stroke-miterlimit="8" fill="none" fill-rule="evenodd" transform="matrix(-1 0 0 1 4256.27 1292.5)"/><path d="M4186.5 1224.5 4186.5 1244.27" stroke="#000000" stroke-width="6.875" stroke-miterlimit="8" fill="none" fill-rule="evenodd"/><text font-family="Aptos,Aptos_MSFontService,sans-serif" font-weight="400" font-size="37" transform="matrix(1 0 0 1 4175.15 1306)">2</text><path d="M4137.5 1113C4137.5 1085.11 4159.89 1062.5 4187.5 1062.5 4215.11 1062.5 4237.5 1085.11 4237.5 1113 4237.5 1140.89 4215.11 1163.5 4187.5 1163.5 4159.89 1163.5 4137.5 1140.89 4137.5 1113Z" stroke="#000000" stroke-width="6.875" stroke-miterlimit="8" fill="#7F7F7F" fill-rule="evenodd"/><text font-family="Calibri,Calibri_MSFontService,sans-serif" font-weight="400" font-size="41" transform="matrix(1 0 0 1 4177.87 1090)">+</text><text font-family="Calibri,Calibri_MSFontService,sans-serif" font-weight="400" font-size="55" transform="matrix(1 0 0 1 4212.84 1124)">-</text><path d="M0 0 19.7711 0.000360892" stroke="#000000" stroke-width="6.875" stroke-miterlimit="8" fill="none" fill-rule="evenodd" transform="matrix(-1 0 0 1 4257.27 1113.5)"/><path d="M4187.5 1045.5 4187.5 1065.27" stroke="#000000" stroke-width="6.875" stroke-miterlimit="8" fill="none" fill-rule="evenodd"/><text font-family="Aptos,Aptos_MSFontService,sans-serif" font-weight="400" font-size="37" transform="matrix(1 0 0 1 4176.35 1126)">3</text><path d="M4136.5 932C4136.5 904.109 4158.89 881.5 4186.5 881.5 4214.11 881.5 4236.5 904.109 4236.5 932 4236.5 959.89 4214.11 982.5 4186.5 982.5 4158.89 982.5 4136.5 959.89 4136.5 932Z" stroke="#000000" stroke-width="6.875" stroke-miterlimit="8" fill="#7F7F7F" fill-rule="evenodd"/><text font-family="Calibri,Calibri_MSFontService,sans-serif" font-weight="400" font-size="41" transform="matrix(1 0 0 1 4177.1 909)">+</text><text font-family="Calibri,Calibri_MSFontService,sans-serif" font-weight="400" font-size="55" transform="matrix(1 0 0 1 4212.06 943)">-</text><path d="M0 0 19.7711 0.000360892" stroke="#000000" stroke-width="6.875" stroke-miterlimit="8" fill="none" fill-rule="evenodd" transform="matrix(-1 0 0 1 4256.27 931.5)"/><path d="M4186.5 863.5 4186.5 883.271" stroke="#000000" stroke-width="6.875" stroke-miterlimit="8" fill="none" fill-rule="evenodd"/><text font-family="Aptos,Aptos_MSFontService,sans-serif" font-weight="400" font-size="37" transform="matrix(1 0 0 1 4175.58 945)">4</text><path d="M4137.5 752.5C4137.5 724.334 4159.66 701.5 4187 701.5 4214.34 701.5 4236.5 724.334 4236.5 752.5 4236.5 780.666 4214.34 803.5 4187 803.5 4159.66 803.5 4137.5 780.666 4137.5 752.5Z" stroke="#000000" stroke-width="6.875" stroke-miterlimit="8" fill="#7F7F7F" fill-rule="evenodd"/><text font-family="Calibri,Calibri_MSFontService,sans-serif" font-weight="400" font-size="41" transform="matrix(1 0 0 1 4177.22 730)">+</text><text font-family="Calibri,Calibri_MSFontService,sans-serif" font-weight="400" font-size="55" transform="matrix(1 0 0 1 4212.19 764)">-</text><path d="M0 0 19.7711 0.000360892" stroke="#000000" stroke-width="6.875" stroke-miterlimit="8" fill="none" fill-rule="evenodd" transform="matrix(-1 0 0 1 4256.27 752.5)"/><path d="M4186.5 684.5 4186.5 704.271" stroke="#000000" stroke-width="6.875" stroke-miterlimit="8" fill="none" fill-rule="evenodd"/><text font-family="Aptos,Aptos_MSFontService,sans-serif" font-weight="400" font-size="37" transform="matrix(1 0 0 1 4175.71 766)">5</text><path d="M3955.5 1473C3955.5 1445.11 3977.89 1422.5 4005.5 1422.5 4033.11 1422.5 4055.5 1445.11 4055.5 1473 4055.5 1500.89 4033.11 1523.5 4005.5 1523.5 3977.89 1523.5 3955.5 1500.89 3955.5 1473Z" stroke="#000000" stroke-width="6.875" stroke-miterlimit="8" fill="#7F7F7F" fill-rule="evenodd"/><text font-family="Calibri,Calibri_MSFontService,sans-serif" font-weight="400" font-size="41" transform="matrix(1 0 0 1 3995.68 1450)">+</text><text font-family="Calibri,Calibri_MSFontService,sans-serif" font-weight="400" font-size="55" transform="matrix(1 0 0 1 4030.65 1484)">-</text><path d="M0 0 19.7711 0.000360892" stroke="#000000" stroke-width="6.875" stroke-miterlimit="8" fill="none" fill-rule="evenodd" transform="matrix(-1 0 0 1 4075.27 1472.5)"/><path d="M4005.5 1404.5 4005.5 1424.27" stroke="#000000" stroke-width="6.875" stroke-miterlimit="8" fill="none" fill-rule="evenodd"/><text font-family="Aptos,Aptos_MSFontService,sans-serif" font-weight="400" font-size="37" transform="matrix(1 0 0 1 3994.17 1486)">6</text><path d="M3956.5 1293C3956.5 1265.11 3978.89 1242.5 4006.5 1242.5 4034.11 1242.5 4056.5 1265.11 4056.5 1293 4056.5 1320.89 4034.11 1343.5 4006.5 1343.5 3978.89 1343.5 3956.5 1320.89 3956.5 1293Z" stroke="#000000" stroke-width="6.875" stroke-miterlimit="8" fill="#7F7F7F" fill-rule="evenodd"/><text font-family="Calibri,Calibri_MSFontService,sans-serif" font-weight="400" font-size="41" transform="matrix(1 0 0 1 3996.98 1270)">+</text><text font-family="Calibri,Calibri_MSFontService,sans-serif" font-weight="400" font-size="55" transform="matrix(1 0 0 1 4031.94 1304)">-</text><path d="M0 0 19.7711 0.000360892" stroke="#000000" stroke-width="6.875" stroke-miterlimit="8" fill="none" fill-rule="evenodd" transform="matrix(-1 0 0 1 4076.27 1292.5)"/><path d="M4006.5 1224.5 4006.5 1244.27" stroke="#000000" stroke-width="6.875" stroke-miterlimit="8" fill="none" fill-rule="evenodd"/><text font-family="Aptos,Aptos_MSFontService,sans-serif" font-weight="400" font-size="37" transform="matrix(1 0 0 1 3995.46 1306)">7</text><path d="M3956.5 1113C3956.5 1085.11 3978.89 1062.5 4006.5 1062.5 4034.11 1062.5 4056.5 1085.11 4056.5 1113 4056.5 1140.89 4034.11 1163.5 4006.5 1163.5 3978.89 1163.5 3956.5 1140.89 3956.5 1113Z" stroke="#000000" stroke-width="6.875" stroke-miterlimit="8" fill="#7F7F7F" fill-rule="evenodd"/><text font-family="Calibri,Calibri_MSFontService,sans-serif" font-weight="400" font-size="41" transform="matrix(1 0 0 1 3996.46 1090)">+</text><text font-family="Calibri,Calibri_MSFontService,sans-serif" font-weight="400" font-size="55" transform="matrix(1 0 0 1 4031.42 1124)">-</text><path d="M0 0 19.7711 0.000360892" stroke="#000000" stroke-width="6.875" stroke-miterlimit="8" fill="none" fill-rule="evenodd" transform="matrix(-1 0 0 1 4076.27 1113.5)"/><path d="M4006.5 1045.5 4006.5 1065.27" stroke="#000000" stroke-width="6.875" stroke-miterlimit="8" fill="none" fill-rule="evenodd"/><text font-family="Aptos,Aptos_MSFontService,sans-serif" font-weight="400" font-size="37" transform="matrix(1 0 0 1 3994.94 1127)">8</text><path d="M3955.5 932C3955.5 904.109 3977.89 881.5 4005.5 881.5 4033.11 881.5 4055.5 904.109 4055.5 932 4055.5 959.89 4033.11 982.5 4005.5 982.5 3977.89 982.5 3955.5 959.89 3955.5 932Z" stroke="#000000" stroke-width="6.875" stroke-miterlimit="8" fill="#7F7F7F" fill-rule="evenodd"/><text font-family="Calibri,Calibri_MSFontService,sans-serif" font-weight="400" font-size="41" transform="matrix(1 0 0 1 3995.68 909)">+</text><text font-family="Calibri,Calibri_MSFontService,sans-serif" font-weight="400" font-size="55" transform="matrix(1 0 0 1 4030.65 943)">-</text><path d="M0 0 19.7711 0.000360892" stroke="#000000" stroke-width="6.875" stroke-miterlimit="8" fill="none" fill-rule="evenodd" transform="matrix(-1 0 0 1 4075.27 932.5)"/><path d="M4005.5 863.5 4005.5 883.271" stroke="#000000" stroke-width="6.875" stroke-miterlimit="8" fill="none" fill-rule="evenodd"/><text font-family="Aptos,Aptos_MSFontService,sans-serif" font-weight="400" font-size="37" transform="matrix(1 0 0 1 3994.17 945)">9</text><path d="M3955.5 752.5C3955.5 724.334 3977.89 701.5 4005.5 701.5 4033.11 701.5 4055.5 724.334 4055.5 752.5 4055.5 780.666 4033.11 803.5 4005.5 803.5 3977.89 803.5 3955.5 780.666 3955.5 752.5Z" stroke="#000000" stroke-width="6.875" stroke-miterlimit="8" fill="#7F7F7F" fill-rule="evenodd"/><text font-family="Calibri,Calibri_MSFontService,sans-serif" font-weight="400" font-size="41" transform="matrix(1 0 0 1 3995.81 730)">+</text><text font-family="Calibri,Calibri_MSFontService,sans-serif" font-weight="400" font-size="55" transform="matrix(1 0 0 1 4030.78 764)">-</text><path d="M0 0 19.7711 0.000360892" stroke="#000000" stroke-width="6.875" stroke-miterlimit="8" fill="none" fill-rule="evenodd" transform="matrix(-1 0 0 1 4075.27 752.5)"/><path d="M4005.5 684.5 4005.5 704.271" stroke="#000000" stroke-width="6.875" stroke-miterlimit="8" fill="none" fill-rule="evenodd"/><text font-family="Aptos,Aptos_MSFontService,sans-serif" font-weight="400" font-size="37" transform="matrix(1 0 0 1 3984.56 766)">10</text><path d="M3775.5 1473.5C3775.5 1445.33 3797.89 1422.5 3825.5 1422.5 3853.11 1422.5 3875.5 1445.33 3875.5 1473.5 3875.5 1501.67 3853.11 1524.5 3825.5 1524.5 3797.89 1524.5 3775.5 1501.67 3775.5 1473.5Z" stroke="#000000" stroke-width="6.875" stroke-miterlimit="8" fill="#7F7F7F" fill-rule="evenodd"/><text font-family="Calibri,Calibri_MSFontService,sans-serif" font-weight="400" font-size="41" transform="matrix(1 0 0 1 3815.97 1451)">+</text><text font-family="Calibri,Calibri_MSFontService,sans-serif" font-weight="400" font-size="55" transform="matrix(1 0 0 1 3850.93 1485)">-</text><path d="M0 0 19.7711 0.000360892" stroke="#000000" stroke-width="6.875" stroke-miterlimit="8" fill="none" fill-rule="evenodd" transform="matrix(-1 0 0 1 3895.27 1473.5)"/><path d="M3825.5 1405.5 3825.5 1425.27" stroke="#000000" stroke-width="6.875" stroke-miterlimit="8" fill="none" fill-rule="evenodd"/><text font-family="Aptos,Aptos_MSFontService,sans-serif" font-weight="400" font-size="37" transform="matrix(1 0 0 1 3804.71 1484)">11</text><path d="M3777.5 1293.5C3777.5 1265.33 3799.66 1242.5 3827 1242.5 3854.34 1242.5 3876.5 1265.33 3876.5 1293.5 3876.5 1321.67 3854.34 1344.5 3827 1344.5 3799.66 1344.5 3777.5 1321.67 3777.5 1293.5Z" stroke="#000000" stroke-width="6.875" stroke-miterlimit="8" fill="#7F7F7F" fill-rule="evenodd"/><text font-family="Calibri,Calibri_MSFontService,sans-serif" font-weight="400" font-size="41" transform="matrix(1 0 0 1 3817.26 1271)">+</text><text font-family="Calibri,Calibri_MSFontService,sans-serif" font-weight="400" font-size="55" transform="matrix(1 0 0 1 3852.22 1305)">-</text><path d="M0 0 19.7711 0.000360892" stroke="#000000" stroke-width="6.875" stroke-miterlimit="8" fill="none" fill-rule="evenodd" transform="matrix(-1 0 0 1 3896.27 1293.5)"/><path d="M3827.5 1225.5 3827.5 1245.27" stroke="#000000" stroke-width="6.875" stroke-miterlimit="8" fill="none" fill-rule="evenodd"/><text font-family="Aptos,Aptos_MSFontService,sans-serif" font-weight="400" font-size="37" transform="matrix(1 0 0 1 3806 1307)">12</text><path d="M3776.5 1114C3776.5 1086.11 3798.89 1063.5 3826.5 1063.5 3854.11 1063.5 3876.5 1086.11 3876.5 1114 3876.5 1141.89 3854.11 1164.5 3826.5 1164.5 3798.89 1164.5 3776.5 1141.89 3776.5 1114Z" stroke="#000000" stroke-width="6.875" stroke-miterlimit="8" fill="#7F7F7F" fill-rule="evenodd"/><text font-family="Calibri,Calibri_MSFontService,sans-serif" font-weight="400" font-size="41" transform="matrix(1 0 0 1 3816.74 1091)">+</text><text font-family="Calibri,Calibri_MSFontService,sans-serif" font-weight="400" font-size="55" transform="matrix(1 0 0 1 3851.71 1125)">-</text><path d="M0 0 19.7711 0.000360892" stroke="#000000" stroke-width="6.875" stroke-miterlimit="8" fill="none" fill-rule="evenodd" transform="matrix(-1 0 0 1 3896.27 1113.5)"/><path d="M3826.5 1045.5 3826.5 1065.27" stroke="#000000" stroke-width="6.875" stroke-miterlimit="8" fill="none" fill-rule="evenodd"/><text font-family="Aptos,Aptos_MSFontService,sans-serif" font-weight="400" font-size="37" transform="matrix(1 0 0 1 3805.49 1127)">13</text><path d="M3775.5 933C3775.5 905.109 3797.89 882.5 3825.5 882.5 3853.11 882.5 3875.5 905.109 3875.5 933 3875.5 960.89 3853.11 983.5 3825.5 983.5 3797.89 983.5 3775.5 960.89 3775.5 933Z" stroke="#000000" stroke-width="6.875" stroke-miterlimit="8" fill="#7F7F7F" fill-rule="evenodd"/><text font-family="Calibri,Calibri_MSFontService,sans-serif" font-weight="400" font-size="41" transform="matrix(1 0 0 1 3815.97 910)">+</text><text font-family="Calibri,Calibri_MSFontService,sans-serif" font-weight="400" font-size="55" transform="matrix(1 0 0 1 3850.93 944)">-</text><path d="M0 0 19.7711 0.000360892" stroke="#000000" stroke-width="6.875" stroke-miterlimit="8" fill="none" fill-rule="evenodd" transform="matrix(-1 0 0 1 3895.27 932.5)"/><path d="M3825.5 864.5 3825.5 884.271" stroke="#000000" stroke-width="6.875" stroke-miterlimit="8" fill="none" fill-rule="evenodd"/><text font-family="Aptos,Aptos_MSFontService,sans-serif" font-weight="400" font-size="37" transform="matrix(1 0 0 1 3804.71 946)">14</text><path d="M3775.5 753.5C3775.5 725.334 3797.89 702.5 3825.5 702.5 3853.11 702.5 3875.5 725.334 3875.5 753.5 3875.5 781.666 3853.11 804.5 3825.5 804.5 3797.89 804.5 3775.5 781.666 3775.5 753.5Z" stroke="#000000" stroke-width="6.875" stroke-miterlimit="8" fill="#7F7F7F" fill-rule="evenodd"/><text font-family="Calibri,Calibri_MSFontService,sans-serif" font-weight="400" font-size="41" transform="matrix(1 0 0 1 3816.09 730)">+</text><text font-family="Calibri,Calibri_MSFontService,sans-serif" font-weight="400" font-size="55" transform="matrix(1 0 0 1 3851.06 765)">-</text><path d="M0 0 19.7711 0.000360892" stroke="#000000" stroke-width="6.875" stroke-miterlimit="8" fill="none" fill-rule="evenodd" transform="matrix(-1 0 0 1 3895.27 753.5)"/><path d="M3825.5 685.5 3825.5 705.271" stroke="#000000" stroke-width="6.875" stroke-miterlimit="8" fill="none" fill-rule="evenodd"/><text font-family="Aptos,Aptos_MSFontService,sans-serif" font-weight="400" font-size="37" transform="matrix(1 0 0 1 3804.84 767)">15</text><path d="M3594.5 1473C3594.5 1445.11 3616.89 1422.5 3644.5 1422.5 3672.11 1422.5 3694.5 1445.11 3694.5 1473 3694.5 1500.89 3672.11 1523.5 3644.5 1523.5 3616.89 1523.5 3594.5 1500.89 3594.5 1473Z" stroke="#000000" stroke-width="6.875" stroke-miterlimit="8" fill="#FFC000" fill-rule="evenodd"/><text font-family="Calibri,Calibri_MSFontService,sans-serif" font-weight="400" font-size="41" transform="matrix(1 0 0 1 3634.56 1450)">+</text><text font-family="Calibri,Calibri_MSFontService,sans-serif" font-weight="400" font-size="55" transform="matrix(1 0 0 1 3669.52 1484)">-</text><path d="M0 0 19.7711 0.000360892" stroke="#000000" stroke-width="6.875" stroke-miterlimit="8" fill="none" fill-rule="evenodd" transform="matrix(-1 0 0 1 3714.27 1472.5)"/><path d="M3644.5 1404.5 3644.5 1424.27" stroke="#000000" stroke-width="6.875" stroke-miterlimit="8" fill="none" fill-rule="evenodd"/><text font-family="Aptos,Aptos_MSFontService,sans-serif" font-weight="400" font-size="37" transform="matrix(1 0 0 1 3623.3 1486)">16</text><path d="M3595.5 1293C3595.5 1265.11 3617.89 1242.5 3645.5 1242.5 3673.11 1242.5 3695.5 1265.11 3695.5 1293 3695.5 1320.89 3673.11 1343.5 3645.5 1343.5 3617.89 1343.5 3595.5 1320.89 3595.5 1293Z" stroke="#000000" stroke-width="6.875" stroke-miterlimit="8" fill="#7F7F7F" fill-rule="evenodd"/><text font-family="Calibri,Calibri_MSFontService,sans-serif" font-weight="400" font-size="41" transform="matrix(1 0 0 1 3635.85 1270)">+</text><text font-family="Calibri,Calibri_MSFontService,sans-serif" font-weight="400" font-size="55" transform="matrix(1 0 0 1 3670.82 1304)">-</text><path d="M0 0 19.7711 0.000360892" stroke="#000000" stroke-width="6.875" stroke-miterlimit="8" fill="none" fill-rule="evenodd" transform="matrix(-1 0 0 1 3715.27 1292.5)"/><path d="M3645.5 1224.5 3645.5 1244.27" stroke="#000000" stroke-width="6.875" stroke-miterlimit="8" fill="none" fill-rule="evenodd"/><text font-family="Aptos,Aptos_MSFontService,sans-serif" font-weight="400" font-size="37" transform="matrix(1 0 0 1 3624.6 1306)">17</text><path d="M3595.5 1113C3595.5 1085.11 3617.89 1062.5 3645.5 1062.5 3673.11 1062.5 3695.5 1085.11 3695.5 1113 3695.5 1140.89 3673.11 1163.5 3645.5 1163.5 3617.89 1163.5 3595.5 1140.89 3595.5 1113Z" stroke="#000000" stroke-width="6.875" stroke-miterlimit="8" fill="#7F7F7F" fill-rule="evenodd"/><text font-family="Calibri,Calibri_MSFontService,sans-serif" font-weight="400" font-size="41" transform="matrix(1 0 0 1 3635.33 1090)">+</text><text font-family="Calibri,Calibri_MSFontService,sans-serif" font-weight="400" font-size="55" transform="matrix(1 0 0 1 3670.3 1124)">-</text><path d="M0 0 19.7711 0.000360892" stroke="#000000" stroke-width="6.875" stroke-miterlimit="8" fill="none" fill-rule="evenodd" transform="matrix(-1 0 0 1 3715.27 1113.5)"/><path d="M3645.5 1045.5 3645.5 1065.27" stroke="#000000" stroke-width="6.875" stroke-miterlimit="8" fill="none" fill-rule="evenodd"/><text font-family="Aptos,Aptos_MSFontService,sans-serif" font-weight="400" font-size="37" transform="matrix(1 0 0 1 3624.08 1127)">18</text><path d="M3594.5 932C3594.5 904.109 3616.89 881.5 3644.5 881.5 3672.11 881.5 3694.5 904.109 3694.5 932 3694.5 959.89 3672.11 982.5 3644.5 982.5 3616.89 982.5 3594.5 959.89 3594.5 932Z" stroke="#000000" stroke-width="6.875" stroke-miterlimit="8" fill="#7F7F7F" fill-rule="evenodd"/><text font-family="Calibri,Calibri_MSFontService,sans-serif" font-weight="400" font-size="41" transform="matrix(1 0 0 1 3634.56 909)">+</text><text font-family="Calibri,Calibri_MSFontService,sans-serif" font-weight="400" font-size="55" transform="matrix(1 0 0 1 3669.52 943)">-</text><path d="M0 0 19.7711 0.000360892" stroke="#000000" stroke-width="6.875" stroke-miterlimit="8" fill="none" fill-rule="evenodd" transform="matrix(-1 0 0 1 3714.27 931.5)"/><path d="M3644.5 863.5 3644.5 883.271" stroke="#000000" stroke-width="6.875" stroke-miterlimit="8" fill="none" fill-rule="evenodd"/><text font-family="Aptos,Aptos_MSFontService,sans-serif" font-weight="400" font-size="37" transform="matrix(1 0 0 1 3623.3 945)">19</text><path d="M3594.5 752.5C3594.5 724.334 3616.89 701.5 3644.5 701.5 3672.11 701.5 3694.5 724.334 3694.5 752.5 3694.5 780.666 3672.11 803.5 3644.5 803.5 3616.89 803.5 3594.5 780.666 3594.5 752.5Z" stroke="#000000" stroke-width="6.875" stroke-miterlimit="8" fill="#7F7F7F" fill-rule="evenodd"/><text font-family="Calibri,Calibri_MSFontService,sans-serif" font-weight="400" font-size="41" transform="matrix(1 0 0 1 3634.68 730)">+</text><text font-family="Calibri,Calibri_MSFontService,sans-serif" font-weight="400" font-size="55" transform="matrix(1 0 0 1 3669.65 764)">-</text><path d="M0 0 19.7711 0.000360892" stroke="#000000" stroke-width="6.875" stroke-miterlimit="8" fill="none" fill-rule="evenodd" transform="matrix(-1 0 0 1 3714.27 752.5)"/><path d="M3644.5 684.5 3644.5 704.271" stroke="#000000" stroke-width="6.875" stroke-miterlimit="8" fill="none" fill-rule="evenodd"/><text font-family="Aptos,Aptos_MSFontService,sans-serif" font-weight="400" font-size="37" transform="matrix(1 0 0 1 3623.43 766)">20</text><path d="M3414.5 1473.5C3414.5 1445.33 3436.89 1422.5 3464.5 1422.5 3492.11 1422.5 3514.5 1445.33 3514.5 1473.5 3514.5 1501.67 3492.11 1524.5 3464.5 1524.5 3436.89 1524.5 3414.5 1501.67 3414.5 1473.5Z" stroke="#000000" stroke-width="6.875" stroke-miterlimit="8" fill="#7F7F7F" fill-rule="evenodd"/><text font-family="Calibri,Calibri_MSFontService,sans-serif" font-weight="400" font-size="41" transform="matrix(1 0 0 1 3454.68 1451)">+</text><text font-family="Calibri,Calibri_MSFontService,sans-serif" font-weight="400" font-size="55" transform="matrix(1 0 0 1 3489.64 1485)">-</text><path d="M0 0 19.7711 0.000360892" stroke="#000000" stroke-width="6.875" stroke-miterlimit="8" fill="none" fill-rule="evenodd" transform="matrix(-1 0 0 1 3534.27 1473.5)"/><path d="M3464.5 1405.5 3464.5 1425.27" stroke="#000000" stroke-width="6.875" stroke-miterlimit="8" fill="none" fill-rule="evenodd"/><text font-family="Aptos,Aptos_MSFontService,sans-serif" font-weight="400" font-size="37" transform="matrix(1 0 0 1 3443.44 1487)">21</text><path d="M3415.5 1114C3415.5 1086.11 3437.89 1063.5 3465.5 1063.5 3493.11 1063.5 3515.5 1086.11 3515.5 1114 3515.5 1141.89 3493.11 1164.5 3465.5 1164.5 3437.89 1164.5 3415.5 1141.89 3415.5 1114Z" stroke="#000000" stroke-width="6.875" stroke-miterlimit="8" fill="#7F7F7F" fill-rule="evenodd"/><text font-family="Calibri,Calibri_MSFontService,sans-serif" font-weight="400" font-size="41" transform="matrix(1 0 0 1 3455.45 1091)">+</text><text font-family="Calibri,Calibri_MSFontService,sans-serif" font-weight="400" font-size="55" transform="matrix(1 0 0 1 3490.41 1125)">-</text><path d="M0 0 19.7711 0.000360892" stroke="#000000" stroke-width="6.875" stroke-miterlimit="8" fill="none" fill-rule="evenodd" transform="matrix(-1 0 0 1 3535.27 1113.5)"/><path d="M3465.5 1045.5 3465.5 1065.27" stroke="#000000" stroke-width="6.875" stroke-miterlimit="8" fill="none" fill-rule="evenodd"/><text font-family="Aptos,Aptos_MSFontService,sans-serif" font-weight="400" font-size="37" transform="matrix(1 0 0 1 3444.21 1127)">22</text><path d="M3414.5 753.5C3414.5 725.334 3436.89 702.5 3464.5 702.5 3492.11 702.5 3514.5 725.334 3514.5 753.5 3514.5 781.666 3492.11 804.5 3464.5 804.5 3436.89 804.5 3414.5 781.666 3414.5 753.5Z" stroke="#000000" stroke-width="6.875" stroke-miterlimit="8" fill="#7F7F7F" fill-rule="evenodd"/><text font-family="Calibri,Calibri_MSFontService,sans-serif" font-weight="400" font-size="41" transform="matrix(1 0 0 1 3454.81 730)">+</text><text font-family="Calibri,Calibri_MSFontService,sans-serif" font-weight="400" font-size="55" transform="matrix(1 0 0 1 3489.77 765)">-</text><path d="M0 0 19.7711 0.000360892" stroke="#000000" stroke-width="6.875" stroke-miterlimit="8" fill="none" fill-rule="evenodd" transform="matrix(-1 0 0 1 3534.27 753.5)"/><path d="M3464.5 685.5 3464.5 705.271" stroke="#000000" stroke-width="6.875" stroke-miterlimit="8" fill="none" fill-rule="evenodd"/><text font-family="Aptos,Aptos_MSFontService,sans-serif" font-weight="400" font-size="37" transform="matrix(1 0 0 1 3443.56 767)">23</text><path d="M4228 1562C4228 1548.19 4239.42 1537 4253.5 1537 4267.58 1537 4279 1548.19 4279 1562 4279 1575.81 4267.58 1587 4253.5 1587 4239.42 1587 4228 1575.81 4228 1562Z" fill-rule="evenodd"/><path d="M4048 1560C4048 1546.19 4059.42 1535 4073.5 1535 4087.58 1535 4099 1546.19 4099 1560 4099 1573.81 4087.58 1585 4073.5 1585 4059.42 1585 4048 1573.81 4048 1560Z" fill-rule="evenodd"/><path d="M3866 1559.5C3866 1545.42 3877.42 1534 3891.5 1534 3905.58 1534 3917 1545.42 3917 1559.5 3917 1573.58 3905.58 1585 3891.5 1585 3877.42 1585 3866 1573.58 3866 1559.5Z" fill-rule="evenodd"/><path d="M3686 1559.5C3686 1545.42 3697.42 1534 3711.5 1534 3725.58 1534 3737 1545.42 3737 1559.5 3737 1573.58 3725.58 1585 3711.5 1585 3697.42 1585 3686 1573.58 3686 1559.5Z" fill-rule="evenodd"/><path d="M3505 1559C3505 1545.19 3516.42 1534 3530.5 1534 3544.58 1534 3556 1545.19 3556 1559 3556 1572.81 3544.58 1584 3530.5 1584 3516.42 1584 3505 1572.81 3505 1559Z" fill-rule="evenodd"/><path d="M3326 1407.5C3326 1393.42 3337.42 1382 3351.5 1382 3365.58 1382 3377 1393.42 3377 1407.5 3377 1421.58 3365.58 1433 3351.5 1433 3337.42 1433 3326 1421.58 3326 1407.5Z" fill-rule="evenodd"/><path d="M3325 1225C3325 1211.19 3336.42 1200 3350.5 1200 3364.58 1200 3376 1211.19 3376 1225 3376 1238.81 3364.58 1250 3350.5 1250 3336.42 1250 3325 1238.81 3325 1225Z" fill-rule="evenodd"/><path d="M3327 1045C3327 1031.19 3338.42 1020 3352.5 1020 3366.58 1020 3378 1031.19 3378 1045 3378 1058.81 3366.58 1070 3352.5 1070 3338.42 1070 3327 1058.81 3327 1045Z" fill-rule="evenodd"/><path d="M3328 861.5C3328 847.417 3339.42 836 3353.5 836 3367.58 836 3379 847.417 3379 861.5 3379 875.583 3367.58 887 3353.5 887 3339.42 887 3328 875.583 3328 861.5Z" fill-rule="evenodd"/><path d="M3328 683C3328 669.193 3339.42 658 3353.5 658 3367.58 658 3379 669.193 3379 683 3379 696.807 3367.58 708 3353.5 708 3339.42 708 3328 696.807 3328 683Z" fill-rule="evenodd"/><rect x="3584" y="687" width="131" height="898" fill="#FFC000" fill-opacity="0.4"/><rect x="0" y="0" width="131" height="925" fill="#FFC000" fill-opacity="0.4" transform="matrix(1.83697e-16 1 1 -1.83697e-16 3332 1404)"/></g></svg>