<svg width="958" height="935" xmlns="http://www.w3.org/2000/svg" xmlns:xlink="http://www.w3.org/1999/xlink" xml:space="preserve" overflow="hidden"><g transform="translate(-2249 -651)"><path d="M2252.5 673.635C2252.5 663.067 2261.07 654.5 2271.64 654.5L3184.36 654.5C3194.93 654.5 3203.5 663.067 3203.5 673.635L3203.5 1563.36C3203.5 1573.92 3194.93 1582.49 3184.36 1582.49L2271.64 1582.49C2261.07 1582.49 2252.5 1573.92 2252.5 1563.36Z" stroke="#000000" stroke-width="6.875" stroke-miterlimit="8" fill="#404040" fill-rule="evenodd"/><path d="M2634.5 687.5 2634.5 1557.97" stroke="#000000" stroke-width="6.875" stroke-miterlimit="8" fill="none" fill-rule="evenodd"/><path d="M2277.5 1223.5 3173.96 1223.5" stroke="#000000" stroke-width="6.875" stroke-miterlimit="8" fill="none" fill-rule="evenodd"/><path d="M2457.5 687.5 2457.5 1557.97" stroke="#000000" stroke-width="6.875" stroke-miterlimit="8" fill="none" fill-rule="evenodd"/><path d="M2817.5 681.5 2817.5 1551.97" stroke="#000000" stroke-width="6.875" stroke-miterlimit="8" fill="none" fill-rule="evenodd"/><path d="M2997.5 683.5 2997.5 1553.97" stroke="#000000" stroke-width="6.875" stroke-miterlimit="8" fill="none" fill-rule="evenodd"/><path d="M3179.5 685.5 3179.5 1555.97" stroke="#000000" stroke-width="6.875" stroke-miterlimit="8" fill="none" fill-rule="evenodd"/><path d="M2273.5 683.5 3182.95 683.5" stroke="#000000" stroke-width="6.875" stroke-miterlimit="8" fill="none" fill-rule="evenodd"/><path d="M2279.5 861.5 3175.96 861.5" stroke="#000000" stroke-width="6.875" stroke-miterlimit="8" fill="none" fill-rule="evenodd"/><path d="M2279.5 1042.5 3175.96 1042.5" stroke="#000000" stroke-width="6.875" stroke-miterlimit="8" fill="none" fill-rule="evenodd"/><path d="M2273.5 1404.5 3182.95 1404.5" stroke="#000000" stroke-width="6.875" stroke-miterlimit="8" fill="none" fill-rule="evenodd"/><path d="M3061.5 1469C3061.5 1441.11 3083.66 1418.5 3111 1418.5 3138.34 1418.5 3160.5 1441.11 3160.5 1469 3160.5 1496.89 3138.34 1519.5 3111 1519.5 3083.66 1519.5 3061.5 1496.89 3061.5 1469Z" stroke="#000000" stroke-width="6.875" stroke-miterlimit="8" fill="#7F7F7F" fill-rule="evenodd"/><text font-family="Calibri,Calibri_MSFontService,sans-serif" font-weight="400" font-size="41" transform="matrix(1 0 0 1 3101.18 1446)">+</text><text font-family="Calibri,Calibri_MSFontService,sans-serif" font-weight="400" font-size="55" transform="matrix(1 0 0 1 3136.14 1481)">-</text><path d="M0 0 19.7711 0.000360892" stroke="#000000" stroke-width="6.875" stroke-miterlimit="8" fill="none" fill-rule="evenodd" transform="matrix(-1 0 0 1 3180.27 1469.5)"/><path d="M3110.5 1401.5 3110.5 1421.27" stroke="#000000" stroke-width="6.875" stroke-miterlimit="8" fill="none" fill-rule="evenodd"/><text font-family="Aptos,Aptos_MSFontService,sans-serif" font-weight="400" font-size="37" transform="matrix(1 0 0 1 3099.66 1483)">1</text><path d="M3060.5 1289.5C3060.5 1261.33 3082.89 1238.5 3110.5 1238.5 3138.11 1238.5 3160.5 1261.33 3160.5 1289.5 3160.5 1317.67 3138.11 1340.5 3110.5 1340.5 3082.89 1340.5 3060.5 1317.67 3060.5 1289.5Z" stroke="#000000" stroke-width="6.875" stroke-miterlimit="8" fill="#7F7F7F" fill-rule="evenodd"/><text font-family="Calibri,Calibri_MSFontService,sans-serif" font-weight="400" font-size="41" transform="matrix(1 0 0 1 3100.75 1266)">+</text><text font-family="Calibri,Calibri_MSFontService,sans-serif" font-weight="400" font-size="55" transform="matrix(1 0 0 1 3135.72 1301)">-</text><path d="M0 0 19.7711 0.000360892" stroke="#000000" stroke-width="6.875" stroke-miterlimit="8" fill="none" fill-rule="evenodd" transform="matrix(-1 0 0 1 3180.27 1289.5)"/><path d="M3110.5 1221.5 3110.5 1241.27" stroke="#000000" stroke-width="6.875" stroke-miterlimit="8" fill="none" fill-rule="evenodd"/><text font-family="Aptos,Aptos_MSFontService,sans-serif" font-weight="400" font-size="37" transform="matrix(1 0 0 1 3099.24 1303)">2</text><path d="M3061.5 1109.5C3061.5 1081.33 3083.89 1058.5 3111.5 1058.5 3139.11 1058.5 3161.5 1081.33 3161.5 1109.5 3161.5 1137.67 3139.11 1160.5 3111.5 1160.5 3083.89 1160.5 3061.5 1137.67 3061.5 1109.5Z" stroke="#000000" stroke-width="6.875" stroke-miterlimit="8" fill="#7F7F7F" fill-rule="evenodd"/><text font-family="Calibri,Calibri_MSFontService,sans-serif" font-weight="400" font-size="41" transform="matrix(1 0 0 1 3101.95 1087)">+</text><text font-family="Calibri,Calibri_MSFontService,sans-serif" font-weight="400" font-size="55" transform="matrix(1 0 0 1 3136.92 1121)">-</text><path d="M0 0 19.7711 0.000360892" stroke="#000000" stroke-width="6.875" stroke-miterlimit="8" fill="none" fill-rule="evenodd" transform="matrix(-1 0 0 1 3181.27 1109.5)"/><path d="M3111.5 1041.5 3111.5 1061.27" stroke="#000000" stroke-width="6.875" stroke-miterlimit="8" fill="none" fill-rule="evenodd"/><text font-family="Aptos,Aptos_MSFontService,sans-serif" font-weight="400" font-size="37" transform="matrix(1 0 0 1 3100.44 1123)">3</text><path d="M3061.5 928.5C3061.5 900.334 3083.66 877.5 3111 877.5 3138.34 877.5 3160.5 900.334 3160.5 928.5 3160.5 956.666 3138.34 979.5 3111 979.5 3083.66 979.5 3061.5 956.666 3061.5 928.5Z" stroke="#000000" stroke-width="6.875" stroke-miterlimit="8" fill="#7F7F7F" fill-rule="evenodd"/><text font-family="Calibri,Calibri_MSFontService,sans-serif" font-weight="400" font-size="41" transform="matrix(1 0 0 1 3101.18 906)">+</text><text font-family="Calibri,Calibri_MSFontService,sans-serif" font-weight="400" font-size="55" transform="matrix(1 0 0 1 3136.14 940)">-</text><path d="M0 0 19.7711 0.000360892" stroke="#000000" stroke-width="6.875" stroke-miterlimit="8" fill="none" fill-rule="evenodd" transform="matrix(-1 0 0 1 3180.27 928.5)"/><path d="M3110.5 860.5 3110.5 880.271" stroke="#000000" stroke-width="6.875" stroke-miterlimit="8" fill="none" fill-rule="evenodd"/><text font-family="Aptos,Aptos_MSFontService,sans-serif" font-weight="400" font-size="37" transform="matrix(1 0 0 1 3099.66 942)">4</text><path d="M3061.5 749C3061.5 721.11 3083.66 698.5 3111 698.5 3138.34 698.5 3160.5 721.11 3160.5 749 3160.5 776.89 3138.34 799.5 3111 799.5 3083.66 799.5 3061.5 776.89 3061.5 749Z" stroke="#000000" stroke-width="6.875" stroke-miterlimit="8" fill="#7F7F7F" fill-rule="evenodd"/><text font-family="Calibri,Calibri_MSFontService,sans-serif" font-weight="400" font-size="41" transform="matrix(1 0 0 1 3101.3 726)">+</text><text font-family="Calibri,Calibri_MSFontService,sans-serif" font-weight="400" font-size="55" transform="matrix(1 0 0 1 3136.27 760)">-</text><path d="M0 0 19.7711 0.000360892" stroke="#000000" stroke-width="6.875" stroke-miterlimit="8" fill="none" fill-rule="evenodd" transform="matrix(-1 0 0 1 3180.27 749.5)"/><path d="M3111.5 681.5 3111.5 701.271" stroke="#000000" stroke-width="6.875" stroke-miterlimit="8" fill="none" fill-rule="evenodd"/><text font-family="Aptos,Aptos_MSFontService,sans-serif" font-weight="400" font-size="37" transform="matrix(1 0 0 1 3099.79 762)">5</text><path d="M2879.5 1469.5C2879.5 1441.33 2901.89 1418.5 2929.5 1418.5 2957.11 1418.5 2979.5 1441.33 2979.5 1469.5 2979.5 1497.67 2957.11 1520.5 2929.5 1520.5 2901.89 1520.5 2879.5 1497.67 2879.5 1469.5Z" stroke="#000000" stroke-width="6.875" stroke-miterlimit="8" fill="#7F7F7F" fill-rule="evenodd"/><text font-family="Calibri,Calibri_MSFontService,sans-serif" font-weight="400" font-size="41" transform="matrix(1 0 0 1 2919.77 1447)">+</text><text font-family="Calibri,Calibri_MSFontService,sans-serif" font-weight="400" font-size="55" transform="matrix(1 0 0 1 2954.73 1481)">-</text><path d="M0 0 19.7711 0.000360892" stroke="#000000" stroke-width="6.875" stroke-miterlimit="8" fill="none" fill-rule="evenodd" transform="matrix(-1 0 0 1 2999.27 1469.5)"/><path d="M2929.5 1401.5 2929.5 1421.27" stroke="#000000" stroke-width="6.875" stroke-miterlimit="8" fill="none" fill-rule="evenodd"/><text font-family="Aptos,Aptos_MSFontService,sans-serif" font-weight="400" font-size="37" transform="matrix(1 0 0 1 2918.25 1483)">6</text><path d="M2880.5 1289.5C2880.5 1261.33 2902.89 1238.5 2930.5 1238.5 2958.11 1238.5 2980.5 1261.33 2980.5 1289.5 2980.5 1317.67 2958.11 1340.5 2930.5 1340.5 2902.89 1340.5 2880.5 1317.67 2880.5 1289.5Z" stroke="#000000" stroke-width="6.875" stroke-miterlimit="8" fill="#7F7F7F" fill-rule="evenodd"/><text font-family="Calibri,Calibri_MSFontService,sans-serif" font-weight="400" font-size="41" transform="matrix(1 0 0 1 2921.06 1267)">+</text><text font-family="Calibri,Calibri_MSFontService,sans-serif" font-weight="400" font-size="55" transform="matrix(1 0 0 1 2956.02 1301)">-</text><path d="M0 0 19.7711 0.000360892" stroke="#000000" stroke-width="6.875" stroke-miterlimit="8" fill="none" fill-rule="evenodd" transform="matrix(-1 0 0 1 3000.27 1289.5)"/><path d="M2930.5 1221.5 2930.5 1241.27" stroke="#000000" stroke-width="6.875" stroke-miterlimit="8" fill="none" fill-rule="evenodd"/><text font-family="Aptos,Aptos_MSFontService,sans-serif" font-weight="400" font-size="37" transform="matrix(1 0 0 1 2919.54 1303)">7</text><path d="M2880.5 1110C2880.5 1082.11 2902.89 1059.5 2930.5 1059.5 2958.11 1059.5 2980.5 1082.11 2980.5 1110 2980.5 1137.89 2958.11 1160.5 2930.5 1160.5 2902.89 1160.5 2880.5 1137.89 2880.5 1110Z" stroke="#000000" stroke-width="6.875" stroke-miterlimit="8" fill="#7F7F7F" fill-rule="evenodd"/><text font-family="Calibri,Calibri_MSFontService,sans-serif" font-weight="400" font-size="41" transform="matrix(1 0 0 1 2920.54 1087)">+</text><text font-family="Calibri,Calibri_MSFontService,sans-serif" font-weight="400" font-size="55" transform="matrix(1 0 0 1 2955.51 1121)">-</text><path d="M0 0 19.7711 0.000360892" stroke="#000000" stroke-width="6.875" stroke-miterlimit="8" fill="none" fill-rule="evenodd" transform="matrix(-1 0 0 1 3000.27 1109.5)"/><path d="M2930.5 1041.5 2930.5 1061.27" stroke="#000000" stroke-width="6.875" stroke-miterlimit="8" fill="none" fill-rule="evenodd"/><text font-family="Aptos,Aptos_MSFontService,sans-serif" font-weight="400" font-size="37" transform="matrix(1 0 0 1 2919.03 1123)">8</text><path d="M2879.5 928.5C2879.5 900.334 2901.89 877.5 2929.5 877.5 2957.11 877.5 2979.5 900.334 2979.5 928.5 2979.5 956.666 2957.11 979.5 2929.5 979.5 2901.89 979.5 2879.5 956.666 2879.5 928.5Z" stroke="#000000" stroke-width="6.875" stroke-miterlimit="8" fill="#7F7F7F" fill-rule="evenodd"/><text font-family="Calibri,Calibri_MSFontService,sans-serif" font-weight="400" font-size="41" transform="matrix(1 0 0 1 2919.77 906)">+</text><text font-family="Calibri,Calibri_MSFontService,sans-serif" font-weight="400" font-size="55" transform="matrix(1 0 0 1 2954.73 940)">-</text><path d="M0 0 19.7711 0.000360892" stroke="#000000" stroke-width="6.875" stroke-miterlimit="8" fill="none" fill-rule="evenodd" transform="matrix(-1 0 0 1 2999.27 928.5)"/><path d="M2929.5 860.5 2929.5 880.271" stroke="#000000" stroke-width="6.875" stroke-miterlimit="8" fill="none" fill-rule="evenodd"/><text font-family="Aptos,Aptos_MSFontService,sans-serif" font-weight="400" font-size="37" transform="matrix(1 0 0 1 2918.25 942)">9</text><path d="M2879.5 749C2879.5 721.11 2901.89 698.5 2929.5 698.5 2957.11 698.5 2979.5 721.11 2979.5 749 2979.5 776.89 2957.11 799.5 2929.5 799.5 2901.89 799.5 2879.5 776.89 2879.5 749Z" stroke="#000000" stroke-width="6.875" stroke-miterlimit="8" fill="#7F7F7F" fill-rule="evenodd"/><text font-family="Calibri,Calibri_MSFontService,sans-serif" font-weight="400" font-size="41" transform="matrix(1 0 0 1 2919.89 726)">+</text><text font-family="Calibri,Calibri_MSFontService,sans-serif" font-weight="400" font-size="55" transform="matrix(1 0 0 1 2954.86 760)">-</text><path d="M0 0 19.7711 0.000360892" stroke="#000000" stroke-width="6.875" stroke-miterlimit="8" fill="none" fill-rule="evenodd" transform="matrix(-1 0 0 1 2999.27 749.5)"/><path d="M2929.5 681.5 2929.5 701.271" stroke="#000000" stroke-width="6.875" stroke-miterlimit="8" fill="none" fill-rule="evenodd"/><text font-family="Aptos,Aptos_MSFontService,sans-serif" font-weight="400" font-size="37" transform="matrix(1 0 0 1 2908.64 763)">10</text><path d="M2699.5 1470C2699.5 1442.11 2721.89 1419.5 2749.5 1419.5 2777.11 1419.5 2799.5 1442.11 2799.5 1470 2799.5 1497.89 2777.11 1520.5 2749.5 1520.5 2721.89 1520.5 2699.5 1497.89 2699.5 1470Z" stroke="#000000" stroke-width="6.875" stroke-miterlimit="8" fill="#FF0000" fill-rule="evenodd"/><text font-family="Calibri,Calibri_MSFontService,sans-serif" font-weight="400" font-size="41" transform="matrix(1 0 0 1 2740.05 1447)">+</text><text font-family="Calibri,Calibri_MSFontService,sans-serif" font-weight="400" font-size="55" transform="matrix(1 0 0 1 2775.02 1481)">-</text><path d="M0 0 19.7711 0.000360892" stroke="#000000" stroke-width="6.875" stroke-miterlimit="8" fill="none" fill-rule="evenodd" transform="matrix(-1 0 0 1 2819.27 1470.5)"/><path d="M2749.5 1402.5 2749.5 1422.27" stroke="#000000" stroke-width="6.875" stroke-miterlimit="8" fill="none" fill-rule="evenodd"/><text font-family="Aptos,Aptos_MSFontService,sans-serif" font-weight="400" font-size="37" transform="matrix(1 0 0 1 2728.8 1481)">11</text><path d="M2701.5 1290C2701.5 1262.11 2723.89 1239.5 2751.5 1239.5 2779.11 1239.5 2801.5 1262.11 2801.5 1290 2801.5 1317.89 2779.11 1340.5 2751.5 1340.5 2723.89 1340.5 2701.5 1317.89 2701.5 1290Z" stroke="#000000" stroke-width="6.875" stroke-miterlimit="8" fill="#7F7F7F" fill-rule="evenodd"/><text font-family="Calibri,Calibri_MSFontService,sans-serif" font-weight="400" font-size="41" transform="matrix(1 0 0 1 2741.34 1267)">+</text><text font-family="Calibri,Calibri_MSFontService,sans-serif" font-weight="400" font-size="55" transform="matrix(1 0 0 1 2776.31 1301)">-</text><path d="M0 0 19.7711 0.000360892" stroke="#000000" stroke-width="6.875" stroke-miterlimit="8" fill="none" fill-rule="evenodd" transform="matrix(-1 0 0 1 2821.27 1290.5)"/><path d="M2751.5 1222.5 2751.5 1242.27" stroke="#000000" stroke-width="6.875" stroke-miterlimit="8" fill="none" fill-rule="evenodd"/><text font-family="Aptos,Aptos_MSFontService,sans-serif" font-weight="400" font-size="37" transform="matrix(1 0 0 1 2730.09 1304)">12</text><path d="M2700.5 1110.5C2700.5 1082.33 2722.89 1059.5 2750.5 1059.5 2778.11 1059.5 2800.5 1082.33 2800.5 1110.5 2800.5 1138.67 2778.11 1161.5 2750.5 1161.5 2722.89 1161.5 2700.5 1138.67 2700.5 1110.5Z" stroke="#000000" stroke-width="6.875" stroke-miterlimit="8" fill="#7F7F7F" fill-rule="evenodd"/><text font-family="Calibri,Calibri_MSFontService,sans-serif" font-weight="400" font-size="41" transform="matrix(1 0 0 1 2740.82 1088)">+</text><text font-family="Calibri,Calibri_MSFontService,sans-serif" font-weight="400" font-size="55" transform="matrix(1 0 0 1 2775.79 1122)">-</text><path d="M0 0 19.7711 0.000360892" stroke="#000000" stroke-width="6.875" stroke-miterlimit="8" fill="none" fill-rule="evenodd" transform="matrix(-1 0 0 1 2820.27 1110.5)"/><path d="M2750.5 1042.5 2750.5 1062.27" stroke="#000000" stroke-width="6.875" stroke-miterlimit="8" fill="none" fill-rule="evenodd"/><text font-family="Aptos,Aptos_MSFontService,sans-serif" font-weight="400" font-size="37" transform="matrix(1 0 0 1 2729.57 1124)">13</text><path d="M2699.5 929C2699.5 901.11 2721.89 878.5 2749.5 878.5 2777.11 878.5 2799.5 901.11 2799.5 929 2799.5 956.89 2777.11 979.5 2749.5 979.5 2721.89 979.5 2699.5 956.89 2699.5 929Z" stroke="#000000" stroke-width="6.875" stroke-miterlimit="8" fill="#7F7F7F" fill-rule="evenodd"/><text font-family="Calibri,Calibri_MSFontService,sans-serif" font-weight="400" font-size="41" transform="matrix(1 0 0 1 2740.05 906)">+</text><text font-family="Calibri,Calibri_MSFontService,sans-serif" font-weight="400" font-size="55" transform="matrix(1 0 0 1 2775.02 941)">-</text><path d="M0 0 19.7711 0.000360892" stroke="#000000" stroke-width="6.875" stroke-miterlimit="8" fill="none" fill-rule="evenodd" transform="matrix(-1 0 0 1 2819.27 929.5)"/><path d="M2749.5 861.5 2749.5 881.271" stroke="#000000" stroke-width="6.875" stroke-miterlimit="8" fill="none" fill-rule="evenodd"/><text font-family="Aptos,Aptos_MSFontService,sans-serif" font-weight="400" font-size="37" transform="matrix(1 0 0 1 2728.8 943)">14</text><path d="M2699.5 750C2699.5 722.11 2721.89 699.5 2749.5 699.5 2777.11 699.5 2799.5 722.11 2799.5 750 2799.5 777.891 2777.11 800.5 2749.5 800.5 2721.89 800.5 2699.5 777.891 2699.5 750Z" stroke="#000000" stroke-width="6.875" stroke-miterlimit="8" fill="#7F7F7F" fill-rule="evenodd"/><text font-family="Calibri,Calibri_MSFontService,sans-serif" font-weight="400" font-size="41" transform="matrix(1 0 0 1 2740.17 727)">+</text><text font-family="Calibri,Calibri_MSFontService,sans-serif" font-weight="400" font-size="55" transform="matrix(1 0 0 1 2775.14 761)">-</text><path d="M0 0 19.7711 0.000360892" stroke="#000000" stroke-width="6.875" stroke-miterlimit="8" fill="none" fill-rule="evenodd" transform="matrix(-1 0 0 1 2819.27 749.5)"/><path d="M2749.5 681.5 2749.5 701.271" stroke="#000000" stroke-width="6.875" stroke-miterlimit="8" fill="none" fill-rule="evenodd"/><text font-family="Aptos,Aptos_MSFontService,sans-serif" font-weight="400" font-size="37" transform="matrix(1 0 0 1 2728.92 763)">15</text><path d="M2518.5 1469.5C2518.5 1441.33 2540.89 1418.5 2568.5 1418.5 2596.11 1418.5 2618.5 1441.33 2618.5 1469.5 2618.5 1497.67 2596.11 1520.5 2568.5 1520.5 2540.89 1520.5 2518.5 1497.67 2518.5 1469.5Z" stroke="#000000" stroke-width="6.875" stroke-miterlimit="8" fill="#7F7F7F" fill-rule="evenodd"/><text font-family="Calibri,Calibri_MSFontService,sans-serif" font-weight="400" font-size="41" transform="matrix(1 0 0 1 2558.64 1446)">+</text><text font-family="Calibri,Calibri_MSFontService,sans-serif" font-weight="400" font-size="55" transform="matrix(1 0 0 1 2593.61 1481)">-</text><path d="M0 0 19.7711 0.000360892" stroke="#000000" stroke-width="6.875" stroke-miterlimit="8" fill="none" fill-rule="evenodd" transform="matrix(-1 0 0 1 2638.27 1469.5)"/><path d="M2568.5 1401.5 2568.5 1421.27" stroke="#000000" stroke-width="6.875" stroke-miterlimit="8" fill="none" fill-rule="evenodd"/><text font-family="Aptos,Aptos_MSFontService,sans-serif" font-weight="400" font-size="37" transform="matrix(1 0 0 1 2547.39 1483)">16</text><path d="M2519.5 1289.5C2519.5 1261.33 2541.89 1238.5 2569.5 1238.5 2597.11 1238.5 2619.5 1261.33 2619.5 1289.5 2619.5 1317.67 2597.11 1340.5 2569.5 1340.5 2541.89 1340.5 2519.5 1317.67 2519.5 1289.5Z" stroke="#000000" stroke-width="6.875" stroke-miterlimit="8" fill="#7F7F7F" fill-rule="evenodd"/><text font-family="Calibri,Calibri_MSFontService,sans-serif" font-weight="400" font-size="41" transform="matrix(1 0 0 1 2559.93 1267)">+</text><text font-family="Calibri,Calibri_MSFontService,sans-serif" font-weight="400" font-size="55" transform="matrix(1 0 0 1 2594.9 1301)">-</text><path d="M0 0 19.7711 0.000360892" stroke="#000000" stroke-width="6.875" stroke-miterlimit="8" fill="none" fill-rule="evenodd" transform="matrix(-1 0 0 1 2639.27 1289.5)"/><path d="M2569.5 1221.5 2569.5 1241.27" stroke="#000000" stroke-width="6.875" stroke-miterlimit="8" fill="none" fill-rule="evenodd"/><text font-family="Aptos,Aptos_MSFontService,sans-serif" font-weight="400" font-size="37" transform="matrix(1 0 0 1 2548.68 1303)">17</text><path d="M2519.5 1110C2519.5 1082.11 2541.89 1059.5 2569.5 1059.5 2597.11 1059.5 2619.5 1082.11 2619.5 1110 2619.5 1137.89 2597.11 1160.5 2569.5 1160.5 2541.89 1160.5 2519.5 1137.89 2519.5 1110Z" stroke="#000000" stroke-width="6.875" stroke-miterlimit="8" fill="#7F7F7F" fill-rule="evenodd"/><text font-family="Calibri,Calibri_MSFontService,sans-serif" font-weight="400" font-size="41" transform="matrix(1 0 0 1 2559.41 1087)">+</text><text font-family="Calibri,Calibri_MSFontService,sans-serif" font-weight="400" font-size="55" transform="matrix(1 0 0 1 2594.38 1121)">-</text><path d="M0 0 19.7711 0.000360892" stroke="#000000" stroke-width="6.875" stroke-miterlimit="8" fill="none" fill-rule="evenodd" transform="matrix(-1 0 0 1 2639.27 1109.5)"/><path d="M2569.5 1041.5 2569.5 1061.27" stroke="#000000" stroke-width="6.875" stroke-miterlimit="8" fill="none" fill-rule="evenodd"/><text font-family="Aptos,Aptos_MSFontService,sans-serif" font-weight="400" font-size="37" transform="matrix(1 0 0 1 2548.16 1123)">18</text><path d="M2518.5 928.5C2518.5 900.334 2540.89 877.5 2568.5 877.5 2596.11 877.5 2618.5 900.334 2618.5 928.5 2618.5 956.666 2596.11 979.5 2568.5 979.5 2540.89 979.5 2518.5 956.666 2518.5 928.5Z" stroke="#000000" stroke-width="6.875" stroke-miterlimit="8" fill="#7F7F7F" fill-rule="evenodd"/><text font-family="Calibri,Calibri_MSFontService,sans-serif" font-weight="400" font-size="41" transform="matrix(1 0 0 1 2558.64 906)">+</text><text font-family="Calibri,Calibri_MSFontService,sans-serif" font-weight="400" font-size="55" transform="matrix(1 0 0 1 2593.61 940)">-</text><path d="M0 0 19.7711 0.000360892" stroke="#000000" stroke-width="6.875" stroke-miterlimit="8" fill="none" fill-rule="evenodd" transform="matrix(-1 0 0 1 2638.27 928.5)"/><path d="M2568.5 860.5 2568.5 880.271" stroke="#000000" stroke-width="6.875" stroke-miterlimit="8" fill="none" fill-rule="evenodd"/><text font-family="Aptos,Aptos_MSFontService,sans-serif" font-weight="400" font-size="37" transform="matrix(1 0 0 1 2547.39 942)">19</text><path d="M2518.5 749C2518.5 721.11 2540.89 698.5 2568.5 698.5 2596.11 698.5 2618.5 721.11 2618.5 749 2618.5 776.89 2596.11 799.5 2568.5 799.5 2540.89 799.5 2518.5 776.89 2518.5 749Z" stroke="#000000" stroke-width="6.875" stroke-miterlimit="8" fill="#7F7F7F" fill-rule="evenodd"/><text font-family="Calibri,Calibri_MSFontService,sans-serif" font-weight="400" font-size="41" transform="matrix(1 0 0 1 2558.76 726)">+</text><text font-family="Calibri,Calibri_MSFontService,sans-serif" font-weight="400" font-size="55" transform="matrix(1 0 0 1 2593.73 760)">-</text><path d="M0 0 19.7711 0.000360892" stroke="#000000" stroke-width="6.875" stroke-miterlimit="8" fill="none" fill-rule="evenodd" transform="matrix(-1 0 0 1 2638.27 749.5)"/><path d="M2568.5 681.5 2568.5 701.271" stroke="#000000" stroke-width="6.875" stroke-miterlimit="8" fill="none" fill-rule="evenodd"/><text font-family="Aptos,Aptos_MSFontService,sans-serif" font-weight="400" font-size="37" transform="matrix(1 0 0 1 2547.51 763)">20</text><path d="M2338.5 1470C2338.5 1442.11 2360.89 1419.5 2388.5 1419.5 2416.11 1419.5 2438.5 1442.11 2438.5 1470 2438.5 1497.89 2416.11 1520.5 2388.5 1520.5 2360.89 1520.5 2338.5 1497.89 2338.5 1470Z" stroke="#000000" stroke-width="6.875" stroke-miterlimit="8" fill="#7F7F7F" fill-rule="evenodd"/><text font-family="Calibri,Calibri_MSFontService,sans-serif" font-weight="400" font-size="41" transform="matrix(1 0 0 1 2378.76 1447)">+</text><text font-family="Calibri,Calibri_MSFontService,sans-serif" font-weight="400" font-size="55" transform="matrix(1 0 0 1 2413.72 1481)">-</text><path d="M0 0 19.7711 0.000360892" stroke="#000000" stroke-width="6.875" stroke-miterlimit="8" fill="none" fill-rule="evenodd" transform="matrix(-1 0 0 1 2458.27 1470.5)"/><path d="M2388.5 1402.5 2388.5 1422.27" stroke="#000000" stroke-width="6.875" stroke-miterlimit="8" fill="none" fill-rule="evenodd"/><text font-family="Aptos,Aptos_MSFontService,sans-serif" font-weight="400" font-size="37" transform="matrix(1 0 0 1 2367.52 1483)">21</text><path d="M2339.5 1110.5C2339.5 1082.33 2361.89 1059.5 2389.5 1059.5 2417.11 1059.5 2439.5 1082.33 2439.5 1110.5 2439.5 1138.67 2417.11 1161.5 2389.5 1161.5 2361.89 1161.5 2339.5 1138.67 2339.5 1110.5Z" stroke="#000000" stroke-width="6.875" stroke-miterlimit="8" fill="#7F7F7F" fill-rule="evenodd"/><text font-family="Calibri,Calibri_MSFontService,sans-serif" font-weight="400" font-size="41" transform="matrix(1 0 0 1 2379.53 1088)">+</text><text font-family="Calibri,Calibri_MSFontService,sans-serif" font-weight="400" font-size="55" transform="matrix(1 0 0 1 2414.5 1122)">-</text><path d="M0 0 19.7711 0.000360892" stroke="#000000" stroke-width="6.875" stroke-miterlimit="8" fill="none" fill-rule="evenodd" transform="matrix(-1 0 0 1 2459.27 1110.5)"/><path d="M2389.5 1042.5 2389.5 1062.27" stroke="#000000" stroke-width="6.875" stroke-miterlimit="8" fill="none" fill-rule="evenodd"/><text font-family="Aptos,Aptos_MSFontService,sans-serif" font-weight="400" font-size="37" transform="matrix(1 0 0 1 2368.29 1124)">22</text><path d="M2338.5 750C2338.5 722.11 2360.89 699.5 2388.5 699.5 2416.11 699.5 2438.5 722.11 2438.5 750 2438.5 777.891 2416.11 800.5 2388.5 800.5 2360.89 800.5 2338.5 777.891 2338.5 750Z" stroke="#000000" stroke-width="6.875" stroke-miterlimit="8" fill="#7F7F7F" fill-rule="evenodd"/><text font-family="Calibri,Calibri_MSFontService,sans-serif" font-weight="400" font-size="41" transform="matrix(1 0 0 1 2378.89 727)">+</text><text font-family="Calibri,Calibri_MSFontService,sans-serif" font-weight="400" font-size="55" transform="matrix(1 0 0 1 2413.85 761)">-</text><path d="M0 0 19.7711 0.000360892" stroke="#000000" stroke-width="6.875" stroke-miterlimit="8" fill="none" fill-rule="evenodd" transform="matrix(-1 0 0 1 2458.27 749.5)"/><path d="M2388.5 681.5 2388.5 701.271" stroke="#000000" stroke-width="6.875" stroke-miterlimit="8" fill="none" fill-rule="evenodd"/><text font-family="Aptos,Aptos_MSFontService,sans-serif" font-weight="400" font-size="37" transform="matrix(1 0 0 1 2367.64 763)">23</text><path d="M3152 1558.5C3152 1544.42 3163.42 1533 3177.5 1533 3191.58 1533 3203 1544.42 3203 1558.5 3203 1572.58 3191.58 1584 3177.5 1584 3163.42 1584 3152 1572.58 3152 1558.5Z" fill-rule="evenodd"/><path d="M2972 1556.5C2972 1542.42 2983.42 1531 2997.5 1531 3011.58 1531 3023 1542.42 3023 1556.5 3023 1570.58 3011.58 1582 2997.5 1582 2983.42 1582 2972 1570.58 2972 1556.5Z" fill-rule="evenodd"/><path d="M2790 1556C2790 1542.19 2801.42 1531 2815.5 1531 2829.58 1531 2841 1542.19 2841 1556 2841 1569.81 2829.58 1581 2815.5 1581 2801.42 1581 2790 1569.81 2790 1556Z" fill-rule="evenodd"/><path d="M2610 1556C2610 1542.19 2621.42 1531 2635.5 1531 2649.58 1531 2661 1542.19 2661 1556 2661 1569.81 2649.58 1581 2635.5 1581 2621.42 1581 2610 1569.81 2610 1556Z" fill-rule="evenodd"/><path d="M2429 1555.5C2429 1541.42 2440.42 1530 2454.5 1530 2468.58 1530 2480 1541.42 2480 1555.5 2480 1569.58 2468.58 1581 2454.5 1581 2440.42 1581 2429 1569.58 2429 1555.5Z" fill-rule="evenodd"/><path d="M2251 1403.5C2251 1389.42 2262.19 1378 2276 1378 2289.81 1378 2301 1389.42 2301 1403.5 2301 1417.58 2289.81 1429 2276 1429 2262.19 1429 2251 1417.58 2251 1403.5Z" fill-rule="evenodd"/><path d="M2249 1221.5C2249 1207.42 2260.42 1196 2274.5 1196 2288.58 1196 2300 1207.42 2300 1221.5 2300 1235.58 2288.58 1247 2274.5 1247 2260.42 1247 2249 1235.58 2249 1221.5Z" fill-rule="evenodd"/><path d="M2251 1041.5C2251 1027.42 2262.42 1016 2276.5 1016 2290.58 1016 2302 1027.42 2302 1041.5 2302 1055.58 2290.58 1067 2276.5 1067 2262.42 1067 2251 1055.58 2251 1041.5Z" fill-rule="evenodd"/><path d="M2252 858.5C2252 844.417 2263.42 833 2277.5 833 2291.58 833 2303 844.417 2303 858.5 2303 872.583 2291.58 884 2277.5 884 2263.42 884 2252 872.583 2252 858.5Z" fill-rule="evenodd"/><path d="M2252 679.5C2252 665.417 2263.42 654 2277.5 654 2291.58 654 2303 665.417 2303 679.5 2303 693.583 2291.58 705 2277.5 705 2263.42 705 2252 693.583 2252 679.5Z" fill-rule="evenodd"/><rect x="2691" y="682" width="131" height="899" fill="#FF0000" fill-opacity="0.4"/><rect x="0" y="0" width="131" height="925" fill="#FF0000" fill-opacity="0.4" transform="matrix(1.83697e-16 1 1 -1.83697e-16 2256 1398)"/></g></svg>