<?xml version="1.0" encoding="utf-8" standalone="no"?>
<!DOCTYPE svg PUBLIC "-//W3C//DTD SVG 1.1//EN"
  "http://www.w3.org/Graphics/SVG/1.1/DTD/svg11.dtd">
<svg xmlns:xlink="http://www.w3.org/1999/xlink" width="720pt" height="720pt" viewBox="0 0 720 720" xmlns="http://www.w3.org/2000/svg" version="1.1">
 <metadata>
  <rdf:RDF xmlns:dc="http://purl.org/dc/elements/1.1/" xmlns:cc="http://creativecommons.org/ns#" xmlns:rdf="http://www.w3.org/1999/02/22-rdf-syntax-ns#">
   <cc:Work>
    <dc:type rdf:resource="http://purl.org/dc/dcmitype/StillImage"/>
    <dc:date>2024-09-27T16:43:17.435606</dc:date>
    <dc:format>image/svg+xml</dc:format>
    <dc:creator>
     <cc:Agent>
      <dc:title>Matplotlib v3.8.4, https://matplotlib.org/</dc:title>
     </cc:Agent>
    </dc:creator>
   </cc:Work>
  </rdf:RDF>
 </metadata>
 <defs>
  <style type="text/css">*{stroke-linejoin: round; stroke-linecap: butt}</style>
 </defs>
 <g id="figure_1">
  <g id="patch_1">
   <path d="M 0 720 
L 720 720 
L 720 0 
L 0 0 
L 0 720 
z
" style="fill: none"/>
  </g>
  <g id="axes_1">
   <g id="patch_2">
    <path d="M 90 640.8 
L 648 640.8 
L 648 86.4 
L 90 86.4 
L 90 640.8 
z
" style="fill: none"/>
   </g>
   <g id="matplotlib.axis_1">
    <g id="xtick_1">
     <g id="line2d_1">
      <path d="M 159.75 640.8 
L 159.75 86.4 
" clip-path="url(#p4338def723)" style="fill: none; stroke-dasharray: 1.85,0.8; stroke-dashoffset: 0; stroke: #000000; stroke-width: 0.5"/>
     </g>
     <g id="line2d_2"/>
     <g id="text_1">
      <!-- −70 -->
      <g style="fill: #262626" transform="translate(151.26875 654.957813) scale(0.1 -0.1)">
       <defs>
        <path id="ArialMT-2212" d="M 3381 1997 
L 356 1997 
L 356 2522 
L 3381 2522 
L 3381 1997 
z
" transform="scale(0.015625)"/>
        <path id="ArialMT-37" d="M 303 3981 
L 303 4522 
L 3269 4522 
L 3269 4084 
Q 2831 3619 2401 2847 
Q 1972 2075 1738 1259 
Q 1569 684 1522 0 
L 944 0 
Q 953 541 1156 1306 
Q 1359 2072 1739 2783 
Q 2119 3494 2547 3981 
L 303 3981 
z
" transform="scale(0.015625)"/>
        <path id="ArialMT-30" d="M 266 2259 
Q 266 3072 433 3567 
Q 600 4063 929 4331 
Q 1259 4600 1759 4600 
Q 2128 4600 2406 4451 
Q 2684 4303 2865 4023 
Q 3047 3744 3150 3342 
Q 3253 2941 3253 2259 
Q 3253 1453 3087 958 
Q 2922 463 2592 192 
Q 2263 -78 1759 -78 
Q 1097 -78 719 397 
Q 266 969 266 2259 
z
M 844 2259 
Q 844 1131 1108 757 
Q 1372 384 1759 384 
Q 2147 384 2411 759 
Q 2675 1134 2675 2259 
Q 2675 3391 2411 3762 
Q 2147 4134 1753 4134 
Q 1366 4134 1134 3806 
Q 844 3388 844 2259 
z
" transform="scale(0.015625)"/>
       </defs>
       <use xlink:href="#ArialMT-2212"/>
       <use xlink:href="#ArialMT-37" x="58.398438"/>
       <use xlink:href="#ArialMT-30" x="114.013672"/>
      </g>
     </g>
    </g>
    <g id="xtick_2">
     <g id="line2d_3">
      <path d="M 194.625 640.8 
L 194.625 86.4 
" clip-path="url(#p4338def723)" style="fill: none; stroke-dasharray: 1.85,0.8; stroke-dashoffset: 0; stroke: #000000; stroke-width: 0.5"/>
     </g>
     <g id="line2d_4"/>
     <g id="text_2">
      <!-- −60 -->
      <g style="fill: #262626" transform="translate(186.14375 654.957813) scale(0.1 -0.1)">
       <defs>
        <path id="ArialMT-36" d="M 3184 3459 
L 2625 3416 
Q 2550 3747 2413 3897 
Q 2184 4138 1850 4138 
Q 1581 4138 1378 3988 
Q 1113 3794 959 3422 
Q 806 3050 800 2363 
Q 1003 2672 1297 2822 
Q 1591 2972 1913 2972 
Q 2475 2972 2870 2558 
Q 3266 2144 3266 1488 
Q 3266 1056 3080 686 
Q 2894 316 2569 119 
Q 2244 -78 1831 -78 
Q 1128 -78 684 439 
Q 241 956 241 2144 
Q 241 3472 731 4075 
Q 1159 4600 1884 4600 
Q 2425 4600 2770 4297 
Q 3116 3994 3184 3459 
z
M 888 1484 
Q 888 1194 1011 928 
Q 1134 663 1356 523 
Q 1578 384 1822 384 
Q 2178 384 2434 671 
Q 2691 959 2691 1453 
Q 2691 1928 2437 2201 
Q 2184 2475 1800 2475 
Q 1419 2475 1153 2201 
Q 888 1928 888 1484 
z
" transform="scale(0.015625)"/>
       </defs>
       <use xlink:href="#ArialMT-2212"/>
       <use xlink:href="#ArialMT-36" x="58.398438"/>
       <use xlink:href="#ArialMT-30" x="114.013672"/>
      </g>
     </g>
    </g>
    <g id="xtick_3">
     <g id="line2d_5">
      <path d="M 229.5 640.8 
L 229.5 86.4 
" clip-path="url(#p4338def723)" style="fill: none; stroke-dasharray: 1.85,0.8; stroke-dashoffset: 0; stroke: #000000; stroke-width: 0.5"/>
     </g>
     <g id="line2d_6"/>
     <g id="text_3">
      <!-- −50 -->
      <g style="fill: #262626" transform="translate(221.01875 654.957813) scale(0.1 -0.1)">
       <defs>
        <path id="ArialMT-35" d="M 266 1200 
L 856 1250 
Q 922 819 1161 601 
Q 1400 384 1738 384 
Q 2144 384 2425 690 
Q 2706 997 2706 1503 
Q 2706 1984 2436 2262 
Q 2166 2541 1728 2541 
Q 1456 2541 1237 2417 
Q 1019 2294 894 2097 
L 366 2166 
L 809 4519 
L 3088 4519 
L 3088 3981 
L 1259 3981 
L 1013 2750 
Q 1425 3038 1878 3038 
Q 2478 3038 2890 2622 
Q 3303 2206 3303 1553 
Q 3303 931 2941 478 
Q 2500 -78 1738 -78 
Q 1113 -78 717 272 
Q 322 622 266 1200 
z
" transform="scale(0.015625)"/>
       </defs>
       <use xlink:href="#ArialMT-2212"/>
       <use xlink:href="#ArialMT-35" x="58.398438"/>
       <use xlink:href="#ArialMT-30" x="114.013672"/>
      </g>
     </g>
    </g>
    <g id="xtick_4">
     <g id="line2d_7">
      <path d="M 264.375 640.8 
L 264.375 86.4 
" clip-path="url(#p4338def723)" style="fill: none; stroke-dasharray: 1.85,0.8; stroke-dashoffset: 0; stroke: #000000; stroke-width: 0.5"/>
     </g>
     <g id="line2d_8"/>
     <g id="text_4">
      <!-- −40 -->
      <g style="fill: #262626" transform="translate(255.89375 654.957813) scale(0.1 -0.1)">
       <defs>
        <path id="ArialMT-34" d="M 2069 0 
L 2069 1097 
L 81 1097 
L 81 1613 
L 2172 4581 
L 2631 4581 
L 2631 1613 
L 3250 1613 
L 3250 1097 
L 2631 1097 
L 2631 0 
L 2069 0 
z
M 2069 1613 
L 2069 3678 
L 634 1613 
L 2069 1613 
z
" transform="scale(0.015625)"/>
       </defs>
       <use xlink:href="#ArialMT-2212"/>
       <use xlink:href="#ArialMT-34" x="58.398438"/>
       <use xlink:href="#ArialMT-30" x="114.013672"/>
      </g>
     </g>
    </g>
    <g id="xtick_5">
     <g id="line2d_9">
      <path d="M 299.25 640.8 
L 299.25 86.4 
" clip-path="url(#p4338def723)" style="fill: none; stroke-dasharray: 1.85,0.8; stroke-dashoffset: 0; stroke: #000000; stroke-width: 0.5"/>
     </g>
     <g id="line2d_10"/>
     <g id="text_5">
      <!-- −30 -->
      <g style="fill: #262626" transform="translate(290.76875 654.957813) scale(0.1 -0.1)">
       <defs>
        <path id="ArialMT-33" d="M 269 1209 
L 831 1284 
Q 928 806 1161 595 
Q 1394 384 1728 384 
Q 2125 384 2398 659 
Q 2672 934 2672 1341 
Q 2672 1728 2419 1979 
Q 2166 2231 1775 2231 
Q 1616 2231 1378 2169 
L 1441 2663 
Q 1497 2656 1531 2656 
Q 1891 2656 2178 2843 
Q 2466 3031 2466 3422 
Q 2466 3731 2256 3934 
Q 2047 4138 1716 4138 
Q 1388 4138 1169 3931 
Q 950 3725 888 3313 
L 325 3413 
Q 428 3978 793 4289 
Q 1159 4600 1703 4600 
Q 2078 4600 2393 4439 
Q 2709 4278 2876 4000 
Q 3044 3722 3044 3409 
Q 3044 3113 2884 2869 
Q 2725 2625 2413 2481 
Q 2819 2388 3044 2092 
Q 3269 1797 3269 1353 
Q 3269 753 2831 336 
Q 2394 -81 1725 -81 
Q 1122 -81 723 278 
Q 325 638 269 1209 
z
" transform="scale(0.015625)"/>
       </defs>
       <use xlink:href="#ArialMT-2212"/>
       <use xlink:href="#ArialMT-33" x="58.398438"/>
       <use xlink:href="#ArialMT-30" x="114.013672"/>
      </g>
     </g>
    </g>
    <g id="xtick_6">
     <g id="line2d_11">
      <path d="M 334.125 640.8 
L 334.125 86.4 
" clip-path="url(#p4338def723)" style="fill: none; stroke-dasharray: 1.85,0.8; stroke-dashoffset: 0; stroke: #000000; stroke-width: 0.5"/>
     </g>
     <g id="line2d_12"/>
     <g id="text_6">
      <!-- −20 -->
      <g style="fill: #262626" transform="translate(325.64375 654.957813) scale(0.1 -0.1)">
       <defs>
        <path id="ArialMT-32" d="M 3222 541 
L 3222 0 
L 194 0 
Q 188 203 259 391 
Q 375 700 629 1000 
Q 884 1300 1366 1694 
Q 2113 2306 2375 2664 
Q 2638 3022 2638 3341 
Q 2638 3675 2398 3904 
Q 2159 4134 1775 4134 
Q 1369 4134 1125 3890 
Q 881 3647 878 3216 
L 300 3275 
Q 359 3922 746 4261 
Q 1134 4600 1788 4600 
Q 2447 4600 2831 4234 
Q 3216 3869 3216 3328 
Q 3216 3053 3103 2787 
Q 2991 2522 2730 2228 
Q 2469 1934 1863 1422 
Q 1356 997 1212 845 
Q 1069 694 975 541 
L 3222 541 
z
" transform="scale(0.015625)"/>
       </defs>
       <use xlink:href="#ArialMT-2212"/>
       <use xlink:href="#ArialMT-32" x="58.398438"/>
       <use xlink:href="#ArialMT-30" x="114.013672"/>
      </g>
     </g>
    </g>
    <g id="xtick_7">
     <g id="line2d_13">
      <path d="M 369 640.8 
L 369 86.4 
" clip-path="url(#p4338def723)" style="fill: none; stroke-dasharray: 1.85,0.8; stroke-dashoffset: 0; stroke: #000000; stroke-width: 0.5"/>
     </g>
     <g id="line2d_14"/>
     <g id="text_7">
      <!-- −10 -->
      <g style="fill: #262626" transform="translate(360.51875 654.957813) scale(0.1 -0.1)">
       <defs>
        <path id="ArialMT-31" d="M 2384 0 
L 1822 0 
L 1822 3584 
Q 1619 3391 1289 3197 
Q 959 3003 697 2906 
L 697 3450 
Q 1169 3672 1522 3987 
Q 1875 4303 2022 4600 
L 2384 4600 
L 2384 0 
z
" transform="scale(0.015625)"/>
       </defs>
       <use xlink:href="#ArialMT-2212"/>
       <use xlink:href="#ArialMT-31" x="58.398438"/>
       <use xlink:href="#ArialMT-30" x="114.013672"/>
      </g>
     </g>
    </g>
    <g id="xtick_8">
     <g id="line2d_15">
      <path d="M 403.875 640.8 
L 403.875 86.4 
" clip-path="url(#p4338def723)" style="fill: none; stroke-dasharray: 1.85,0.8; stroke-dashoffset: 0; stroke: #000000; stroke-width: 0.5"/>
     </g>
     <g id="line2d_16"/>
     <g id="text_8">
      <!-- 0 -->
      <g style="fill: #262626" transform="translate(401.094531 654.957813) scale(0.1 -0.1)">
       <use xlink:href="#ArialMT-30"/>
      </g>
     </g>
    </g>
    <g id="xtick_9">
     <g id="line2d_17">
      <path d="M 438.75 640.8 
L 438.75 86.4 
" clip-path="url(#p4338def723)" style="fill: none; stroke-dasharray: 1.85,0.8; stroke-dashoffset: 0; stroke: #000000; stroke-width: 0.5"/>
     </g>
     <g id="line2d_18"/>
     <g id="text_9">
      <!-- 10 -->
      <g style="fill: #262626" transform="translate(433.189062 654.957813) scale(0.1 -0.1)">
       <use xlink:href="#ArialMT-31"/>
       <use xlink:href="#ArialMT-30" x="55.615234"/>
      </g>
     </g>
    </g>
    <g id="xtick_10">
     <g id="line2d_19">
      <path d="M 473.625 640.8 
L 473.625 86.4 
" clip-path="url(#p4338def723)" style="fill: none; stroke-dasharray: 1.85,0.8; stroke-dashoffset: 0; stroke: #000000; stroke-width: 0.5"/>
     </g>
     <g id="line2d_20"/>
     <g id="text_10">
      <!-- 20 -->
      <g style="fill: #262626" transform="translate(468.064062 654.957813) scale(0.1 -0.1)">
       <use xlink:href="#ArialMT-32"/>
       <use xlink:href="#ArialMT-30" x="55.615234"/>
      </g>
     </g>
    </g>
    <g id="xtick_11">
     <g id="line2d_21">
      <path d="M 508.5 640.8 
L 508.5 86.4 
" clip-path="url(#p4338def723)" style="fill: none; stroke-dasharray: 1.85,0.8; stroke-dashoffset: 0; stroke: #000000; stroke-width: 0.5"/>
     </g>
     <g id="line2d_22"/>
     <g id="text_11">
      <!-- 30 -->
      <g style="fill: #262626" transform="translate(502.939062 654.957813) scale(0.1 -0.1)">
       <use xlink:href="#ArialMT-33"/>
       <use xlink:href="#ArialMT-30" x="55.615234"/>
      </g>
     </g>
    </g>
    <g id="xtick_12">
     <g id="line2d_23">
      <path d="M 543.375 640.8 
L 543.375 86.4 
" clip-path="url(#p4338def723)" style="fill: none; stroke-dasharray: 1.85,0.8; stroke-dashoffset: 0; stroke: #000000; stroke-width: 0.5"/>
     </g>
     <g id="line2d_24"/>
     <g id="text_12">
      <!-- 40 -->
      <g style="fill: #262626" transform="translate(537.814062 654.957813) scale(0.1 -0.1)">
       <use xlink:href="#ArialMT-34"/>
       <use xlink:href="#ArialMT-30" x="55.615234"/>
      </g>
     </g>
    </g>
    <g id="xtick_13">
     <g id="line2d_25">
      <path d="M 578.25 640.8 
L 578.25 86.4 
" clip-path="url(#p4338def723)" style="fill: none; stroke-dasharray: 1.85,0.8; stroke-dashoffset: 0; stroke: #000000; stroke-width: 0.5"/>
     </g>
     <g id="line2d_26"/>
     <g id="text_13">
      <!-- 50 -->
      <g style="fill: #262626" transform="translate(572.689062 654.957813) scale(0.1 -0.1)">
       <use xlink:href="#ArialMT-35"/>
       <use xlink:href="#ArialMT-30" x="55.615234"/>
      </g>
     </g>
    </g>
    <g id="xtick_14">
     <g id="line2d_27">
      <path d="M 613.125 640.8 
L 613.125 86.4 
" clip-path="url(#p4338def723)" style="fill: none; stroke-dasharray: 1.85,0.8; stroke-dashoffset: 0; stroke: #000000; stroke-width: 0.5"/>
     </g>
     <g id="line2d_28"/>
     <g id="text_14">
      <!-- 60 -->
      <g style="fill: #262626" transform="translate(607.564062 654.957813) scale(0.1 -0.1)">
       <use xlink:href="#ArialMT-36"/>
       <use xlink:href="#ArialMT-30" x="55.615234"/>
      </g>
     </g>
    </g>
    <g id="xtick_15">
     <g id="line2d_29">
      <path d="M 648 640.8 
L 648 86.4 
" clip-path="url(#p4338def723)" style="fill: none; stroke-dasharray: 1.85,0.8; stroke-dashoffset: 0; stroke: #000000; stroke-width: 0.5"/>
     </g>
     <g id="line2d_30"/>
     <g id="text_15">
      <!-- 70 -->
      <g style="fill: #262626" transform="translate(642.439062 654.957813) scale(0.1 -0.1)">
       <use xlink:href="#ArialMT-37"/>
       <use xlink:href="#ArialMT-30" x="55.615234"/>
      </g>
     </g>
    </g>
   </g>
   <g id="matplotlib.axis_2">
    <g id="ytick_1">
     <g id="line2d_31">
      <path d="M 90 117.2 
L 648 117.2 
" clip-path="url(#p4338def723)" style="fill: none; stroke-dasharray: 1.85,0.8; stroke-dashoffset: 0; stroke: #000000; stroke-width: 0.5"/>
     </g>
     <g id="line2d_32"/>
     <g id="text_16">
      <!-- ${E_x}^{FBG-SNN}$ -->
      <g style="fill: #262626" transform="translate(34.1 121.60625) scale(0.1 -0.1)">
       <defs>
        <path id="DejaVuSans-Oblique-45" d="M 1081 4666 
L 4031 4666 
L 3928 4134 
L 1606 4134 
L 1338 2753 
L 3566 2753 
L 3463 2222 
L 1234 2222 
L 909 531 
L 3284 531 
L 3181 0 
L 172 0 
L 1081 4666 
z
" transform="scale(0.015625)"/>
        <path id="DejaVuSans-Oblique-78" d="M 3841 3500 
L 2234 1784 
L 3219 0 
L 2559 0 
L 1819 1388 
L 531 0 
L -166 0 
L 1556 1844 
L 641 3500 
L 1300 3500 
L 1972 2234 
L 3144 3500 
L 3841 3500 
z
" transform="scale(0.015625)"/>
        <path id="DejaVuSans-Oblique-46" d="M 1081 4666 
L 3756 4666 
L 3653 4134 
L 1606 4134 
L 1338 2759 
L 3188 2759 
L 3084 2228 
L 1234 2228 
L 800 0 
L 172 0 
L 1081 4666 
z
" transform="scale(0.015625)"/>
        <path id="DejaVuSans-Oblique-42" d="M 1081 4666 
L 2694 4666 
Q 3350 4666 3675 4422 
Q 4000 4178 4000 3688 
Q 4000 3238 3720 2911 
Q 3441 2584 2988 2516 
Q 3375 2428 3569 2181 
Q 3763 1934 3763 1522 
Q 3763 819 3242 409 
Q 2722 0 1819 0 
L 172 0 
L 1081 4666 
z
M 1234 2228 
L 903 519 
L 1919 519 
Q 2491 519 2800 781 
Q 3109 1044 3109 1522 
Q 3109 1891 2904 2059 
Q 2700 2228 2247 2228 
L 1234 2228 
z
M 1606 4147 
L 1331 2741 
L 2272 2741 
Q 2775 2741 3058 2959 
Q 3341 3178 3341 3566 
Q 3341 3869 3150 4008 
Q 2959 4147 2541 4147 
L 1606 4147 
z
" transform="scale(0.015625)"/>
        <path id="DejaVuSans-Oblique-47" d="M 3494 697 
L 3738 1919 
L 2700 1919 
L 2797 2438 
L 4453 2438 
L 4050 384 
Q 3634 156 3143 32 
Q 2653 -91 2156 -91 
Q 1278 -91 783 396 
Q 288 884 288 1753 
Q 288 2475 589 3126 
Q 891 3778 1422 4213 
Q 1756 4484 2153 4617 
Q 2550 4750 3034 4750 
Q 3472 4750 3873 4639 
Q 4275 4528 4641 4306 
L 4513 3634 
Q 4231 3928 3853 4083 
Q 3475 4238 3047 4238 
Q 2550 4238 2172 4048 
Q 1794 3859 1497 3463 
Q 1244 3125 1098 2667 
Q 953 2209 953 1734 
Q 953 1081 1287 751 
Q 1622 422 2284 422 
Q 2616 422 2925 492 
Q 3234 563 3494 697 
z
" transform="scale(0.015625)"/>
        <path id="DejaVuSans-2212" d="M 678 2272 
L 4684 2272 
L 4684 1741 
L 678 1741 
L 678 2272 
z
" transform="scale(0.015625)"/>
        <path id="DejaVuSans-Oblique-53" d="M 3859 4513 
L 3738 3897 
Q 3422 4066 3111 4152 
Q 2800 4238 2509 4238 
Q 1944 4238 1609 3991 
Q 1275 3744 1275 3334 
Q 1275 3109 1398 2989 
Q 1522 2869 2034 2731 
L 2413 2638 
Q 3053 2472 3303 2217 
Q 3553 1963 3553 1503 
Q 3553 797 2998 353 
Q 2444 -91 1538 -91 
Q 1166 -91 791 -17 
Q 416 56 38 206 
L 166 856 
Q 513 641 861 531 
Q 1209 422 1556 422 
Q 2147 422 2503 684 
Q 2859 947 2859 1369 
Q 2859 1650 2717 1795 
Q 2575 1941 2106 2059 
L 1728 2156 
Q 1081 2325 845 2545 
Q 609 2766 609 3163 
Q 609 3859 1145 4304 
Q 1681 4750 2541 4750 
Q 2875 4750 3203 4690 
Q 3531 4631 3859 4513 
z
" transform="scale(0.015625)"/>
        <path id="DejaVuSans-Oblique-4e" d="M 1081 4666 
L 1931 4666 
L 3219 666 
L 4000 4666 
L 4616 4666 
L 3706 0 
L 2853 0 
L 1569 4025 
L 788 0 
L 172 0 
L 1081 4666 
z
" transform="scale(0.015625)"/>
       </defs>
       <use xlink:href="#DejaVuSans-Oblique-45" transform="translate(0 0.765625)"/>
       <use xlink:href="#DejaVuSans-Oblique-78" transform="translate(63.183594 -15.640625) scale(0.7)"/>
       <use xlink:href="#DejaVuSans-Oblique-46" transform="translate(108.300781 39.046875) scale(0.7)"/>
       <use xlink:href="#DejaVuSans-Oblique-42" transform="translate(148.564453 39.046875) scale(0.7)"/>
       <use xlink:href="#DejaVuSans-Oblique-47" transform="translate(196.586914 39.046875) scale(0.7)"/>
       <use xlink:href="#DejaVuSans-2212" transform="translate(264.467773 39.046875) scale(0.7)"/>
       <use xlink:href="#DejaVuSans-Oblique-53" transform="translate(336.757812 39.046875) scale(0.7)"/>
       <use xlink:href="#DejaVuSans-Oblique-4e" transform="translate(381.191406 39.046875) scale(0.7)"/>
       <use xlink:href="#DejaVuSans-Oblique-4e" transform="translate(433.554688 39.046875) scale(0.7)"/>
      </g>
     </g>
    </g>
    <g id="ytick_2">
     <g id="line2d_33">
      <path d="M 90 178.8 
L 648 178.8 
" clip-path="url(#p4338def723)" style="fill: none; stroke-dasharray: 1.85,0.8; stroke-dashoffset: 0; stroke: #000000; stroke-width: 0.5"/>
     </g>
     <g id="line2d_34"/>
     <g id="text_17">
      <!-- ${E_y}^{FBG-SNN}$ -->
      <g style="fill: #262626" transform="translate(34.1 183.35) scale(0.1 -0.1)">
       <defs>
        <path id="DejaVuSans-Oblique-79" d="M 1588 -325 
Q 1188 -997 936 -1164 
Q 684 -1331 294 -1331 
L -159 -1331 
L -63 -850 
L 269 -850 
Q 509 -850 678 -719 
Q 847 -588 1056 -206 
L 1234 128 
L 459 3500 
L 1069 3500 
L 1650 819 
L 3256 3500 
L 3859 3500 
L 1588 -325 
z
" transform="scale(0.015625)"/>
       </defs>
       <use xlink:href="#DejaVuSans-Oblique-45" transform="translate(0 0.765625)"/>
       <use xlink:href="#DejaVuSans-Oblique-79" transform="translate(63.183594 -15.640625) scale(0.7)"/>
       <use xlink:href="#DejaVuSans-Oblique-46" transform="translate(108.300781 39.046875) scale(0.7)"/>
       <use xlink:href="#DejaVuSans-Oblique-42" transform="translate(148.564453 39.046875) scale(0.7)"/>
       <use xlink:href="#DejaVuSans-Oblique-47" transform="translate(196.586914 39.046875) scale(0.7)"/>
       <use xlink:href="#DejaVuSans-2212" transform="translate(264.467773 39.046875) scale(0.7)"/>
       <use xlink:href="#DejaVuSans-Oblique-53" transform="translate(336.757812 39.046875) scale(0.7)"/>
       <use xlink:href="#DejaVuSans-Oblique-4e" transform="translate(381.191406 39.046875) scale(0.7)"/>
       <use xlink:href="#DejaVuSans-Oblique-4e" transform="translate(433.554688 39.046875) scale(0.7)"/>
      </g>
     </g>
    </g>
    <g id="ytick_3">
     <g id="line2d_35">
      <path d="M 90 240.4 
L 648 240.4 
" clip-path="url(#p4338def723)" style="fill: none; stroke-dasharray: 1.85,0.8; stroke-dashoffset: 0; stroke: #000000; stroke-width: 0.5"/>
     </g>
     <g id="line2d_36"/>
     <g id="text_18">
      <!-- ${E_z}^{FBG-SNN}$ -->
      <g style="fill: #262626" transform="translate(34.6 244.80625) scale(0.1 -0.1)">
       <defs>
        <path id="DejaVuSans-Oblique-7a" d="M 744 3500 
L 3475 3500 
L 3372 2975 
L 738 459 
L 2913 459 
L 2822 0 
L -19 0 
L 84 525 
L 2719 3041 
L 653 3041 
L 744 3500 
z
" transform="scale(0.015625)"/>
       </defs>
       <use xlink:href="#DejaVuSans-Oblique-45" transform="translate(0 0.765625)"/>
       <use xlink:href="#DejaVuSans-Oblique-7a" transform="translate(63.183594 -15.640625) scale(0.7)"/>
       <use xlink:href="#DejaVuSans-Oblique-46" transform="translate(103.618164 39.046875) scale(0.7)"/>
       <use xlink:href="#DejaVuSans-Oblique-42" transform="translate(143.881836 39.046875) scale(0.7)"/>
       <use xlink:href="#DejaVuSans-Oblique-47" transform="translate(191.904297 39.046875) scale(0.7)"/>
       <use xlink:href="#DejaVuSans-2212" transform="translate(259.785156 39.046875) scale(0.7)"/>
       <use xlink:href="#DejaVuSans-Oblique-53" transform="translate(332.075195 39.046875) scale(0.7)"/>
       <use xlink:href="#DejaVuSans-Oblique-4e" transform="translate(376.508789 39.046875) scale(0.7)"/>
       <use xlink:href="#DejaVuSans-Oblique-4e" transform="translate(428.87207 39.046875) scale(0.7)"/>
      </g>
     </g>
    </g>
    <g id="ytick_4">
     <g id="line2d_37">
      <path d="M 90 302 
L 648 302 
" clip-path="url(#p4338def723)" style="fill: none; stroke-dasharray: 1.85,0.8; stroke-dashoffset: 0; stroke: #000000; stroke-width: 0.5"/>
     </g>
     <g id="line2d_38"/>
     <g id="text_19">
      <!-- ${E_x}^{SNN-FHD}$ -->
      <g style="fill: #262626" transform="translate(33.7 306.40625) scale(0.1 -0.1)">
       <defs>
        <path id="DejaVuSans-Oblique-48" d="M 1081 4666 
L 1716 4666 
L 1344 2753 
L 3634 2753 
L 4006 4666 
L 4641 4666 
L 3731 0 
L 3097 0 
L 3531 2222 
L 1241 2222 
L 806 0 
L 172 0 
L 1081 4666 
z
" transform="scale(0.015625)"/>
        <path id="DejaVuSans-Oblique-44" d="M 1081 4666 
L 2438 4666 
Q 3519 4666 4070 4208 
Q 4622 3750 4622 2847 
Q 4622 2250 4412 1698 
Q 4203 1147 3834 769 
Q 3463 381 2891 190 
Q 2319 0 1538 0 
L 172 0 
L 1081 4666 
z
M 1613 4147 
L 909 519 
L 1734 519 
Q 2794 519 3375 1128 
Q 3956 1738 3956 2847 
Q 3956 3519 3581 3833 
Q 3206 4147 2406 4147 
L 1613 4147 
z
" transform="scale(0.015625)"/>
       </defs>
       <use xlink:href="#DejaVuSans-Oblique-45" transform="translate(0 0.765625)"/>
       <use xlink:href="#DejaVuSans-Oblique-78" transform="translate(63.183594 -15.640625) scale(0.7)"/>
       <use xlink:href="#DejaVuSans-Oblique-53" transform="translate(108.300781 39.046875) scale(0.7)"/>
       <use xlink:href="#DejaVuSans-Oblique-4e" transform="translate(152.734375 39.046875) scale(0.7)"/>
       <use xlink:href="#DejaVuSans-Oblique-4e" transform="translate(205.097656 39.046875) scale(0.7)"/>
       <use xlink:href="#DejaVuSans-2212" transform="translate(271.098633 39.046875) scale(0.7)"/>
       <use xlink:href="#DejaVuSans-Oblique-46" transform="translate(343.388672 39.046875) scale(0.7)"/>
       <use xlink:href="#DejaVuSans-Oblique-48" transform="translate(383.652344 39.046875) scale(0.7)"/>
       <use xlink:href="#DejaVuSans-Oblique-44" transform="translate(436.289062 39.046875) scale(0.7)"/>
      </g>
     </g>
    </g>
    <g id="ytick_5">
     <g id="line2d_39">
      <path d="M 90 363.6 
L 648 363.6 
" clip-path="url(#p4338def723)" style="fill: none; stroke-dasharray: 1.85,0.8; stroke-dashoffset: 0; stroke: #000000; stroke-width: 0.5"/>
     </g>
     <g id="line2d_40"/>
     <g id="text_20">
      <!-- ${E_y}^{SNN-FHD}$ -->
      <g style="fill: #262626" transform="translate(33.7 368.15) scale(0.1 -0.1)">
       <use xlink:href="#DejaVuSans-Oblique-45" transform="translate(0 0.765625)"/>
       <use xlink:href="#DejaVuSans-Oblique-79" transform="translate(63.183594 -15.640625) scale(0.7)"/>
       <use xlink:href="#DejaVuSans-Oblique-53" transform="translate(108.300781 39.046875) scale(0.7)"/>
       <use xlink:href="#DejaVuSans-Oblique-4e" transform="translate(152.734375 39.046875) scale(0.7)"/>
       <use xlink:href="#DejaVuSans-Oblique-4e" transform="translate(205.097656 39.046875) scale(0.7)"/>
       <use xlink:href="#DejaVuSans-2212" transform="translate(271.098633 39.046875) scale(0.7)"/>
       <use xlink:href="#DejaVuSans-Oblique-46" transform="translate(343.388672 39.046875) scale(0.7)"/>
       <use xlink:href="#DejaVuSans-Oblique-48" transform="translate(383.652344 39.046875) scale(0.7)"/>
       <use xlink:href="#DejaVuSans-Oblique-44" transform="translate(436.289062 39.046875) scale(0.7)"/>
      </g>
     </g>
    </g>
    <g id="ytick_6">
     <g id="line2d_41">
      <path d="M 90 425.2 
L 648 425.2 
" clip-path="url(#p4338def723)" style="fill: none; stroke-dasharray: 1.85,0.8; stroke-dashoffset: 0; stroke: #000000; stroke-width: 0.5"/>
     </g>
     <g id="line2d_42"/>
     <g id="text_21">
      <!-- ${E_z}^{SNN-FHD}$ -->
      <g style="fill: #262626" transform="translate(34.1 429.60625) scale(0.1 -0.1)">
       <use xlink:href="#DejaVuSans-Oblique-45" transform="translate(0 0.765625)"/>
       <use xlink:href="#DejaVuSans-Oblique-7a" transform="translate(63.183594 -15.640625) scale(0.7)"/>
       <use xlink:href="#DejaVuSans-Oblique-53" transform="translate(103.618164 39.046875) scale(0.7)"/>
       <use xlink:href="#DejaVuSans-Oblique-4e" transform="translate(148.051758 39.046875) scale(0.7)"/>
       <use xlink:href="#DejaVuSans-Oblique-4e" transform="translate(200.415039 39.046875) scale(0.7)"/>
       <use xlink:href="#DejaVuSans-2212" transform="translate(266.416016 39.046875) scale(0.7)"/>
       <use xlink:href="#DejaVuSans-Oblique-46" transform="translate(338.706055 39.046875) scale(0.7)"/>
       <use xlink:href="#DejaVuSans-Oblique-48" transform="translate(378.969727 39.046875) scale(0.7)"/>
       <use xlink:href="#DejaVuSans-Oblique-44" transform="translate(431.606445 39.046875) scale(0.7)"/>
      </g>
     </g>
    </g>
    <g id="ytick_7">
     <g id="line2d_43">
      <path d="M 90 486.8 
L 648 486.8 
" clip-path="url(#p4338def723)" style="fill: none; stroke-dasharray: 1.85,0.8; stroke-dashoffset: 0; stroke: #000000; stroke-width: 0.5"/>
     </g>
     <g id="line2d_44"/>
     <g id="text_22">
      <!-- ${E_x}^{FBG-FHD}$ -->
      <g style="fill: #262626" transform="translate(34.3 491.20625) scale(0.1 -0.1)">
       <use xlink:href="#DejaVuSans-Oblique-45" transform="translate(0 0.765625)"/>
       <use xlink:href="#DejaVuSans-Oblique-78" transform="translate(63.183594 -15.640625) scale(0.7)"/>
       <use xlink:href="#DejaVuSans-Oblique-46" transform="translate(108.300781 39.046875) scale(0.7)"/>
       <use xlink:href="#DejaVuSans-Oblique-42" transform="translate(148.564453 39.046875) scale(0.7)"/>
       <use xlink:href="#DejaVuSans-Oblique-47" transform="translate(196.586914 39.046875) scale(0.7)"/>
       <use xlink:href="#DejaVuSans-2212" transform="translate(264.467773 39.046875) scale(0.7)"/>
       <use xlink:href="#DejaVuSans-Oblique-46" transform="translate(336.757812 39.046875) scale(0.7)"/>
       <use xlink:href="#DejaVuSans-Oblique-48" transform="translate(377.021484 39.046875) scale(0.7)"/>
       <use xlink:href="#DejaVuSans-Oblique-44" transform="translate(429.658203 39.046875) scale(0.7)"/>
      </g>
     </g>
    </g>
    <g id="ytick_8">
     <g id="line2d_45">
      <path d="M 90 548.4 
L 648 548.4 
" clip-path="url(#p4338def723)" style="fill: none; stroke-dasharray: 1.85,0.8; stroke-dashoffset: 0; stroke: #000000; stroke-width: 0.5"/>
     </g>
     <g id="line2d_46"/>
     <g id="text_23">
      <!-- ${E_y}^{FBG-FHD}$ -->
      <g style="fill: #262626" transform="translate(34.3 552.95) scale(0.1 -0.1)">
       <use xlink:href="#DejaVuSans-Oblique-45" transform="translate(0 0.765625)"/>
       <use xlink:href="#DejaVuSans-Oblique-79" transform="translate(63.183594 -15.640625) scale(0.7)"/>
       <use xlink:href="#DejaVuSans-Oblique-46" transform="translate(108.300781 39.046875) scale(0.7)"/>
       <use xlink:href="#DejaVuSans-Oblique-42" transform="translate(148.564453 39.046875) scale(0.7)"/>
       <use xlink:href="#DejaVuSans-Oblique-47" transform="translate(196.586914 39.046875) scale(0.7)"/>
       <use xlink:href="#DejaVuSans-2212" transform="translate(264.467773 39.046875) scale(0.7)"/>
       <use xlink:href="#DejaVuSans-Oblique-46" transform="translate(336.757812 39.046875) scale(0.7)"/>
       <use xlink:href="#DejaVuSans-Oblique-48" transform="translate(377.021484 39.046875) scale(0.7)"/>
       <use xlink:href="#DejaVuSans-Oblique-44" transform="translate(429.658203 39.046875) scale(0.7)"/>
      </g>
     </g>
    </g>
    <g id="ytick_9">
     <g id="line2d_47">
      <path d="M 90 610 
L 648 610 
" clip-path="url(#p4338def723)" style="fill: none; stroke-dasharray: 1.85,0.8; stroke-dashoffset: 0; stroke: #000000; stroke-width: 0.5"/>
     </g>
     <g id="line2d_48"/>
     <g id="text_24">
      <!-- ${E_z}^{FBG-FHD}$ -->
      <g style="fill: #262626" transform="translate(34.8 614.40625) scale(0.1 -0.1)">
       <use xlink:href="#DejaVuSans-Oblique-45" transform="translate(0 0.765625)"/>
       <use xlink:href="#DejaVuSans-Oblique-7a" transform="translate(63.183594 -15.640625) scale(0.7)"/>
       <use xlink:href="#DejaVuSans-Oblique-46" transform="translate(103.618164 39.046875) scale(0.7)"/>
       <use xlink:href="#DejaVuSans-Oblique-42" transform="translate(143.881836 39.046875) scale(0.7)"/>
       <use xlink:href="#DejaVuSans-Oblique-47" transform="translate(191.904297 39.046875) scale(0.7)"/>
       <use xlink:href="#DejaVuSans-2212" transform="translate(259.785156 39.046875) scale(0.7)"/>
       <use xlink:href="#DejaVuSans-Oblique-46" transform="translate(332.075195 39.046875) scale(0.7)"/>
       <use xlink:href="#DejaVuSans-Oblique-48" transform="translate(372.338867 39.046875) scale(0.7)"/>
       <use xlink:href="#DejaVuSans-Oblique-44" transform="translate(424.975586 39.046875) scale(0.7)"/>
      </g>
     </g>
    </g>
   </g>
   <g id="PolyCollection_1">
    <defs>
     <path id="m4f725852de" d="M 323.326778 -602.759412 
L 323.326778 -602.840588 
L 324.696504 -602.868834 
L 326.066231 -602.911739 
L 327.435957 -602.973795 
L 328.805683 -603.059239 
L 330.175409 -603.171154 
L 331.545136 -603.310381 
L 332.914862 -603.474452 
L 334.284588 -603.656785 
L 335.654314 -603.846477 
L 337.024041 -604.02895 
L 338.393767 -604.187569 
L 339.763493 -604.306082 
L 341.133219 -604.371466 
L 342.502946 -604.376507 
L 343.872672 -604.321412 
L 345.242398 -604.214003 
L 346.612124 -604.068408 
L 347.981851 -603.902697 
L 349.351577 -603.736168 
L 350.721303 -603.587037 
L 352.091029 -603.470961 
L 353.460756 -603.400405 
L 354.830482 -603.384529 
L 356.200208 -603.429155 
L 357.569935 -603.536573 
L 358.939661 -603.705301 
L 360.309387 -603.930178 
L 361.679113 -604.203174 
L 363.04884 -604.515002 
L 364.418566 -604.857141 
L 365.788292 -605.223494 
L 367.158018 -605.610925 
L 368.527745 -606.018394 
L 369.897471 -606.445112 
L 371.267197 -606.888712 
L 372.636923 -607.344491 
L 374.00665 -607.806198 
L 375.376376 -608.268012 
L 376.746102 -608.72667 
L 378.115828 -609.182663 
L 379.485555 -609.640027 
L 380.855281 -610.105202 
L 382.225007 -610.586101 
L 383.594733 -611.092575 
L 384.96446 -611.638669 
L 386.334186 -612.245907 
L 387.703912 -612.945731 
L 389.073638 -613.778841 
L 390.443365 -614.789709 
L 391.813091 -616.015924 
L 393.182817 -617.473935 
L 394.552544 -619.144529 
L 395.92227 -620.962479 
L 397.291996 -622.814682 
L 398.661722 -624.549572 
L 400.031449 -625.997769 
L 401.401175 -627.000569 
L 402.770901 -627.44 
L 404.140627 -627.262907 
L 405.510354 -626.492532 
L 406.88008 -625.224208 
L 408.249806 -623.606126 
L 409.619532 -621.81026 
L 410.989259 -620.001023 
L 412.358985 -618.309378 
L 413.728711 -616.817838 
L 415.098437 -615.558163 
L 416.468164 -614.519738 
L 417.83789 -613.664044 
L 419.207616 -612.940062 
L 420.577342 -612.296673 
L 421.947069 -611.6904 
L 423.316795 -611.088949 
L 424.686521 -610.472113 
L 426.056247 -609.831523 
L 427.425974 -609.169911 
L 428.7957 -608.499673 
L 430.165426 -607.840268 
L 431.535153 -607.214314 
L 432.904879 -606.642956 
L 434.274605 -606.141612 
L 435.644331 -605.717246 
L 437.014058 -605.367792 
L 438.383784 -605.083653 
L 439.75351 -604.850514 
L 441.123236 -604.652508 
L 442.492963 -604.474921 
L 443.862689 -604.306047 
L 445.232415 -604.138157 
L 446.602141 -603.967758 
L 447.971868 -603.795298 
L 449.341594 -603.624399 
L 450.71132 -603.46068 
L 452.081046 -603.310332 
L 453.450773 -603.178707 
L 454.820499 -603.069249 
L 456.190225 -602.982986 
L 457.559951 -602.918657 
L 458.929678 -602.873305 
L 458.929678 -602.726695 
L 458.929678 -602.726695 
L 457.559951 -602.681343 
L 456.190225 -602.617014 
L 454.820499 -602.530751 
L 453.450773 -602.421293 
L 452.081046 -602.289668 
L 450.71132 -602.13932 
L 449.341594 -601.975601 
L 447.971868 -601.804702 
L 446.602141 -601.632242 
L 445.232415 -601.461843 
L 443.862689 -601.293953 
L 442.492963 -601.125079 
L 441.123236 -600.947492 
L 439.75351 -600.749486 
L 438.383784 -600.516347 
L 437.014058 -600.232208 
L 435.644331 -599.882754 
L 434.274605 -599.458388 
L 432.904879 -598.957044 
L 431.535153 -598.385686 
L 430.165426 -597.759732 
L 428.7957 -597.100327 
L 427.425974 -596.430089 
L 426.056247 -595.768477 
L 424.686521 -595.127887 
L 423.316795 -594.511051 
L 421.947069 -593.9096 
L 420.577342 -593.303327 
L 419.207616 -592.659938 
L 417.83789 -591.935956 
L 416.468164 -591.080262 
L 415.098437 -590.041837 
L 413.728711 -588.782162 
L 412.358985 -587.290622 
L 410.989259 -585.598977 
L 409.619532 -583.78974 
L 408.249806 -581.993874 
L 406.88008 -580.375792 
L 405.510354 -579.107468 
L 404.140627 -578.337093 
L 402.770901 -578.16 
L 401.401175 -578.599431 
L 400.031449 -579.602231 
L 398.661722 -581.050428 
L 397.291996 -582.785318 
L 395.92227 -584.637521 
L 394.552544 -586.455471 
L 393.182817 -588.126065 
L 391.813091 -589.584076 
L 390.443365 -590.810291 
L 389.073638 -591.821159 
L 387.703912 -592.654269 
L 386.334186 -593.354093 
L 384.96446 -593.961331 
L 383.594733 -594.507425 
L 382.225007 -595.013899 
L 380.855281 -595.494798 
L 379.485555 -595.959973 
L 378.115828 -596.417337 
L 376.746102 -596.87333 
L 375.376376 -597.331988 
L 374.00665 -597.793802 
L 372.636923 -598.255509 
L 371.267197 -598.711288 
L 369.897471 -599.154888 
L 368.527745 -599.581606 
L 367.158018 -599.989075 
L 365.788292 -600.376506 
L 364.418566 -600.742859 
L 363.04884 -601.084998 
L 361.679113 -601.396826 
L 360.309387 -601.669822 
L 358.939661 -601.894699 
L 357.569935 -602.063427 
L 356.200208 -602.170845 
L 354.830482 -602.215471 
L 353.460756 -602.199595 
L 352.091029 -602.129039 
L 350.721303 -602.012963 
L 349.351577 -601.863832 
L 347.981851 -601.697303 
L 346.612124 -601.531592 
L 345.242398 -601.385997 
L 343.872672 -601.278588 
L 342.502946 -601.223493 
L 341.133219 -601.228534 
L 339.763493 -601.293918 
L 338.393767 -601.412431 
L 337.024041 -601.57105 
L 335.654314 -601.753523 
L 334.284588 -601.943215 
L 332.914862 -602.125548 
L 331.545136 -602.289619 
L 330.175409 -602.428846 
L 328.805683 -602.540761 
L 327.435957 -602.626205 
L 326.066231 -602.688261 
L 324.696504 -602.731166 
L 323.326778 -602.759412 
z
" style="stroke: #343434; stroke-opacity: 0.8; stroke-width: 0.375"/>
    </defs>
    <g clip-path="url(#p4338def723)">
     <use xlink:href="#m4f725852de" x="0" y="720" style="fill: #cae4c5; fill-opacity: 0.8; stroke: #343434; stroke-opacity: 0.8; stroke-width: 0.375"/>
    </g>
   </g>
   <g id="PolyCollection_2">
    <defs>
     <path id="m184c3f73e5" d="M 218.058617 -541.095449 
L 218.058617 -541.304551 
L 221.862757 -541.374577 
L 225.666897 -541.475709 
L 229.471037 -541.612084 
L 233.275177 -541.783339 
L 237.079317 -541.982856 
L 240.883457 -542.197289 
L 244.687597 -542.408019 
L 248.491737 -542.594526 
L 252.295877 -542.738885 
L 256.100017 -542.829954 
L 259.904157 -542.865725 
L 263.708297 -542.852943 
L 267.512437 -542.804128 
L 271.316577 -542.733239 
L 275.120717 -542.651774 
L 278.924857 -542.566899 
L 282.728997 -542.482251 
L 286.533137 -542.400858 
L 290.337277 -542.328667 
L 294.141417 -542.276885 
L 297.945556 -542.26186 
L 301.749696 -542.302257 
L 305.553836 -542.414382 
L 309.357976 -542.607295 
L 313.162116 -542.879484 
L 316.966256 -543.218428 
L 320.770396 -543.603445 
L 324.574536 -544.011221 
L 328.378676 -544.4226 
L 332.182816 -544.828899 
L 335.986956 -545.236309 
L 339.791096 -545.667546 
L 343.595236 -546.160685 
L 347.399376 -546.765467 
L 351.203516 -547.537507 
L 355.007656 -548.530675 
L 358.811796 -549.787928 
L 362.615936 -551.331181 
L 366.420076 -553.151453 
L 370.224216 -555.201208 
L 374.028356 -557.391379 
L 377.832496 -559.595429 
L 381.636635 -561.661787 
L 385.440775 -563.433932 
L 389.244915 -564.774721 
L 393.049055 -565.58927 
L 396.853195 -565.84 
L 400.657335 -565.549184 
L 404.461475 -564.788155 
L 408.265615 -563.656799 
L 412.069755 -562.260205 
L 415.873895 -560.68985 
L 419.678035 -559.014355 
L 423.482175 -557.280719 
L 427.286315 -555.522933 
L 431.090455 -553.772598 
L 434.894595 -552.066418 
L 438.698735 -550.447704 
L 442.502875 -548.962091 
L 446.307015 -547.650064 
L 450.111155 -546.539711 
L 453.915295 -545.642399 
L 457.719435 -544.952413 
L 461.523575 -544.449991 
L 465.327714 -544.106257 
L 469.131854 -543.888427 
L 472.935994 -543.764179 
L 476.740134 -543.704669 
L 480.544274 -543.686236 
L 484.348414 -543.690998 
L 488.152554 -543.706574 
L 491.956694 -543.725087 
L 495.760834 -543.741595 
L 499.564974 -543.752268 
L 503.369114 -543.752754 
L 507.173254 -543.7373 
L 510.977394 -543.698991 
L 514.781534 -543.63106 
L 518.585674 -543.528789 
L 522.389814 -543.391194 
L 526.193954 -543.221794 
L 529.998094 -543.028163 
L 533.802234 -542.820459 
L 537.606374 -542.609522 
L 541.410514 -542.405126 
L 545.214654 -542.214812 
L 549.018793 -542.043393 
L 552.822933 -541.89303 
L 556.627073 -541.763687 
L 560.431213 -541.653807 
L 564.235353 -541.561045 
L 568.039493 -541.482943 
L 571.843633 -541.417398 
L 575.647773 -541.362865 
L 579.451913 -541.318276 
L 583.256053 -541.282808 
L 587.060193 -541.255623 
L 590.864333 -541.2357 
L 594.668473 -541.221821 
L 594.668473 -541.178179 
L 594.668473 -541.178179 
L 590.864333 -541.1643 
L 587.060193 -541.144377 
L 583.256053 -541.117192 
L 579.451913 -541.081724 
L 575.647773 -541.037135 
L 571.843633 -540.982602 
L 568.039493 -540.917057 
L 564.235353 -540.838955 
L 560.431213 -540.746193 
L 556.627073 -540.636313 
L 552.822933 -540.50697 
L 549.018793 -540.356607 
L 545.214654 -540.185188 
L 541.410514 -539.994874 
L 537.606374 -539.790478 
L 533.802234 -539.579541 
L 529.998094 -539.371837 
L 526.193954 -539.178206 
L 522.389814 -539.008806 
L 518.585674 -538.871211 
L 514.781534 -538.76894 
L 510.977394 -538.701009 
L 507.173254 -538.6627 
L 503.369114 -538.647246 
L 499.564974 -538.647732 
L 495.760834 -538.658405 
L 491.956694 -538.674913 
L 488.152554 -538.693426 
L 484.348414 -538.709002 
L 480.544274 -538.713764 
L 476.740134 -538.695331 
L 472.935994 -538.635821 
L 469.131854 -538.511573 
L 465.327714 -538.293743 
L 461.523575 -537.950009 
L 457.719435 -537.447587 
L 453.915295 -536.757601 
L 450.111155 -535.860289 
L 446.307015 -534.749936 
L 442.502875 -533.437909 
L 438.698735 -531.952296 
L 434.894595 -530.333582 
L 431.090455 -528.627402 
L 427.286315 -526.877067 
L 423.482175 -525.119281 
L 419.678035 -523.385645 
L 415.873895 -521.71015 
L 412.069755 -520.139795 
L 408.265615 -518.743201 
L 404.461475 -517.611845 
L 400.657335 -516.850816 
L 396.853195 -516.56 
L 393.049055 -516.81073 
L 389.244915 -517.625279 
L 385.440775 -518.966068 
L 381.636635 -520.738213 
L 377.832496 -522.804571 
L 374.028356 -525.008621 
L 370.224216 -527.198792 
L 366.420076 -529.248547 
L 362.615936 -531.068819 
L 358.811796 -532.612072 
L 355.007656 -533.869325 
L 351.203516 -534.862493 
L 347.399376 -535.634533 
L 343.595236 -536.239315 
L 339.791096 -536.732454 
L 335.986956 -537.163691 
L 332.182816 -537.571101 
L 328.378676 -537.9774 
L 324.574536 -538.388779 
L 320.770396 -538.796555 
L 316.966256 -539.181572 
L 313.162116 -539.520516 
L 309.357976 -539.792705 
L 305.553836 -539.985618 
L 301.749696 -540.097743 
L 297.945556 -540.13814 
L 294.141417 -540.123115 
L 290.337277 -540.071333 
L 286.533137 -539.999142 
L 282.728997 -539.917749 
L 278.924857 -539.833101 
L 275.120717 -539.748226 
L 271.316577 -539.666761 
L 267.512437 -539.595872 
L 263.708297 -539.547057 
L 259.904157 -539.534275 
L 256.100017 -539.570046 
L 252.295877 -539.661115 
L 248.491737 -539.805474 
L 244.687597 -539.991981 
L 240.883457 -540.202711 
L 237.079317 -540.417144 
L 233.275177 -540.616661 
L 229.471037 -540.787916 
L 225.666897 -540.924291 
L 221.862757 -541.025423 
L 218.058617 -541.095449 
z
" style="stroke: #343434; stroke-opacity: 0.8; stroke-width: 0.375"/>
    </defs>
    <g clip-path="url(#p4338def723)">
     <use xlink:href="#m184c3f73e5" x="0" y="720" style="fill: #7dba7f; fill-opacity: 0.8; stroke: #343434; stroke-opacity: 0.8; stroke-width: 0.375"/>
    </g>
   </g>
   <g id="PolyCollection_3">
    <defs>
     <path id="m21551d83f5" d="M 351.876463 -479.482812 
L 351.876463 -479.717188 
L 352.825881 -479.783549 
L 353.7753 -479.880054 
L 354.724719 -480.016326 
L 355.674138 -480.203124 
L 356.623556 -480.451596 
L 357.572975 -480.77215 
L 358.522394 -481.172966 
L 359.471813 -481.658277 
L 360.421231 -482.226623 
L 361.37065 -482.869368 
L 362.320069 -483.56981 
L 363.269488 -484.303192 
L 364.218906 -485.037805 
L 365.168325 -485.737233 
L 366.117744 -486.363542 
L 367.067162 -486.881043 
L 368.016581 -487.260057 
L 368.966 -487.480093 
L 369.915419 -487.531915 
L 370.864837 -487.418164 
L 371.814256 -487.152502 
L 372.763675 -486.757491 
L 373.713094 -486.261686 
L 374.662512 -485.696477 
L 375.611931 -485.093217 
L 376.56135 -484.480987 
L 377.510769 -483.885167 
L 378.460187 -483.326744 
L 379.409606 -482.822176 
L 380.359025 -482.383547 
L 381.308443 -482.01882 
L 382.257862 -481.732051 
L 383.207281 -481.523592 
L 384.1567 -481.390359 
L 385.106118 -481.326296 
L 386.055537 -481.32316 
L 387.004956 -481.371671 
L 387.954375 -481.462985 
L 388.903793 -481.590369 
L 389.853212 -481.750877 
L 390.802631 -481.946785 
L 391.75205 -482.18659 
L 392.701468 -482.485349 
L 393.650887 -482.86427 
L 394.600306 -483.349469 
L 395.549725 -483.9699 
L 396.499143 -484.754517 
L 397.448562 -485.728791 
L 398.397981 -486.910777 
L 399.347399 -488.307068 
L 400.296818 -489.909062 
L 401.246237 -491.69012 
L 402.195656 -493.604202 
L 403.145074 -495.586521 
L 404.094493 -497.556539 
L 405.043912 -499.423261 
L 405.993331 -501.092391 
L 406.942749 -502.474529 
L 407.892168 -503.4933 
L 408.841587 -504.092315 
L 409.791006 -504.24 
L 410.740424 -503.931757 
L 411.689843 -503.189327 
L 412.639262 -502.057716 
L 413.58868 -500.600299 
L 414.538099 -498.892894 
L 415.487518 -497.017531 
L 416.436937 -495.056525 
L 417.386355 -493.087266 
L 418.335774 -491.178001 
L 419.285193 -489.384741 
L 420.234612 -487.749388 
L 421.18403 -486.29908 
L 422.133449 -485.046707 
L 423.082868 -483.99246 
L 424.032287 -483.126158 
L 424.981705 -482.430057 
L 425.931124 -481.881765 
L 426.880543 -481.456951 
L 427.829961 -481.131587 
L 428.77938 -480.883568 
L 429.728799 -480.693704 
L 430.678218 -480.546134 
L 431.627636 -480.42832 
L 432.577055 -480.330763 
L 433.526474 -480.246584 
L 434.475893 -480.171073 
L 435.425311 -480.101267 
L 436.37473 -480.035563 
L 437.324149 -479.973378 
L 438.273568 -479.914832 
L 439.222986 -479.860466 
L 440.172405 -479.810979 
L 441.121824 -479.767019 
L 442.071243 -479.729027 
L 443.020661 -479.697149 
L 443.97008 -479.671217 
L 444.919499 -479.650788 
L 445.868917 -479.635208 
L 445.868917 -479.564792 
L 445.868917 -479.564792 
L 444.919499 -479.549212 
L 443.97008 -479.528783 
L 443.020661 -479.502851 
L 442.071243 -479.470973 
L 441.121824 -479.432981 
L 440.172405 -479.389021 
L 439.222986 -479.339534 
L 438.273568 -479.285168 
L 437.324149 -479.226622 
L 436.37473 -479.164437 
L 435.425311 -479.098733 
L 434.475893 -479.028927 
L 433.526474 -478.953416 
L 432.577055 -478.869237 
L 431.627636 -478.77168 
L 430.678218 -478.653866 
L 429.728799 -478.506296 
L 428.77938 -478.316432 
L 427.829961 -478.068413 
L 426.880543 -477.743049 
L 425.931124 -477.318235 
L 424.981705 -476.769943 
L 424.032287 -476.073842 
L 423.082868 -475.20754 
L 422.133449 -474.153293 
L 421.18403 -472.90092 
L 420.234612 -471.450612 
L 419.285193 -469.815259 
L 418.335774 -468.021999 
L 417.386355 -466.112734 
L 416.436937 -464.143475 
L 415.487518 -462.182469 
L 414.538099 -460.307106 
L 413.58868 -458.599701 
L 412.639262 -457.142284 
L 411.689843 -456.010673 
L 410.740424 -455.268243 
L 409.791006 -454.96 
L 408.841587 -455.107685 
L 407.892168 -455.7067 
L 406.942749 -456.725471 
L 405.993331 -458.107609 
L 405.043912 -459.776739 
L 404.094493 -461.643461 
L 403.145074 -463.613479 
L 402.195656 -465.595798 
L 401.246237 -467.50988 
L 400.296818 -469.290938 
L 399.347399 -470.892932 
L 398.397981 -472.289223 
L 397.448562 -473.471209 
L 396.499143 -474.445483 
L 395.549725 -475.2301 
L 394.600306 -475.850531 
L 393.650887 -476.33573 
L 392.701468 -476.714651 
L 391.75205 -477.01341 
L 390.802631 -477.253215 
L 389.853212 -477.449123 
L 388.903793 -477.609631 
L 387.954375 -477.737015 
L 387.004956 -477.828329 
L 386.055537 -477.87684 
L 385.106118 -477.873704 
L 384.1567 -477.809641 
L 383.207281 -477.676408 
L 382.257862 -477.467949 
L 381.308443 -477.18118 
L 380.359025 -476.816453 
L 379.409606 -476.377824 
L 378.460187 -475.873256 
L 377.510769 -475.314833 
L 376.56135 -474.719013 
L 375.611931 -474.106783 
L 374.662512 -473.503523 
L 373.713094 -472.938314 
L 372.763675 -472.442509 
L 371.814256 -472.047498 
L 370.864837 -471.781836 
L 369.915419 -471.668085 
L 368.966 -471.719907 
L 368.016581 -471.939943 
L 367.067162 -472.318957 
L 366.117744 -472.836458 
L 365.168325 -473.462767 
L 364.218906 -474.162195 
L 363.269488 -474.896808 
L 362.320069 -475.63019 
L 361.37065 -476.330632 
L 360.421231 -476.973377 
L 359.471813 -477.541723 
L 358.522394 -478.027034 
L 357.572975 -478.42785 
L 356.623556 -478.748404 
L 355.674138 -478.996876 
L 354.724719 -479.183674 
L 353.7753 -479.319946 
L 352.825881 -479.416451 
L 351.876463 -479.482812 
z
" style="stroke: #343434; stroke-opacity: 0.8; stroke-width: 0.375"/>
    </defs>
    <g clip-path="url(#p4338def723)">
     <use xlink:href="#m21551d83f5" x="0" y="720" style="fill: #2f7d49; fill-opacity: 0.8; stroke: #343434; stroke-opacity: 0.8; stroke-width: 0.375"/>
    </g>
   </g>
   <g id="PolyCollection_4">
    <defs>
     <path id="mad5121e19c" d="M 301.819599 -417.970941 
L 301.819599 -418.029059 
L 303.991985 -418.04732 
L 306.164372 -418.072407 
L 308.336759 -418.104324 
L 310.509146 -418.141981 
L 312.681533 -418.183379 
L 314.85392 -418.226296 
L 317.026307 -418.269291 
L 319.198693 -418.312625 
L 321.37108 -418.358641 
L 323.543467 -418.411394 
L 325.715854 -418.475729 
L 327.888241 -418.556378 
L 330.060628 -418.657687 
L 332.233015 -418.78424 
L 334.405402 -418.942047 
L 336.577788 -419.139462 
L 338.750175 -419.386945 
L 340.922562 -419.695209 
L 343.094949 -420.072096 
L 345.267336 -420.519356 
L 347.439723 -421.03086 
L 349.61211 -421.593459 
L 351.784496 -422.190696 
L 353.956883 -422.808262 
L 356.12927 -423.439243 
L 358.301657 -424.087233 
L 360.474044 -424.766317 
L 362.646431 -425.498251 
L 364.818818 -426.307947 
L 366.991204 -427.218423 
L 369.163591 -428.245859 
L 371.335978 -429.395128 
L 373.508365 -430.656433 
L 375.680752 -432.0043 
L 377.853139 -433.40019 
L 380.025526 -434.798916 
L 382.197912 -436.157075 
L 384.370299 -437.440111 
L 386.542686 -438.624715 
L 388.715073 -439.695394 
L 390.88746 -440.63728 
L 393.059847 -441.429704 
L 395.232234 -442.045038 
L 397.404621 -442.454695 
L 399.577007 -442.64 
L 401.749394 -442.602424 
L 403.921781 -442.367102 
L 406.094168 -441.976405 
L 408.266555 -441.475285 
L 410.438942 -440.894714 
L 412.611329 -440.241137 
L 414.783715 -439.49738 
L 416.956102 -438.635019 
L 419.128489 -437.632559 
L 421.300876 -436.491109 
L 423.473263 -435.240674 
L 425.64565 -433.934937 
L 427.818037 -432.63763 
L 429.990423 -431.406732 
L 432.16281 -430.282473 
L 434.335197 -429.282364 
L 436.507584 -428.402918 
L 438.679971 -427.625474 
L 440.852358 -426.923218 
L 443.024745 -426.26764 
L 445.197131 -425.63396 
L 447.369518 -425.005461 
L 449.541905 -424.376253 
L 451.714292 -423.751445 
L 453.886679 -423.144111 
L 456.059066 -422.569723 
L 458.231453 -422.040199 
L 460.40384 -421.560101 
L 462.576226 -421.126542 
L 464.748613 -420.73235 
L 466.921 -420.370465 
L 469.093387 -420.037165 
L 471.265774 -419.732792 
L 473.438161 -419.460235 
L 475.610548 -419.222592 
L 477.782934 -419.021484 
L 479.955321 -418.856674 
L 482.127708 -418.726594 
L 484.300095 -418.628914 
L 486.472482 -418.560484 
L 488.644869 -418.516725 
L 490.817256 -418.491076 
L 492.989642 -418.475183 
L 495.162029 -418.460102 
L 497.334416 -418.438136 
L 499.506803 -418.40457 
L 501.67919 -418.35858 
L 503.851577 -418.302978 
L 506.023964 -418.242954 
L 508.19635 -418.184352 
L 510.368737 -418.132104 
L 512.541124 -418.089271 
L 514.713511 -418.056827 
L 516.885898 -418.034048 
L 516.885898 -417.965952 
L 516.885898 -417.965952 
L 514.713511 -417.943173 
L 512.541124 -417.910729 
L 510.368737 -417.867896 
L 508.19635 -417.815648 
L 506.023964 -417.757046 
L 503.851577 -417.697022 
L 501.67919 -417.64142 
L 499.506803 -417.59543 
L 497.334416 -417.561864 
L 495.162029 -417.539898 
L 492.989642 -417.524817 
L 490.817256 -417.508924 
L 488.644869 -417.483275 
L 486.472482 -417.439516 
L 484.300095 -417.371086 
L 482.127708 -417.273406 
L 479.955321 -417.143326 
L 477.782934 -416.978516 
L 475.610548 -416.777408 
L 473.438161 -416.539765 
L 471.265774 -416.267208 
L 469.093387 -415.962835 
L 466.921 -415.629535 
L 464.748613 -415.26765 
L 462.576226 -414.873458 
L 460.40384 -414.439899 
L 458.231453 -413.959801 
L 456.059066 -413.430277 
L 453.886679 -412.855889 
L 451.714292 -412.248555 
L 449.541905 -411.623747 
L 447.369518 -410.994539 
L 445.197131 -410.36604 
L 443.024745 -409.73236 
L 440.852358 -409.076782 
L 438.679971 -408.374526 
L 436.507584 -407.597082 
L 434.335197 -406.717636 
L 432.16281 -405.717527 
L 429.990423 -404.593268 
L 427.818037 -403.36237 
L 425.64565 -402.065063 
L 423.473263 -400.759326 
L 421.300876 -399.508891 
L 419.128489 -398.367441 
L 416.956102 -397.364981 
L 414.783715 -396.50262 
L 412.611329 -395.758863 
L 410.438942 -395.105286 
L 408.266555 -394.524715 
L 406.094168 -394.023595 
L 403.921781 -393.632898 
L 401.749394 -393.397576 
L 399.577007 -393.36 
L 397.404621 -393.545305 
L 395.232234 -393.954962 
L 393.059847 -394.570296 
L 390.88746 -395.36272 
L 388.715073 -396.304606 
L 386.542686 -397.375285 
L 384.370299 -398.559889 
L 382.197912 -399.842925 
L 380.025526 -401.201084 
L 377.853139 -402.59981 
L 375.680752 -403.9957 
L 373.508365 -405.343567 
L 371.335978 -406.604872 
L 369.163591 -407.754141 
L 366.991204 -408.781577 
L 364.818818 -409.692053 
L 362.646431 -410.501749 
L 360.474044 -411.233683 
L 358.301657 -411.912767 
L 356.12927 -412.560757 
L 353.956883 -413.191738 
L 351.784496 -413.809304 
L 349.61211 -414.406541 
L 347.439723 -414.96914 
L 345.267336 -415.480644 
L 343.094949 -415.927904 
L 340.922562 -416.304791 
L 338.750175 -416.613055 
L 336.577788 -416.860538 
L 334.405402 -417.057953 
L 332.233015 -417.21576 
L 330.060628 -417.342313 
L 327.888241 -417.443622 
L 325.715854 -417.524271 
L 323.543467 -417.588606 
L 321.37108 -417.641359 
L 319.198693 -417.687375 
L 317.026307 -417.730709 
L 314.85392 -417.773704 
L 312.681533 -417.816621 
L 310.509146 -417.858019 
L 308.336759 -417.895676 
L 306.164372 -417.927593 
L 303.991985 -417.95268 
L 301.819599 -417.970941 
z
" style="stroke: #444444; stroke-opacity: 0.8; stroke-width: 0.375"/>
    </defs>
    <g clip-path="url(#p4338def723)">
     <use xlink:href="#mad5121e19c" x="0" y="720" style="fill: #f1c0ac; fill-opacity: 0.8; stroke: #444444; stroke-opacity: 0.8; stroke-width: 0.375"/>
    </g>
   </g>
   <g id="PolyCollection_5">
    <defs>
     <path id="mb5d65b7096" d="M 228.115375 -356.346113 
L 228.115375 -356.453887 
L 231.613337 -356.485153 
L 235.111299 -356.529008 
L 238.609261 -356.587746 
L 242.107223 -356.663113 
L 245.605185 -356.756189 
L 249.103147 -356.867536 
L 252.601109 -356.997622 
L 256.099071 -357.147366 
L 259.597033 -357.318567 
L 263.094995 -357.513904 
L 266.592957 -357.736343 
L 270.090919 -357.988027 
L 273.588881 -358.269001 
L 277.086843 -358.576334 
L 280.584805 -358.904154 
L 284.082767 -359.244799 
L 287.580729 -359.590862 
L 291.078691 -359.937444 
L 294.576653 -360.283781 
L 298.074615 -360.633591 
L 301.572577 -360.993956 
L 305.070539 -361.373213 
L 308.568501 -361.778638 
L 312.066463 -362.214825 
L 315.564425 -362.683216 
L 319.062387 -363.182736 
L 322.560349 -363.71103 
L 326.058311 -364.265694 
L 329.556274 -364.845134 
L 333.054236 -365.449093 
L 336.552198 -366.079141 
L 340.05016 -366.739421 
L 343.548122 -367.437587 
L 347.046084 -368.185442 
L 350.544046 -368.998526 
L 354.042008 -369.893996 
L 357.53997 -370.886613 
L 361.037932 -371.983378 
L 364.535894 -373.177989 
L 368.033856 -374.446794 
L 371.531818 -375.747765 
L 375.02978 -377.023504 
L 378.527742 -378.208191 
L 382.025704 -379.237209 
L 385.523666 -380.057233 
L 389.021628 -380.634291 
L 392.51959 -380.95782 
L 396.017552 -381.04 
L 399.515514 -380.911075 
L 403.013476 -380.612498 
L 406.511438 -380.190072 
L 410.0094 -379.688765 
L 413.507362 -379.149761 
L 417.005324 -378.60918 
L 420.503286 -378.097262 
L 424.001248 -377.636899 
L 427.49921 -377.241163 
L 430.997172 -376.910485 
L 434.495134 -376.630846 
L 437.993096 -376.374368 
L 441.491058 -376.102984 
L 444.98902 -375.774779 
L 448.486982 -375.35153 
L 451.984944 -374.805475 
L 455.482906 -374.123578 
L 458.980868 -373.30837 
L 462.47883 -372.375523 
L 465.976792 -371.349237 
L 469.474754 -370.25695 
L 472.972716 -369.124827 
L 476.470678 -367.974993 
L 479.96864 -366.824827 
L 483.466602 -365.688019 
L 486.964564 -364.576635 
L 490.462526 -363.503289 
L 493.960488 -362.482577 
L 497.45845 -361.531237 
L 500.956412 -360.66691 
L 504.454374 -359.905805 
L 507.952336 -359.259894 
L 511.450298 -358.734395 
L 514.94826 -358.326238 
L 518.446222 -358.023948 
L 521.944184 -357.809058 
L 525.442146 -357.658768 
L 528.940109 -357.549311 
L 532.438071 -357.459296 
L 535.936033 -357.37235 
L 539.433995 -357.278541 
L 542.931957 -357.174433 
L 546.429919 -357.06193 
L 549.927881 -356.94636 
L 553.425843 -356.834357 
L 556.923805 -356.732036 
L 560.421767 -356.64379 
L 563.919729 -356.571794 
L 567.417691 -356.516121 
L 570.915653 -356.475253 
L 574.413615 -356.446736 
L 574.413615 -356.353264 
L 574.413615 -356.353264 
L 570.915653 -356.324747 
L 567.417691 -356.283879 
L 563.919729 -356.228206 
L 560.421767 -356.15621 
L 556.923805 -356.067964 
L 553.425843 -355.965643 
L 549.927881 -355.85364 
L 546.429919 -355.73807 
L 542.931957 -355.625567 
L 539.433995 -355.521459 
L 535.936033 -355.42765 
L 532.438071 -355.340704 
L 528.940109 -355.250689 
L 525.442146 -355.141232 
L 521.944184 -354.990942 
L 518.446222 -354.776052 
L 514.94826 -354.473762 
L 511.450298 -354.065605 
L 507.952336 -353.540106 
L 504.454374 -352.894195 
L 500.956412 -352.13309 
L 497.45845 -351.268763 
L 493.960488 -350.317423 
L 490.462526 -349.296711 
L 486.964564 -348.223365 
L 483.466602 -347.111981 
L 479.96864 -345.975173 
L 476.470678 -344.825007 
L 472.972716 -343.675173 
L 469.474754 -342.54305 
L 465.976792 -341.450763 
L 462.47883 -340.424477 
L 458.980868 -339.49163 
L 455.482906 -338.676422 
L 451.984944 -337.994525 
L 448.486982 -337.44847 
L 444.98902 -337.025221 
L 441.491058 -336.697016 
L 437.993096 -336.425632 
L 434.495134 -336.169154 
L 430.997172 -335.889515 
L 427.49921 -335.558837 
L 424.001248 -335.163101 
L 420.503286 -334.702738 
L 417.005324 -334.19082 
L 413.507362 -333.650239 
L 410.0094 -333.111235 
L 406.511438 -332.609928 
L 403.013476 -332.187502 
L 399.515514 -331.888925 
L 396.017552 -331.76 
L 392.51959 -331.84218 
L 389.021628 -332.165709 
L 385.523666 -332.742767 
L 382.025704 -333.562791 
L 378.527742 -334.591809 
L 375.02978 -335.776496 
L 371.531818 -337.052235 
L 368.033856 -338.353206 
L 364.535894 -339.622011 
L 361.037932 -340.816622 
L 357.53997 -341.913387 
L 354.042008 -342.906004 
L 350.544046 -343.801474 
L 347.046084 -344.614558 
L 343.548122 -345.362413 
L 340.05016 -346.060579 
L 336.552198 -346.720859 
L 333.054236 -347.350907 
L 329.556274 -347.954866 
L 326.058311 -348.534306 
L 322.560349 -349.08897 
L 319.062387 -349.617264 
L 315.564425 -350.116784 
L 312.066463 -350.585175 
L 308.568501 -351.021362 
L 305.070539 -351.426787 
L 301.572577 -351.806044 
L 298.074615 -352.166409 
L 294.576653 -352.516219 
L 291.078691 -352.862556 
L 287.580729 -353.209138 
L 284.082767 -353.555201 
L 280.584805 -353.895846 
L 277.086843 -354.223666 
L 273.588881 -354.530999 
L 270.090919 -354.811973 
L 266.592957 -355.063657 
L 263.094995 -355.286096 
L 259.597033 -355.481433 
L 256.099071 -355.652634 
L 252.601109 -355.802378 
L 249.103147 -355.932464 
L 245.605185 -356.043811 
L 242.107223 -356.136887 
L 238.609261 -356.212254 
L 235.111299 -356.270992 
L 231.613337 -356.314847 
L 228.115375 -356.346113 
z
" style="stroke: #444444; stroke-opacity: 0.8; stroke-width: 0.375"/>
    </defs>
    <g clip-path="url(#p4338def723)">
     <use xlink:href="#mb5d65b7096" x="0" y="720" style="fill: #e57760; fill-opacity: 0.8; stroke: #444444; stroke-opacity: 0.8; stroke-width: 0.375"/>
    </g>
   </g>
   <g id="PolyCollection_6">
    <defs>
     <path id="m79bb4a2b28" d="M 337.441769 -294.742883 
L 337.441769 -294.857117 
L 338.665676 -294.894921 
L 339.889583 -294.95088 
L 341.113491 -295.029565 
L 342.337398 -295.134612 
L 343.561306 -295.267655 
L 344.785213 -295.42734 
L 346.00912 -295.608723 
L 347.233028 -295.803379 
L 348.456935 -296.000413 
L 349.680843 -296.188321 
L 350.90475 -296.357339 
L 352.128657 -296.501708 
L 353.352565 -296.621181 
L 354.576472 -296.721264 
L 355.800379 -296.812058 
L 357.024287 -296.90601 
L 358.248194 -297.015272 
L 359.472102 -297.14946 
L 360.696009 -297.314471 
L 361.919916 -297.51263 
L 363.143824 -297.74399 
L 364.367731 -298.008285 
L 365.591638 -298.30687 
L 366.815546 -298.644045 
L 368.039453 -299.027402 
L 369.263361 -299.467131 
L 370.487268 -299.974549 
L 371.711175 -300.560346 
L 372.935083 -301.233069 
L 374.15899 -301.99823 
L 375.382897 -302.858104 
L 376.606805 -303.811992 
L 377.830712 -304.8565 
L 379.05462 -305.985443 
L 380.278527 -307.189208 
L 381.502434 -308.453758 
L 382.726342 -309.759737 
L 383.950249 -311.0822 
L 385.174157 -312.391345 
L 386.398064 -313.654311 
L 387.621971 -314.837852 
L 388.845879 -315.911481 
L 390.069786 -316.850675 
L 391.293693 -317.63961 
L 392.517601 -318.272832 
L 393.741508 -318.755145 
L 394.965416 -319.099187 
L 396.189323 -319.320747 
L 397.41323 -319.432786 
L 398.637138 -319.44 
L 399.861045 -319.336053 
L 401.084952 -319.104958 
L 402.30886 -318.726687 
L 403.532767 -318.185476 
L 404.756675 -317.478159 
L 405.980582 -316.619738 
L 407.204489 -315.644271 
L 408.428397 -314.60066 
L 409.652304 -313.544445 
L 410.876211 -312.52776 
L 412.100119 -311.58993 
L 413.324026 -310.7508 
L 414.547934 -310.0081 
L 415.771841 -309.339186 
L 416.995748 -308.706659 
L 418.219656 -308.066727 
L 419.443563 -307.378673 
L 420.667471 -306.613565 
L 421.891378 -305.760351 
L 423.115285 -304.827928 
L 424.339193 -303.842704 
L 425.5631 -302.84236 
L 426.787007 -301.867624 
L 428.010915 -300.954395 
L 429.234822 -300.128251 
L 430.45873 -299.402429 
L 431.682637 -298.77903 
L 432.906544 -298.252252 
L 434.130452 -297.812071 
L 435.354359 -297.447087 
L 436.578266 -297.146014 
L 437.802174 -296.89798 
L 439.026081 -296.692254 
L 440.249989 -296.518058 
L 441.473896 -296.364813 
L 442.697803 -296.222877 
L 443.921711 -296.084509 
L 445.145618 -295.944704 
L 446.369525 -295.801618 
L 447.593433 -295.656426 
L 448.81734 -295.512646 
L 450.041248 -295.375106 
L 451.265155 -295.248787 
L 452.489062 -295.137811 
L 453.71297 -295.044751 
L 454.936877 -294.970371 
L 456.160785 -294.913761 
L 457.384692 -294.872763 
L 458.608599 -294.844526 
L 458.608599 -294.755474 
L 458.608599 -294.755474 
L 457.384692 -294.727237 
L 456.160785 -294.686239 
L 454.936877 -294.629629 
L 453.71297 -294.555249 
L 452.489062 -294.462189 
L 451.265155 -294.351213 
L 450.041248 -294.224894 
L 448.81734 -294.087354 
L 447.593433 -293.943574 
L 446.369525 -293.798382 
L 445.145618 -293.655296 
L 443.921711 -293.515491 
L 442.697803 -293.377123 
L 441.473896 -293.235187 
L 440.249989 -293.081942 
L 439.026081 -292.907746 
L 437.802174 -292.70202 
L 436.578266 -292.453986 
L 435.354359 -292.152913 
L 434.130452 -291.787929 
L 432.906544 -291.347748 
L 431.682637 -290.82097 
L 430.45873 -290.197571 
L 429.234822 -289.471749 
L 428.010915 -288.645605 
L 426.787007 -287.732376 
L 425.5631 -286.75764 
L 424.339193 -285.757296 
L 423.115285 -284.772072 
L 421.891378 -283.839649 
L 420.667471 -282.986435 
L 419.443563 -282.221327 
L 418.219656 -281.533273 
L 416.995748 -280.893341 
L 415.771841 -280.260814 
L 414.547934 -279.5919 
L 413.324026 -278.8492 
L 412.100119 -278.01007 
L 410.876211 -277.07224 
L 409.652304 -276.055555 
L 408.428397 -274.99934 
L 407.204489 -273.955729 
L 405.980582 -272.980262 
L 404.756675 -272.121841 
L 403.532767 -271.414524 
L 402.30886 -270.873313 
L 401.084952 -270.495042 
L 399.861045 -270.263947 
L 398.637138 -270.16 
L 397.41323 -270.167214 
L 396.189323 -270.279253 
L 394.965416 -270.500813 
L 393.741508 -270.844855 
L 392.517601 -271.327168 
L 391.293693 -271.96039 
L 390.069786 -272.749325 
L 388.845879 -273.688519 
L 387.621971 -274.762148 
L 386.398064 -275.945689 
L 385.174157 -277.208655 
L 383.950249 -278.5178 
L 382.726342 -279.840263 
L 381.502434 -281.146242 
L 380.278527 -282.410792 
L 379.05462 -283.614557 
L 377.830712 -284.7435 
L 376.606805 -285.788008 
L 375.382897 -286.741896 
L 374.15899 -287.60177 
L 372.935083 -288.366931 
L 371.711175 -289.039654 
L 370.487268 -289.625451 
L 369.263361 -290.132869 
L 368.039453 -290.572598 
L 366.815546 -290.955955 
L 365.591638 -291.29313 
L 364.367731 -291.591715 
L 363.143824 -291.85601 
L 361.919916 -292.08737 
L 360.696009 -292.285529 
L 359.472102 -292.45054 
L 358.248194 -292.584728 
L 357.024287 -292.69399 
L 355.800379 -292.787942 
L 354.576472 -292.878736 
L 353.352565 -292.978819 
L 352.128657 -293.098292 
L 350.90475 -293.242661 
L 349.680843 -293.411679 
L 348.456935 -293.599587 
L 347.233028 -293.796621 
L 346.00912 -293.991277 
L 344.785213 -294.17266 
L 343.561306 -294.332345 
L 342.337398 -294.465388 
L 341.113491 -294.570435 
L 339.889583 -294.64912 
L 338.665676 -294.705079 
L 337.441769 -294.742883 
z
" style="stroke: #444444; stroke-opacity: 0.8; stroke-width: 0.375"/>
    </defs>
    <g clip-path="url(#p4338def723)">
     <use xlink:href="#m79bb4a2b28" x="0" y="720" style="fill: #b42e32; fill-opacity: 0.8; stroke: #444444; stroke-opacity: 0.8; stroke-width: 0.375"/>
    </g>
   </g>
   <g id="PolyCollection_7">
    <defs>
     <path id="mf4bcdbf733" d="M 261.254164 -233.158528 
L 261.254164 -233.241472 
L 263.837034 -233.268344 
L 266.419904 -233.306976 
L 269.002774 -233.359177 
L 271.585643 -233.425362 
L 274.168513 -233.503912 
L 276.751383 -233.59084 
L 279.334253 -233.67998 
L 281.917122 -233.763753 
L 284.499992 -233.834414 
L 287.082862 -233.88549 
L 289.665732 -233.913094 
L 292.248601 -233.91683 
L 294.831471 -233.900137 
L 297.414341 -233.870092 
L 299.99721 -233.836733 
L 302.58008 -233.812015 
L 305.16295 -233.808482 
L 307.74582 -233.837793 
L 310.328689 -233.909318 
L 312.911559 -234.029133 
L 315.494429 -234.199758 
L 318.077299 -234.420849 
L 320.660168 -234.690772 
L 323.243038 -235.008649 
L 325.825908 -235.376229 
L 328.408777 -235.798878 
L 330.991647 -236.285195 
L 333.574517 -236.845141 
L 336.157387 -237.48707 
L 338.740256 -238.214419 
L 341.323126 -239.022999 
L 343.905996 -239.899725 
L 346.488866 -240.823178 
L 349.071735 -241.765917 
L 351.654605 -242.698032 
L 354.237475 -243.59127 
L 356.820344 -244.423228 
L 359.403214 -245.181317 
L 361.986084 -245.866213 
L 364.568954 -246.49428 
L 367.151823 -247.097945 
L 369.734693 -247.722784 
L 372.317563 -248.420402 
L 374.900433 -249.237449 
L 377.483302 -250.202733 
L 380.066172 -251.315942 
L 382.649042 -252.54181 
L 385.231912 -253.812448 
L 387.814781 -255.03804 
L 390.397651 -256.123258 
L 392.980521 -256.984805 
L 395.56339 -257.565263 
L 398.14626 -257.84 
L 400.72913 -257.816401 
L 403.312 -257.527091 
L 405.894869 -257.020145 
L 408.477739 -256.349397 
L 411.060609 -255.567105 
L 413.643479 -254.719917 
L 416.226348 -253.847782 
L 418.809218 -252.98447 
L 421.392088 -252.157975 
L 423.974957 -251.389454 
L 426.557827 -250.690366 
L 429.140697 -250.058792 
L 431.723567 -249.476855 
L 434.306436 -248.911291 
L 436.889306 -248.318336 
L 439.472176 -247.65254 
L 442.055046 -246.877483 
L 444.637915 -245.975342 
L 447.220785 -244.95228 
L 449.803655 -243.837874 
L 452.386525 -242.678717 
L 454.969394 -241.528269 
L 457.552264 -240.436153 
L 460.135134 -239.439935 
L 462.718003 -238.561199 
L 465.300873 -237.80599 
L 467.883743 -237.168325 
L 470.466613 -236.634837 
L 473.049482 -236.18894 
L 475.632352 -235.813695 
L 478.215222 -235.493356 
L 480.798092 -235.214091 
L 483.380961 -234.964387 
L 485.963831 -234.735406 
L 488.546701 -234.521286 
L 491.12957 -234.319192 
L 493.71244 -234.128991 
L 496.29531 -233.952536 
L 498.87818 -233.792691 
L 501.461049 -233.652327 
L 504.043919 -233.533489 
L 506.626789 -233.436871 
L 509.209659 -233.361678 
L 511.792528 -233.305802 
L 514.375398 -233.266242 
L 516.958268 -233.239606 
L 516.958268 -233.160394 
L 516.958268 -233.160394 
L 514.375398 -233.133758 
L 511.792528 -233.094198 
L 509.209659 -233.038322 
L 506.626789 -232.963129 
L 504.043919 -232.866511 
L 501.461049 -232.747673 
L 498.87818 -232.607309 
L 496.29531 -232.447464 
L 493.71244 -232.271009 
L 491.12957 -232.080808 
L 488.546701 -231.878714 
L 485.963831 -231.664594 
L 483.380961 -231.435613 
L 480.798092 -231.185909 
L 478.215222 -230.906644 
L 475.632352 -230.586305 
L 473.049482 -230.21106 
L 470.466613 -229.765163 
L 467.883743 -229.231675 
L 465.300873 -228.59401 
L 462.718003 -227.838801 
L 460.135134 -226.960065 
L 457.552264 -225.963847 
L 454.969394 -224.871731 
L 452.386525 -223.721283 
L 449.803655 -222.562126 
L 447.220785 -221.44772 
L 444.637915 -220.424658 
L 442.055046 -219.522517 
L 439.472176 -218.74746 
L 436.889306 -218.081664 
L 434.306436 -217.488709 
L 431.723567 -216.923145 
L 429.140697 -216.341208 
L 426.557827 -215.709634 
L 423.974957 -215.010546 
L 421.392088 -214.242025 
L 418.809218 -213.41553 
L 416.226348 -212.552218 
L 413.643479 -211.680083 
L 411.060609 -210.832895 
L 408.477739 -210.050603 
L 405.894869 -209.379855 
L 403.312 -208.872909 
L 400.72913 -208.583599 
L 398.14626 -208.56 
L 395.56339 -208.834737 
L 392.980521 -209.415195 
L 390.397651 -210.276742 
L 387.814781 -211.36196 
L 385.231912 -212.587552 
L 382.649042 -213.85819 
L 380.066172 -215.084058 
L 377.483302 -216.197267 
L 374.900433 -217.162551 
L 372.317563 -217.979598 
L 369.734693 -218.677216 
L 367.151823 -219.302055 
L 364.568954 -219.90572 
L 361.986084 -220.533787 
L 359.403214 -221.218683 
L 356.820344 -221.976772 
L 354.237475 -222.80873 
L 351.654605 -223.701968 
L 349.071735 -224.634083 
L 346.488866 -225.576822 
L 343.905996 -226.500275 
L 341.323126 -227.377001 
L 338.740256 -228.185581 
L 336.157387 -228.91293 
L 333.574517 -229.554859 
L 330.991647 -230.114805 
L 328.408777 -230.601122 
L 325.825908 -231.023771 
L 323.243038 -231.391351 
L 320.660168 -231.709228 
L 318.077299 -231.979151 
L 315.494429 -232.200242 
L 312.911559 -232.370867 
L 310.328689 -232.490682 
L 307.74582 -232.562207 
L 305.16295 -232.591518 
L 302.58008 -232.587985 
L 299.99721 -232.563267 
L 297.414341 -232.529908 
L 294.831471 -232.499863 
L 292.248601 -232.48317 
L 289.665732 -232.486906 
L 287.082862 -232.51451 
L 284.499992 -232.565586 
L 281.917122 -232.636247 
L 279.334253 -232.72002 
L 276.751383 -232.80916 
L 274.168513 -232.896088 
L 271.585643 -232.974638 
L 269.002774 -233.040823 
L 266.419904 -233.093024 
L 263.837034 -233.131656 
L 261.254164 -233.158528 
z
" style="stroke: #404040; stroke-opacity: 0.8; stroke-width: 0.375"/>
    </defs>
    <g clip-path="url(#p4338def723)">
     <use xlink:href="#mf4bcdbf733" x="0" y="720" style="fill: #cbdbea; fill-opacity: 0.8; stroke: #404040; stroke-opacity: 0.8; stroke-width: 0.375"/>
    </g>
   </g>
   <g id="PolyCollection_8">
    <defs>
     <path id="m54e7f5b91d" d="M 161.883428 -171.554215 
L 161.883428 -171.645785 
L 167.268417 -171.676686 
L 172.653406 -171.721949 
L 178.038395 -171.7846 
L 183.423384 -171.86685 
L 188.808373 -171.969799 
L 194.193362 -172.093489 
L 199.578351 -172.237328 
L 204.96334 -172.400703 
L 210.348329 -172.583533 
L 215.733318 -172.78651 
L 221.118307 -173.01102 
L 226.503296 -173.258892 
L 231.888285 -173.532295 
L 237.273274 -173.833969 
L 242.658263 -174.167771 
L 248.043252 -174.539192 
L 253.428241 -174.955261 
L 258.81323 -175.423281 
L 264.198219 -175.948218 
L 269.583208 -176.529332 
L 274.968197 -177.157434 
L 280.353186 -177.814507 
L 285.738175 -178.476914 
L 291.123164 -179.121978 
L 296.508153 -179.735967 
L 301.893142 -180.32043 
L 307.278131 -180.894025 
L 312.66312 -181.48871 
L 318.048109 -182.141479 
L 323.433098 -182.884755 
L 328.818087 -183.738979 
L 334.203076 -184.709741 
L 339.588065 -185.789512 
L 344.973054 -186.961911 
L 350.358043 -188.205518 
L 355.743032 -189.494951 
L 361.128021 -190.798911 
L 366.51301 -192.076979 
L 371.897999 -193.278071 
L 377.282988 -194.342995 
L 382.667977 -195.211751 
L 388.052966 -195.83387 
L 393.437955 -196.178414 
L 398.822944 -196.24 
L 404.207933 -196.038608 
L 409.592922 -195.613378 
L 414.977911 -195.012938 
L 420.3629 -194.285977 
L 425.747889 -193.475089 
L 431.132878 -192.614948 
L 436.517867 -191.733465 
L 441.902856 -190.853198 
L 447.287845 -189.990591 
L 452.672834 -189.152483 
L 458.057823 -188.331733 
L 463.442812 -187.505331 
L 468.827801 -186.637969 
L 474.21279 -185.691692 
L 479.597779 -184.639091 
L 484.982768 -183.475234 
L 490.367757 -182.223516 
L 495.752746 -180.932893 
L 501.137735 -179.6674 
L 506.522724 -178.491747 
L 511.907713 -177.457739 
L 517.292702 -176.595278 
L 522.677691 -175.909504 
L 528.06268 -175.383516 
L 533.447669 -174.984832 
L 538.832658 -174.673531 
L 544.217647 -174.410366 
L 549.602636 -174.163578 
L 554.987625 -173.913462 
L 560.372614 -173.653978 
L 565.757603 -173.391134 
L 571.142592 -173.138625 
L 576.527581 -172.911975 
L 581.91257 -172.722977 
L 587.297559 -172.576092 
L 592.682548 -172.467717 
L 598.067537 -172.388212 
L 603.452526 -172.325572 
L 608.837515 -172.269251 
L 614.222504 -172.212766 
L 619.607493 -172.154391 
L 624.992482 -172.096025 
L 630.377471 -172.041022 
L 635.76246 -171.992012 
L 641.147449 -171.94958 
L 646.532438 -171.912194 
L 651.917427 -171.877153 
L 657.302416 -171.841944 
L 662.687405 -171.805332 
L 668.072394 -171.767745 
L 673.457383 -171.730915 
L 678.842372 -171.697081 
L 684.227361 -171.668154 
L 689.61235 -171.645187 
L 694.997339 -171.628251 
L 694.997339 -171.571749 
L 694.997339 -171.571749 
L 689.61235 -171.554813 
L 684.227361 -171.531846 
L 678.842372 -171.502919 
L 673.457383 -171.469085 
L 668.072394 -171.432255 
L 662.687405 -171.394668 
L 657.302416 -171.358056 
L 651.917427 -171.322847 
L 646.532438 -171.287806 
L 641.147449 -171.25042 
L 635.76246 -171.207988 
L 630.377471 -171.158978 
L 624.992482 -171.103975 
L 619.607493 -171.045609 
L 614.222504 -170.987234 
L 608.837515 -170.930749 
L 603.452526 -170.874428 
L 598.067537 -170.811788 
L 592.682548 -170.732283 
L 587.297559 -170.623908 
L 581.91257 -170.477023 
L 576.527581 -170.288025 
L 571.142592 -170.061375 
L 565.757603 -169.808866 
L 560.372614 -169.546022 
L 554.987625 -169.286538 
L 549.602636 -169.036422 
L 544.217647 -168.789634 
L 538.832658 -168.526469 
L 533.447669 -168.215168 
L 528.06268 -167.816484 
L 522.677691 -167.290496 
L 517.292702 -166.604722 
L 511.907713 -165.742261 
L 506.522724 -164.708253 
L 501.137735 -163.5326 
L 495.752746 -162.267107 
L 490.367757 -160.976484 
L 484.982768 -159.724766 
L 479.597779 -158.560909 
L 474.21279 -157.508308 
L 468.827801 -156.562031 
L 463.442812 -155.694669 
L 458.057823 -154.868267 
L 452.672834 -154.047517 
L 447.287845 -153.209409 
L 441.902856 -152.346802 
L 436.517867 -151.466535 
L 431.132878 -150.585052 
L 425.747889 -149.724911 
L 420.3629 -148.914023 
L 414.977911 -148.187062 
L 409.592922 -147.586622 
L 404.207933 -147.161392 
L 398.822944 -146.96 
L 393.437955 -147.021586 
L 388.052966 -147.36613 
L 382.667977 -147.988249 
L 377.282988 -148.857005 
L 371.897999 -149.921929 
L 366.51301 -151.123021 
L 361.128021 -152.401089 
L 355.743032 -153.705049 
L 350.358043 -154.994482 
L 344.973054 -156.238089 
L 339.588065 -157.410488 
L 334.203076 -158.490259 
L 328.818087 -159.461021 
L 323.433098 -160.315245 
L 318.048109 -161.058521 
L 312.66312 -161.71129 
L 307.278131 -162.305975 
L 301.893142 -162.87957 
L 296.508153 -163.464033 
L 291.123164 -164.078022 
L 285.738175 -164.723086 
L 280.353186 -165.385493 
L 274.968197 -166.042566 
L 269.583208 -166.670668 
L 264.198219 -167.251782 
L 258.81323 -167.776719 
L 253.428241 -168.244739 
L 248.043252 -168.660808 
L 242.658263 -169.032229 
L 237.273274 -169.366031 
L 231.888285 -169.667705 
L 226.503296 -169.941108 
L 221.118307 -170.18898 
L 215.733318 -170.41349 
L 210.348329 -170.616467 
L 204.96334 -170.799297 
L 199.578351 -170.962672 
L 194.193362 -171.106511 
L 188.808373 -171.230201 
L 183.423384 -171.33315 
L 178.038395 -171.4154 
L 172.653406 -171.478051 
L 167.268417 -171.523314 
L 161.883428 -171.554215 
z
" style="stroke: #404040; stroke-opacity: 0.8; stroke-width: 0.375"/>
    </defs>
    <g clip-path="url(#p4338def723)">
     <use xlink:href="#m54e7f5b91d" x="0" y="720" style="fill: #78aac8; fill-opacity: 0.8; stroke: #404040; stroke-opacity: 0.8; stroke-width: 0.375"/>
    </g>
   </g>
   <g id="PolyCollection_9">
    <defs>
     <path id="m3e9b80275e" d="M 299.34113 -109.952198 
L 299.34113 -110.047802 
L 301.120029 -110.075184 
L 302.898927 -110.113042 
L 304.677826 -110.162719 
L 306.456725 -110.224705 
L 308.235624 -110.298489 
L 310.014523 -110.382739 
L 311.793422 -110.47581 
L 313.572321 -110.576498 
L 315.35122 -110.684757 
L 317.130119 -110.802102 
L 318.909018 -110.931432 
L 320.687917 -111.076241 
L 322.466816 -111.239393 
L 324.245715 -111.421878 
L 326.024614 -111.621982 
L 327.803513 -111.835237 
L 329.582412 -112.055265 
L 331.361311 -112.275369 
L 333.14021 -112.490511 
L 334.919109 -112.69918 
L 336.698008 -112.904689 
L 338.476907 -113.115487 
L 340.255806 -113.344241 
L 342.034705 -113.605674 
L 343.813604 -113.913434 
L 345.592503 -114.276616 
L 347.371402 -114.696838 
L 349.150301 -115.166805 
L 350.9292 -115.671041 
L 352.708099 -116.188835 
L 354.486998 -116.698746 
L 356.265897 -117.183425 
L 358.044796 -117.633381 
L 359.823695 -118.048707 
L 361.602594 -118.438481 
L 363.381493 -118.818363 
L 365.160392 -119.20733 
L 366.939291 -119.624608 
L 368.71819 -120.087463 
L 370.497089 -120.610065 
L 372.275988 -121.203148 
L 374.054887 -121.873987 
L 375.833786 -122.62619 
L 377.612685 -123.459079 
L 379.391584 -124.366794 
L 381.170483 -125.337595 
L 382.949382 -126.353978 
L 384.728281 -127.394011 
L 386.50718 -128.433829 
L 388.286079 -129.450537 
L 390.064978 -130.424464 
L 391.843877 -131.339704 
L 393.622776 -132.182593 
L 395.401675 -132.938627 
L 397.180574 -133.589192 
L 398.959473 -134.109696 
L 400.738372 -134.470364 
L 402.517271 -134.64 
L 404.29617 -134.591949 
L 406.075069 -134.31066 
L 407.853968 -133.796913 
L 409.632867 -133.070024 
L 411.411766 -132.166138 
L 413.190665 -131.132698 
L 414.969564 -130.020262 
L 416.748463 -128.873616 
L 418.527362 -127.724482 
L 420.306261 -126.587818 
L 422.08516 -125.462805 
L 423.864059 -124.33824 
L 425.642958 -123.200674 
L 427.421857 -122.04268 
L 429.200756 -120.86862 
L 430.979655 -119.696154 
L 432.758554 -118.553253 
L 434.537453 -117.472026 
L 436.316352 -116.481583 
L 438.09525 -115.602194 
L 439.874149 -114.842227 
L 441.653048 -114.198224 
L 443.431947 -113.657465 
L 445.210846 -113.201837 
L 446.989745 -112.811796 
L 448.768644 -112.469553 
L 450.547543 -112.161058 
L 452.326442 -111.876785 
L 454.105341 -111.611536 
L 455.88424 -111.363611 
L 457.663139 -111.133687 
L 459.442038 -110.923683 
L 461.220937 -110.735789 
L 462.999836 -110.571757 
L 464.778735 -110.432457 
L 466.557634 -110.31769 
L 468.336533 -110.22618 
L 470.115432 -110.155732 
L 471.894331 -110.103488 
L 473.67323 -110.066247 
L 475.452129 -110.04078 
L 475.452129 -109.95922 
L 475.452129 -109.95922 
L 473.67323 -109.933753 
L 471.894331 -109.896512 
L 470.115432 -109.844268 
L 468.336533 -109.77382 
L 466.557634 -109.68231 
L 464.778735 -109.567543 
L 462.999836 -109.428243 
L 461.220937 -109.264211 
L 459.442038 -109.076317 
L 457.663139 -108.866313 
L 455.88424 -108.636389 
L 454.105341 -108.388464 
L 452.326442 -108.123215 
L 450.547543 -107.838942 
L 448.768644 -107.530447 
L 446.989745 -107.188204 
L 445.210846 -106.798163 
L 443.431947 -106.342535 
L 441.653048 -105.801776 
L 439.874149 -105.157773 
L 438.09525 -104.397806 
L 436.316352 -103.518417 
L 434.537453 -102.527974 
L 432.758554 -101.446747 
L 430.979655 -100.303846 
L 429.200756 -99.13138 
L 427.421857 -97.95732 
L 425.642958 -96.799326 
L 423.864059 -95.66176 
L 422.08516 -94.537195 
L 420.306261 -93.412182 
L 418.527362 -92.275518 
L 416.748463 -91.126384 
L 414.969564 -89.979738 
L 413.190665 -88.867302 
L 411.411766 -87.833862 
L 409.632867 -86.929976 
L 407.853968 -86.203087 
L 406.075069 -85.68934 
L 404.29617 -85.408051 
L 402.517271 -85.36 
L 400.738372 -85.529636 
L 398.959473 -85.890304 
L 397.180574 -86.410808 
L 395.401675 -87.061373 
L 393.622776 -87.817407 
L 391.843877 -88.660296 
L 390.064978 -89.575536 
L 388.286079 -90.549463 
L 386.50718 -91.566171 
L 384.728281 -92.605989 
L 382.949382 -93.646022 
L 381.170483 -94.662405 
L 379.391584 -95.633206 
L 377.612685 -96.540921 
L 375.833786 -97.37381 
L 374.054887 -98.126013 
L 372.275988 -98.796852 
L 370.497089 -99.389935 
L 368.71819 -99.912537 
L 366.939291 -100.375392 
L 365.160392 -100.79267 
L 363.381493 -101.181637 
L 361.602594 -101.561519 
L 359.823695 -101.951293 
L 358.044796 -102.366619 
L 356.265897 -102.816575 
L 354.486998 -103.301254 
L 352.708099 -103.811165 
L 350.9292 -104.328959 
L 349.150301 -104.833195 
L 347.371402 -105.303162 
L 345.592503 -105.723384 
L 343.813604 -106.086566 
L 342.034705 -106.394326 
L 340.255806 -106.655759 
L 338.476907 -106.884513 
L 336.698008 -107.095311 
L 334.919109 -107.30082 
L 333.14021 -107.509489 
L 331.361311 -107.724631 
L 329.582412 -107.944735 
L 327.803513 -108.164763 
L 326.024614 -108.378018 
L 324.245715 -108.578122 
L 322.466816 -108.760607 
L 320.687917 -108.923759 
L 318.909018 -109.068568 
L 317.130119 -109.197898 
L 315.35122 -109.315243 
L 313.572321 -109.423502 
L 311.793422 -109.52419 
L 310.014523 -109.617261 
L 308.235624 -109.701511 
L 306.456725 -109.775295 
L 304.677826 -109.837281 
L 302.898927 -109.886958 
L 301.120029 -109.924816 
L 299.34113 -109.952198 
z
" style="stroke: #404040; stroke-opacity: 0.8; stroke-width: 0.375"/>
    </defs>
    <g clip-path="url(#p4338def723)">
     <use xlink:href="#m3e9b80275e" x="0" y="720" style="fill: #336fa2; fill-opacity: 0.8; stroke: #404040; stroke-opacity: 0.8; stroke-width: 0.375"/>
    </g>
   </g>
   <g id="line2d_49">
    <path d="M 366.42301 117.2 
L 433.883727 117.2 
" clip-path="url(#p4338def723)" style="fill: none; stroke: #343434; stroke-width: 0.5625; stroke-linecap: round"/>
   </g>
   <g id="line2d_50">
    <path d="M 392.738859 117.2 
L 410.308879 117.2 
" clip-path="url(#p4338def723)" style="fill: none; stroke: #343434; stroke-width: 1.6875; stroke-linecap: round"/>
   </g>
   <g id="line2d_51">
    <path d="M 402.708442 117.2 
" clip-path="url(#p4338def723)" style="fill: none; stroke: #343434; stroke-width: 1.75; stroke-linecap: round"/>
    <defs>
     <path id="m32877d751c" d="M 0 0.703125 
L 0 -0.703125 
" style="stroke: #ffffff; stroke-width: 0.3375"/>
    </defs>
    <g clip-path="url(#p4338def723)">
     <use xlink:href="#m32877d751c" x="402.708442" y="117.2" style="fill: #ffffff; stroke: #ffffff; stroke-width: 0.3375"/>
    </g>
   </g>
   <g id="line2d_52">
    <path d="M 325.339365 178.8 
L 481.192525 178.8 
" clip-path="url(#p4338def723)" style="fill: none; stroke: #343434; stroke-width: 0.5625; stroke-linecap: round"/>
   </g>
   <g id="line2d_53">
    <path d="M 381.819322 178.8 
L 421.600511 178.8 
" clip-path="url(#p4338def723)" style="fill: none; stroke: #343434; stroke-width: 1.6875; stroke-linecap: round"/>
   </g>
   <g id="line2d_54">
    <path d="M 397.981831 178.8 
" clip-path="url(#p4338def723)" style="fill: none; stroke: #343434; stroke-width: 1.75; stroke-linecap: round"/>
    <g clip-path="url(#p4338def723)">
     <use xlink:href="#m32877d751c" x="397.981831" y="178.8" style="fill: #ffffff; stroke: #ffffff; stroke-width: 0.3375"/>
    </g>
   </g>
   <g id="line2d_55">
    <path d="M 363.706931 240.4 
L 435.230278 240.4 
" clip-path="url(#p4338def723)" style="fill: none; stroke: #343434; stroke-width: 0.5625; stroke-linecap: round"/>
   </g>
   <g id="line2d_56">
    <path d="M 392.086949 240.4 
L 411.553403 240.4 
" clip-path="url(#p4338def723)" style="fill: none; stroke: #343434; stroke-width: 1.6875; stroke-linecap: round"/>
   </g>
   <g id="line2d_57">
    <path d="M 407.829248 240.4 
" clip-path="url(#p4338def723)" style="fill: none; stroke: #343434; stroke-width: 1.75; stroke-linecap: round"/>
    <g clip-path="url(#p4338def723)">
     <use xlink:href="#m32877d751c" x="407.829248" y="240.4" style="fill: #ffffff; stroke: #ffffff; stroke-width: 0.3375"/>
    </g>
   </g>
   <g id="line2d_58">
    <path d="M 335.876972 302 
L 468.67777 302 
" clip-path="url(#p4338def723)" style="fill: none; stroke: #444444; stroke-width: 0.5625; stroke-linecap: round"/>
   </g>
   <g id="line2d_59">
    <path d="M 385.628172 302 
L 419.943254 302 
" clip-path="url(#p4338def723)" style="fill: none; stroke: #444444; stroke-width: 1.6875; stroke-linecap: round"/>
   </g>
   <g id="line2d_60">
    <path d="M 402.520238 302 
" clip-path="url(#p4338def723)" style="fill: none; stroke: #444444; stroke-width: 1.75; stroke-linecap: round"/>
    <g clip-path="url(#p4338def723)">
     <use xlink:href="#m32877d751c" x="402.520238" y="302" style="fill: #ffffff; stroke: #ffffff; stroke-width: 0.3375"/>
    </g>
   </g>
   <g id="line2d_61">
    <path d="M 274.948549 363.6 
L 542.78474 363.6 
" clip-path="url(#p4338def723)" style="fill: none; stroke: #444444; stroke-width: 0.5625; stroke-linecap: round"/>
   </g>
   <g id="line2d_62">
    <path d="M 373.276138 363.6 
L 443.11687 363.6 
" clip-path="url(#p4338def723)" style="fill: none; stroke: #444444; stroke-width: 1.6875; stroke-linecap: round"/>
   </g>
   <g id="line2d_63">
    <path d="M 402.955192 363.6 
" clip-path="url(#p4338def723)" style="fill: none; stroke: #444444; stroke-width: 1.75; stroke-linecap: round"/>
    <g clip-path="url(#p4338def723)">
     <use xlink:href="#m32877d751c" x="402.955192" y="363.6" style="fill: #ffffff; stroke: #ffffff; stroke-width: 0.3375"/>
    </g>
   </g>
   <g id="line2d_64">
    <path d="M 358.838189 425.2 
L 441.431161 425.2 
" clip-path="url(#p4338def723)" style="fill: none; stroke: #444444; stroke-width: 0.5625; stroke-linecap: round"/>
   </g>
   <g id="line2d_65">
    <path d="M 388.099073 425.2 
L 409.474737 425.2 
" clip-path="url(#p4338def723)" style="fill: none; stroke: #444444; stroke-width: 1.6875; stroke-linecap: round"/>
   </g>
   <g id="line2d_66">
    <path d="M 399.089432 425.2 
" clip-path="url(#p4338def723)" style="fill: none; stroke: #444444; stroke-width: 1.75; stroke-linecap: round"/>
    <g clip-path="url(#p4338def723)">
     <use xlink:href="#m32877d751c" x="399.089432" y="425.2" style="fill: #ffffff; stroke: #ffffff; stroke-width: 0.3375"/>
    </g>
   </g>
   <g id="line2d_67">
    <path d="M 320.133892 486.8 
L 487.954875 486.8 
" clip-path="url(#p4338def723)" style="fill: none; stroke: #404040; stroke-width: 0.5625; stroke-linecap: round"/>
   </g>
   <g id="line2d_68">
    <path d="M 378.867369 486.8 
L 425.224455 486.8 
" clip-path="url(#p4338def723)" style="fill: none; stroke: #404040; stroke-width: 1.6875; stroke-linecap: round"/>
   </g>
   <g id="line2d_69">
    <path d="M 402.150121 486.8 
" clip-path="url(#p4338def723)" style="fill: none; stroke: #404040; stroke-width: 1.75; stroke-linecap: round"/>
    <g clip-path="url(#p4338def723)">
     <use xlink:href="#m32877d751c" x="402.150121" y="486.8" style="fill: #ffffff; stroke: #ffffff; stroke-width: 0.3375"/>
    </g>
   </g>
   <g id="line2d_70">
    <path d="M 231.51249 548.4 
L 561.157231 548.4 
" clip-path="url(#p4338def723)" style="fill: none; stroke: #404040; stroke-width: 0.5625; stroke-linecap: round"/>
   </g>
   <g id="line2d_71">
    <path d="M 357.071989 548.4 
L 444.782476 548.4 
" clip-path="url(#p4338def723)" style="fill: none; stroke: #404040; stroke-width: 1.6875; stroke-linecap: round"/>
   </g>
   <g id="line2d_72">
    <path d="M 398.975793 548.4 
" clip-path="url(#p4338def723)" style="fill: none; stroke: #404040; stroke-width: 1.75; stroke-linecap: round"/>
    <g clip-path="url(#p4338def723)">
     <use xlink:href="#m32877d751c" x="398.975793" y="548.4" style="fill: #ffffff; stroke: #ffffff; stroke-width: 0.3375"/>
    </g>
   </g>
   <g id="line2d_73">
    <path d="M 333.21537 610 
L 459.53223 610 
" clip-path="url(#p4338def723)" style="fill: none; stroke: #404040; stroke-width: 0.5625; stroke-linecap: round"/>
   </g>
   <g id="line2d_74">
    <path d="M 380.775962 610 
L 412.839514 610 
" clip-path="url(#p4338def723)" style="fill: none; stroke: #404040; stroke-width: 1.6875; stroke-linecap: round"/>
   </g>
   <g id="line2d_75">
    <path d="M 399.312683 610 
" clip-path="url(#p4338def723)" style="fill: none; stroke: #404040; stroke-width: 1.75; stroke-linecap: round"/>
    <g clip-path="url(#p4338def723)">
     <use xlink:href="#m32877d751c" x="399.312683" y="610" style="fill: #ffffff; stroke: #ffffff; stroke-width: 0.3375"/>
    </g>
   </g>
   <g id="patch_3">
    <path d="M 90 640.8 
L 90 86.4 
" style="fill: none"/>
   </g>
   <g id="patch_4">
    <path d="M 648 640.8 
L 648 86.4 
" style="fill: none"/>
   </g>
   <g id="patch_5">
    <path d="M 90 640.8 
L 648 640.8 
" style="fill: none"/>
   </g>
   <g id="patch_6">
    <path d="M 90 86.4 
L 648 86.4 
" style="fill: none"/>
   </g>
  </g>
 </g>
 <defs>
  <clipPath id="p4338def723">
   <rect x="90" y="86.4" width="558" height="554.4"/>
  </clipPath>
 </defs>
</svg>
